<svg width="22" height="21" viewBox="0 0 22 21" fill="none" xmlns="http://www.w3.org/2000/svg">
<path d="M-1.07288e-05 4.53597C-1.07288e-05 3.11731 0.410656 2.00664 1.23199 1.20397C2.07199 0.401307 3.14532 -2.6226e-05 4.45199 -2.6226e-05C5.75866 -2.6226e-05 6.82266 0.401307 7.64399 1.20397C8.48399 2.00664 8.90399 3.11731 8.90399 4.53597C8.90399 5.97331 8.48399 7.09331 7.64399 7.89597C6.82266 8.69864 5.75866 9.09997 4.45199 9.09997C3.14532 9.09997 2.07199 8.69864 1.23199 7.89597C0.410656 7.09331 -1.07288e-05 5.97331 -1.07288e-05 4.53597ZM17.976 0.335973L6.97199 19.936H3.16399L14.14 0.335973H17.976ZM4.42399 2.35197C3.39732 2.35197 2.88399 3.07997 2.88399 4.53597C2.88399 6.01064 3.39732 6.74797 4.42399 6.74797C4.92799 6.74797 5.31999 6.57064 5.59999 6.21597C5.87999 5.84264 6.01999 5.28264 6.01999 4.53597C6.01999 3.07997 5.48799 2.35197 4.42399 2.35197ZM12.292 15.708C12.292 14.2706 12.7027 13.16 13.524 12.376C14.364 11.5733 15.4373 11.172 16.744 11.172C18.0507 11.172 19.1053 11.5733 19.908 12.376C20.7293 13.16 21.14 14.2706 21.14 15.708C21.14 17.1453 20.7293 18.2653 19.908 19.068C19.1053 19.8706 18.0507 20.272 16.744 20.272C15.4187 20.272 14.3453 19.8706 13.524 19.068C12.7027 18.2653 12.292 17.1453 12.292 15.708ZM16.716 13.524C15.652 13.524 15.12 14.252 15.12 15.708C15.12 17.1826 15.652 17.92 16.716 17.92C17.7613 17.92 18.284 17.1826 18.284 15.708C18.284 14.252 17.7613 13.524 16.716 13.524Z" fill="url(#paint0_linear_1_351)"/>
<defs>
<linearGradient id="paint0_linear_1_351" x1="0.571684" y1="20.436" x2="25.5642" y2="12.1906" gradientUnits="userSpaceOnUse">
<stop stop-color="#B33DEB"/>
<stop offset="1" stop-color="#DE8FFF"/>
</linearGradient>
</defs>
</svg>