<svg width="116" height="108" version="1.1" xmlns="http://www.w3.org/2000/svg" desc="Created with imagetracer.js version 1.2.6" ><path fill="rgb(242,240,236)" stroke="rgb(242,240,236)" stroke-width="1" opacity="1" d="M 20.5 3 L 18.5 6 L 20.5 3 Z " /><path fill="rgb(242,240,236)" stroke="rgb(242,240,236)" stroke-width="1" opacity="1" d="M 94.5 3 L 95.5 5 L 94.5 3 Z " /><path fill="rgb(242,240,236)" stroke="rgb(242,240,236)" stroke-width="1" opacity="1" d="M 97.5 10 L 102 12.5 L 100 13.5 L 106 22.5 L 104 23 L 103.5 21 L 101 22.5 Q 104.5 21 102 19.5 L 99.5 14 L 98 14.5 L 97 12.5 L 97.5 10 Z " /><path fill="rgb(242,240,236)" stroke="rgb(242,240,236)" stroke-width="1" opacity="1" d="M 15.5 11 L 18 12.5 L 16.5 15 Q 15.3 12.8 14 15.5 L 12 20.5 L 13.5 23 L 11 21.5 Q 11.8 23.8 9.5 23 L 10 21.5 L 10 19.5 L 15 13.5 L 13 12.5 L 15.5 11 Z " /><path fill="rgb(242,240,236)" stroke="rgb(242,240,236)" stroke-width="1" opacity="1" d="M 4.5 12 L 5 14.5 L 4 14.5 L 4.5 12 Z " /><path fill="rgb(242,240,236)" stroke="rgb(242,240,236)" stroke-width="1" opacity="1" d="M 110.5 12 L 111 14.5 L 110 14.5 L 110.5 12 Z " /><path fill="rgb(242,240,236)" stroke="rgb(242,240,236)" stroke-width="1" opacity="1" d="M 24.5 13 L 26 15.5 L 24 16.5 L 25 14.5 L 24.5 13 Z " /><path fill="rgb(242,240,236)" stroke="rgb(242,240,236)" stroke-width="1" opacity="1" d="M 90.5 13 L 90 14.5 L 91 16.5 L 89 15.5 L 90.5 13 Z " /><path fill="rgb(242,240,236)" stroke="rgb(242,240,236)" stroke-width="1" opacity="1" d="M 48.5 17 L 46.5 20 L 48.5 17 Z " /><path fill="rgb(242,240,236)" stroke="rgb(242,240,236)" stroke-width="1" opacity="1" d="M 6.5 18 L 7.5 20 L 6.5 18 Z " /><path fill="rgb(242,240,236)" stroke="rgb(242,240,236)" stroke-width="1" opacity="1" d="M 108.5 18 L 107.5 20 L 108.5 18 Z " /><path fill="rgb(242,240,236)" stroke="rgb(242,240,236)" stroke-width="1" opacity="1" d="M 60.5 21 L 61.5 23 L 60.5 21 Z " /><path fill="rgb(242,240,236)" stroke="rgb(242,240,236)" stroke-width="1" opacity="1" d="M 48.5 22 L 46.5 25 L 48.5 22 Z " /><path fill="rgb(242,240,236)" stroke="rgb(242,240,236)" stroke-width="1" opacity="1" d="M 43.5 23 L 45 25.5 L 43 24.5 L 43.5 23 Z " /><path fill="rgb(242,240,236)" stroke="rgb(242,240,236)" stroke-width="1" opacity="1" d="M 9.5 24 L 11 26.5 L 7.5 29 L 8.5 27 L 10 26.5 L 8 25.5 L 9.5 24 Z " /><path fill="rgb(242,240,236)" stroke="rgb(242,240,236)" stroke-width="1" opacity="1" d="M 105.5 24 L 106.5 26 L 105 26.5 Q 108.8 28.3 105.5 30 Q 107.1 28.3 104 26.5 L 105 25.5 L 105.5 24 Z " /><path fill="rgb(242,240,236)" stroke="rgb(242,240,236)" stroke-width="1" opacity="1" d="M 19.5 26 L 20 27.5 L 18 28.5 L 19.5 26 Z " /><path fill="rgb(242,240,236)" stroke="rgb(242,240,236)" stroke-width="1" opacity="1" d="M 1.5 29 L 2.5 31 L 1.5 29 Z " /><path fill="rgb(242,240,236)" stroke="rgb(242,240,236)" stroke-width="1" opacity="1" d="M 6.5 31 L 7.5 33 L 6.5 31 Z " /><path fill="rgb(242,240,236)" stroke="rgb(242,240,236)" stroke-width="1" opacity="1" d="M 67.5 31 L 66.5 33 L 67.5 31 Z " /><path fill="rgb(242,240,236)" stroke="rgb(242,240,236)" stroke-width="1" opacity="1" d="M 108.5 31 L 107.5 33 L 108.5 31 Z " /><path fill="rgb(242,240,236)" stroke="rgb(242,240,236)" stroke-width="1" opacity="1" d="M 9.5 33 L 8.5 35 L 9.5 33 Z " /><path fill="rgb(242,240,236)" stroke="rgb(242,240,236)" stroke-width="1" opacity="1" d="M 105.5 33 L 106.5 35 L 105.5 33 Z " /><path fill="rgb(242,240,236)" stroke="rgb(242,240,236)" stroke-width="1" opacity="1" d="M 4.5 37 Q 6.8 36.3 6 38.5 L 4.5 37 Z " /><path fill="rgb(242,240,236)" stroke="rgb(242,240,236)" stroke-width="1" opacity="1" d="M 6.5 40 L 7 42.5 L 6 42.5 L 6.5 40 Z " /><path fill="rgb(242,240,236)" stroke="rgb(242,240,236)" stroke-width="1" opacity="1" d="M 2.5 41 L 3.5 43 L 2.5 41 Z " /><path fill="rgb(242,240,236)" stroke="rgb(242,240,236)" stroke-width="1" opacity="1" d="M 9.5 41 L 8.5 43 L 9.5 41 Z " /><path fill="rgb(242,240,236)" stroke="rgb(242,240,236)" stroke-width="1" opacity="1" d="M 105.5 41 L 106.5 43 L 105.5 41 Z " /><path fill="rgb(242,240,236)" stroke="rgb(242,240,236)" stroke-width="1" opacity="1" d="M 5.5 46 L 6 48.5 L 5 48.5 L 5.5 46 Z " /><path fill="rgb(242,240,236)" stroke="rgb(242,240,236)" stroke-width="1" opacity="1" d="M 109.5 46 L 110 48.5 L 109 48.5 L 109.5 46 Z " /><path fill="rgb(242,240,236)" stroke="rgb(242,240,236)" stroke-width="1" opacity="1" d="M 17.5 51 L 14.5 55 L 17.5 51 Z " /><path fill="rgb(242,240,236)" stroke="rgb(242,240,236)" stroke-width="1" opacity="1" d="M 98.5 52 L 100.5 55 L 98.5 52 Z " /><path fill="rgb(242,240,236)" stroke="rgb(242,240,236)" stroke-width="1" opacity="1" d="M 109.5 53 L 109 54.5 L 108.5 57 L 108 54.5 L 109.5 53 Z " /><path fill="rgb(242,240,236)" stroke="rgb(242,240,236)" stroke-width="1" opacity="1" d="M 6.5 54 L 7 56.5 L 6 56.5 L 6.5 54 Z " /><path fill="rgb(242,240,236)" stroke="rgb(242,240,236)" stroke-width="1" opacity="1" d="M 98.5 55 L 99.5 57 L 98.5 55 Z " /><path fill="rgb(242,240,236)" stroke="rgb(242,240,236)" stroke-width="1" opacity="1" d="M 44.5 57 L 43.5 59 L 44.5 57 Z " /><path fill="rgb(242,240,236)" stroke="rgb(242,240,236)" stroke-width="1" opacity="1" d="M 23.5 61 L 24.5 63 L 23.5 61 Z " /><path fill="rgb(242,240,236)" stroke="rgb(242,240,236)" stroke-width="1" opacity="1" d="M 91.5 61 L 90.5 63 L 91.5 61 Z " /><path fill="rgb(242,240,236)" stroke="rgb(242,240,236)" stroke-width="1" opacity="1" d="M 8.5 63 Q 10.8 62.3 10 64.5 L 10.5 66 L 8.5 63 Z " /><path fill="rgb(242,240,236)" stroke="rgb(242,240,236)" stroke-width="1" opacity="1" d="M 43.5 63 L 44.5 65 L 43.5 63 Z " /><path fill="rgb(242,240,236)" stroke="rgb(242,240,236)" stroke-width="1" opacity="1" d="M 14.5 72 L 18 76.5 L 15 76.5 Q 17.5 75 14 73.5 L 14.5 72 Z " /><path fill="rgb(242,240,236)" stroke="rgb(242,240,236)" stroke-width="1" opacity="1" d="M 16.5 72 L 20 73.5 L 17.5 74 L 16.5 72 Z " /><path fill="rgb(242,240,236)" stroke="rgb(242,240,236)" stroke-width="1" opacity="1" d="M 98.5 72 L 97.5 74 L 95 73.5 L 98.5 72 Z " /><path fill="rgb(242,240,236)" stroke="rgb(242,240,236)" stroke-width="1" opacity="1" d="M 100.5 72 L 101 73.5 L 99 75.5 L 100.5 78 Q 98.8 74.9 97 76.5 L 100.5 72 Z " /><path fill="rgb(242,240,236)" stroke="rgb(242,240,236)" stroke-width="1" opacity="1" d="M 79.5 73 L 78.5 75 L 79.5 73 Z " /><path fill="rgb(242,240,236)" stroke="rgb(242,240,236)" stroke-width="1" opacity="1" d="M 43.5 77 L 44.5 79 L 43.5 77 Z " /><path fill="rgb(242,240,236)" stroke="rgb(242,240,236)" stroke-width="1" opacity="1" d="M 71.5 77 L 70.5 79 L 71.5 77 Z " /><path fill="rgb(242,240,236)" stroke="rgb(242,240,236)" stroke-width="1" opacity="1" d="M 37.5 78 L 38 80.5 L 37 80.5 L 37.5 78 Z " /><path fill="rgb(242,240,236)" stroke="rgb(242,240,236)" stroke-width="1" opacity="1" d="M 77.5 78 L 78 80.5 L 77 80.5 L 77.5 78 Z " /><path fill="rgb(242,240,236)" stroke="rgb(242,240,236)" stroke-width="1" opacity="1" d="M 39.5 82 L 40 84.5 L 39 84.5 L 39.5 82 Z " /><path fill="rgb(242,240,236)" stroke="rgb(242,240,236)" stroke-width="1" opacity="1" d="M 75.5 82 L 76 84.5 L 75 84.5 L 75.5 82 Z " /><path fill="rgb(242,240,236)" stroke="rgb(242,240,236)" stroke-width="1" opacity="1" d="M 88.5 82 L 87.5 84 L 88.5 82 Z " /><path fill="rgb(242,240,236)" stroke="rgb(242,240,236)" stroke-width="1" opacity="1" d="M 104.5 82 L 106.5 85 L 104.5 82 Z " /><path fill="rgb(242,240,236)" stroke="rgb(242,240,236)" stroke-width="1" opacity="1" d="M 24.5 83 L 25.5 85 L 23 84.5 L 24.5 83 Z " /><path fill="rgb(242,240,236)" stroke="rgb(242,240,236)" stroke-width="1" opacity="1" d="M 90.5 83 L 91.5 85 L 89 84.5 L 90.5 83 Z " /><path fill="rgb(242,240,236)" stroke="rgb(242,240,236)" stroke-width="1" opacity="1" d="M 30.5 85 L 33 86.5 L 31.5 86 L 30.5 85 Z " /><path fill="rgb(242,240,236)" stroke="rgb(242,240,236)" stroke-width="1" opacity="1" d="M 46.5 85 L 47 87.5 L 46 87.5 L 46.5 85 Z " /><path fill="rgb(242,240,236)" stroke="rgb(242,240,236)" stroke-width="1" opacity="1" d="M 68.5 85 L 69 87.5 L 68 87.5 L 68.5 85 Z " /><path fill="rgb(242,240,236)" stroke="rgb(242,240,236)" stroke-width="1" opacity="1" d="M 9.5 86 L 10.5 88 L 9.5 86 Z " /><path fill="rgb(242,240,236)" stroke="rgb(242,240,236)" stroke-width="1" opacity="1" d="M 105.5 86 L 104.5 88 L 105.5 86 Z " /><path fill="rgb(242,240,236)" stroke="rgb(242,240,236)" stroke-width="1" opacity="1" d="M 40.5 93 L 43 93.5 L 40.5 94 L 40.5 93 Z " /><path fill="rgb(242,240,236)" stroke="rgb(242,240,236)" stroke-width="1" opacity="1" d="M 72.5 93 L 75 93.5 L 72.5 94 L 72.5 93 Z " /><path fill="rgb(242,240,236)" stroke="rgb(242,240,236)" stroke-width="1" opacity="1" d="M 33.5 96 L 31.5 99 L 33.5 96 Z " /><path fill="rgb(242,240,236)" stroke="rgb(242,240,236)" stroke-width="1" opacity="1" d="M 81.5 96 L 83.5 99 L 81.5 96 Z " /><path fill="rgb(242,240,236)" stroke="rgb(242,240,236)" stroke-width="1" opacity="1" d="M 56.5 99 L 54.5 102 L 56.5 99 Z " /><path fill="rgb(242,240,236)" stroke="rgb(242,240,236)" stroke-width="1" opacity="1" d="M 58.5 99 L 60.5 102 L 58.5 99 Z " /><path fill="rgb(238,224,195)" stroke="rgb(238,224,195)" stroke-width="1" opacity="1" d="M 12.5 3 Q 16.5 4.5 15 11.5 L 13.5 11 L 11 9.5 Q 9.8 4.3 12.5 3 Z " /><path fill="rgb(238,224,195)" stroke="rgb(238,224,195)" stroke-width="1" opacity="1" d="M 23.5 3 L 25 5.5 L 22.5 9 L 19 7.5 L 20.5 4 L 23.5 3 Z " /><path fill="rgb(238,224,195)" stroke="rgb(238,224,195)" stroke-width="1" opacity="1" d="M 102.5 3 Q 105.3 4.3 104 9.5 L 100 12 Q 98.3 4.9 102.5 3 Z " /><path fill="rgb(238,224,195)" stroke="rgb(238,224,195)" stroke-width="1" opacity="1" d="M 90 4 Q 94.6 2.8 96 5.5 L 94.5 9 L 91 7.5 L 90 4 Z " /><path fill="rgb(238,224,195)" stroke="rgb(238,224,195)" stroke-width="1" opacity="1" d="M 6.5 10 L 10 14.5 L 9 17.5 L 11 17.5 L 7.5 19 L 6.5 17 L 8 17.5 L 6.5 15 L 5 15.5 Q 4 11 6.5 10 Z " /><path fill="rgb(238,224,195)" stroke="rgb(238,224,195)" stroke-width="1" opacity="1" d="M 108.5 10 L 110 13.5 L 109.5 16 L 108 15.5 L 109 17.5 Q 106.5 22.5 104 17.5 L 106 17.5 L 107 15.5 L 105 14.5 L 108.5 10 Z " /><path fill="rgb(238,224,195)" stroke="rgb(238,224,195)" stroke-width="1" opacity="1" d="M 95.5 12 L 98 13.5 L 96.5 16 L 90 14.5 L 95.5 12 Z " /><path fill="rgb(238,224,195)" stroke="rgb(238,224,195)" stroke-width="1" opacity="1" d="M 17 13 Q 23.1 11.3 25 14.5 L 24.5 16 L 19.5 15 Q 18.3 17.3 17 14.5 L 17 13 Z " /><path fill="rgb(238,224,195)" stroke="rgb(238,224,195)" stroke-width="1" opacity="1" d="M 49.5 17 L 46.5 21 L 49.5 17 Z " /><path fill="rgb(238,224,195)" stroke="rgb(238,224,195)" stroke-width="1" opacity="1" d="M 13.5 19 L 17 20.5 L 13.5 22 L 13.5 19 Z " /><path fill="rgb(238,224,195)" stroke="rgb(238,224,195)" stroke-width="1" opacity="1" d="M 20.5 19 Q 23.5 20.5 20.5 22 L 20.5 19 Z " /><path fill="rgb(238,224,195)" stroke="rgb(238,224,195)" stroke-width="1" opacity="1" d="M 94.5 19 L 94.5 22 Q 91.5 20.5 94.5 19 Z " /><path fill="rgb(238,224,195)" stroke="rgb(238,224,195)" stroke-width="1" opacity="1" d="M 101.5 19 L 102 21.5 L 100.5 21 L 98 20.5 L 101.5 19 Z " /><path fill="rgb(238,224,195)" stroke="rgb(238,224,195)" stroke-width="1" opacity="1" d="M 60.5 20 L 61.5 22 L 60.5 20 Z " /><path fill="rgb(238,224,195)" stroke="rgb(238,224,195)" stroke-width="1" opacity="1" d="M 48.5 21 L 46.5 24 L 48.5 21 Z " /><path fill="rgb(238,224,195)" stroke="rgb(238,224,195)" stroke-width="1" opacity="1" d="M 110.5 21 L 109.5 23 L 110.5 21 Z " /><path fill="rgb(238,224,195)" stroke="rgb(238,224,195)" stroke-width="1" opacity="1" d="M 69.5 23 L 70 26.5 L 69 26.5 L 69.5 23 Z " /><path fill="rgb(238,224,195)" stroke="rgb(238,224,195)" stroke-width="1" opacity="1" d="M 3.5 24 Q 5.3 27.1 7 25.5 Q 7.7 28.5 4 27 L 3.5 24 Z " /><path fill="rgb(238,224,195)" stroke="rgb(238,224,195)" stroke-width="1" opacity="1" d="M 111.5 24 L 111 25.5 Q 111.7 28.5 108 27 L 108.5 25 Q 110 27.5 111.5 24 Z " /><path fill="rgb(238,224,195)" stroke="rgb(238,224,195)" stroke-width="1" opacity="1" d="M 13.5 25 L 16 25.5 L 13.5 26 L 13.5 25 Z " /><path fill="rgb(238,224,195)" stroke="rgb(238,224,195)" stroke-width="1" opacity="1" d="M 10 28 L 13 28.5 L 10 30 L 10 28 Z " /><path fill="rgb(238,224,195)" stroke="rgb(238,224,195)" stroke-width="1" opacity="1" d="M 0.5 29 L 3.5 33 L 0.5 29 Z " /><path fill="rgb(238,224,195)" stroke="rgb(238,224,195)" stroke-width="1" opacity="1" d="M 114.5 29 L 113.5 31 L 114.5 29 Z " /><path fill="rgb(238,224,195)" stroke="rgb(238,224,195)" stroke-width="1" opacity="1" d="M 1.5 34 L 2.5 36 L 1.5 34 Z " /><path fill="rgb(238,224,195)" stroke="rgb(238,224,195)" stroke-width="1" opacity="1" d="M 4.5 34 L 5 36.5 L 4 36.5 L 4.5 34 Z " /><path fill="rgb(238,224,195)" stroke="rgb(238,224,195)" stroke-width="1" opacity="1" d="M 110.5 34 L 111 36.5 L 110 36.5 L 110.5 34 Z " /><path fill="rgb(238,224,195)" stroke="rgb(238,224,195)" stroke-width="1" opacity="1" d="M 113.5 34 L 112.5 36 L 113.5 34 Z " /><path fill="rgb(238,224,195)" stroke="rgb(238,224,195)" stroke-width="1" opacity="1" d="M 106.5 35 L 105.5 37 L 104 36.5 L 106.5 35 Z " /><path fill="rgb(238,224,195)" stroke="rgb(238,224,195)" stroke-width="1" opacity="1" d="M 50.5 38 L 52 40.5 L 50 39.5 L 50.5 38 Z " /><path fill="rgb(238,224,195)" stroke="rgb(238,224,195)" stroke-width="1" opacity="1" d="M 70.5 40 L 71.5 42 L 70.5 40 Z " /><path fill="rgb(238,224,195)" stroke="rgb(238,224,195)" stroke-width="1" opacity="1" d="M 62.5 41 L 64.5 44 L 62.5 41 Z " /><path fill="rgb(238,224,195)" stroke="rgb(238,224,195)" stroke-width="1" opacity="1" d="M 9.5 45 L 10.5 47 L 9.5 45 Z " /><path fill="rgb(238,224,195)" stroke="rgb(238,224,195)" stroke-width="1" opacity="1" d="M 105.5 45 L 108 45.5 L 106.5 47 L 104 46.5 L 105.5 45 Z " /><path fill="rgb(238,224,195)" stroke="rgb(238,224,195)" stroke-width="1" opacity="1" d="M 6.5 47 L 7 51.5 L 6 51.5 L 6.5 47 Z " /><path fill="rgb(238,224,195)" stroke="rgb(238,224,195)" stroke-width="1" opacity="1" d="M 108.5 47 L 109 51.5 L 108 51.5 L 108.5 47 Z " /><path fill="rgb(238,224,195)" stroke="rgb(238,224,195)" stroke-width="1" opacity="1" d="M 11.5 53 L 10.5 55 L 11.5 53 Z " /><path fill="rgb(238,224,195)" stroke="rgb(238,224,195)" stroke-width="1" opacity="1" d="M 103.5 53 L 104.5 55 L 103.5 53 Z " /><path fill="rgb(238,224,195)" stroke="rgb(238,224,195)" stroke-width="1" opacity="1" d="M 7.5 56 L 8.5 58 L 7.5 56 Z " /><path fill="rgb(238,224,195)" stroke="rgb(238,224,195)" stroke-width="1" opacity="1" d="M 107.5 56 L 106.5 58 L 107.5 56 Z " /><path fill="rgb(238,224,195)" stroke="rgb(238,224,195)" stroke-width="1" opacity="1" d="M 8.5 59 L 9.5 61 L 8.5 59 Z " /><path fill="rgb(238,224,195)" stroke="rgb(238,224,195)" stroke-width="1" opacity="1" d="M 63.5 59 L 62.5 61 L 63.5 59 Z " /><path fill="rgb(238,224,195)" stroke="rgb(238,224,195)" stroke-width="1" opacity="1" d="M 106.5 59 L 105.5 61 L 106.5 59 Z " /><path fill="rgb(238,224,195)" stroke="rgb(238,224,195)" stroke-width="1" opacity="1" d="M 0.5 61 L 3 61.5 L 0.5 62 L 0.5 61 Z " /><path fill="rgb(238,224,195)" stroke="rgb(238,224,195)" stroke-width="1" opacity="1" d="M 112.5 61 L 116 61.5 L 112.5 62 L 112.5 61 Z " /><path fill="rgb(238,224,195)" stroke="rgb(238,224,195)" stroke-width="1" opacity="1" d="M 20.5 63 L 19.5 65 L 20.5 63 Z " /><path fill="rgb(238,224,195)" stroke="rgb(238,224,195)" stroke-width="1" opacity="1" d="M 94.5 63 L 95.5 65 L 94.5 63 Z " /><path fill="rgb(238,224,195)" stroke="rgb(238,224,195)" stroke-width="1" opacity="1" d="M 9.5 65 L 8.5 67 L 9.5 65 Z " /><path fill="rgb(238,224,195)" stroke="rgb(238,224,195)" stroke-width="1" opacity="1" d="M 23.5 75 L 24 77.5 L 23 77.5 L 23.5 75 Z " /><path fill="rgb(238,224,195)" stroke="rgb(238,224,195)" stroke-width="1" opacity="1" d="M 91.5 75 L 92 77.5 L 91 77.5 L 91.5 75 Z " /><path fill="rgb(238,224,195)" stroke="rgb(238,224,195)" stroke-width="1" opacity="1" d="M 20.5 79 L 21.5 81 L 20.5 79 Z " /><path fill="rgb(238,224,195)" stroke="rgb(238,224,195)" stroke-width="1" opacity="1" d="M 94.5 79 L 92.5 82 L 94.5 79 Z " /><path fill="rgb(238,224,195)" stroke="rgb(238,224,195)" stroke-width="1" opacity="1" d="M 25.5 80 L 24.5 82 L 25.5 80 Z " /><path fill="rgb(238,224,195)" stroke="rgb(238,224,195)" stroke-width="1" opacity="1" d="M 89.5 80 L 90.5 82 L 89.5 80 Z " /><path fill="rgb(238,224,195)" stroke="rgb(238,224,195)" stroke-width="1" opacity="1" d="M 21.5 84 Q 23.8 83.3 23 85.5 L 21 86.5 L 21.5 84 Z " /><path fill="rgb(238,224,195)" stroke="rgb(238,224,195)" stroke-width="1" opacity="1" d="M 28.5 84 L 27.5 86 L 28.5 84 Z " /><path fill="rgb(238,224,195)" stroke="rgb(238,224,195)" stroke-width="1" opacity="1" d="M 80.5 84 L 81 86.5 L 80 86.5 L 80.5 84 Z " /><path fill="rgb(238,224,195)" stroke="rgb(238,224,195)" stroke-width="1" opacity="1" d="M 92 84 L 94 84.5 L 93.5 87 L 92 84 Z " /><path fill="rgb(238,224,195)" stroke="rgb(238,224,195)" stroke-width="1" opacity="1" d="M 31.5 86 L 30.5 88 L 31.5 86 Z " /><path fill="rgb(238,224,195)" stroke="rgb(238,224,195)" stroke-width="1" opacity="1" d="M 83.5 86 L 84.5 88 L 83.5 86 Z " /><path fill="rgb(238,224,195)" stroke="rgb(238,224,195)" stroke-width="1" opacity="1" d="M 31.5 93 L 30.5 95 L 31.5 93 Z " /><path fill="rgb(238,224,195)" stroke="rgb(238,224,195)" stroke-width="1" opacity="1" d="M 71.5 93 L 72 95.5 L 71 95.5 L 71.5 93 Z " /><path fill="rgb(238,224,195)" stroke="rgb(238,224,195)" stroke-width="1" opacity="1" d="M 83.5 93 L 84.5 95 L 83.5 93 Z " /><path fill="rgb(238,224,195)" stroke="rgb(238,224,195)" stroke-width="1" opacity="1" d="M 18.5 94 L 19.5 96 L 18.5 94 Z " /><path fill="rgb(238,224,195)" stroke="rgb(238,224,195)" stroke-width="1" opacity="1" d="M 55.5 97 L 54.5 99 L 55.5 97 Z " /><path fill="rgb(238,224,195)" stroke="rgb(238,224,195)" stroke-width="1" opacity="1" d="M 59.5 97 L 60.5 99 L 59.5 97 Z " /><path fill="rgb(244,244,242)" stroke="rgb(244,244,242)" stroke-width="1" opacity="1" d="M 18.5 9 L 18 10.5 L 16.5 13 L 14.5 14 L 15.5 12 Q 17.8 12.8 17 10.5 L 18.5 9 Z " /><path fill="rgb(244,244,242)" stroke="rgb(244,244,242)" stroke-width="1" opacity="1" d="M 97.5 11 L 101 13.5 L 99.5 13 L 97.5 11 Z " /><path fill="rgb(244,244,242)" stroke="rgb(244,244,242)" stroke-width="1" opacity="1" d="M 113.5 26 L 112.5 28 L 113.5 26 Z " /><path fill="rgb(244,244,242)" stroke="rgb(244,244,242)" stroke-width="1" opacity="1" d="M 107.5 27 L 108.5 29 L 107.5 27 Z " /><path fill="rgb(244,244,242)" stroke="rgb(244,244,242)" stroke-width="1" opacity="1" d="M 109.5 36 L 110.5 38 L 109.5 36 Z " /><path fill="rgb(244,244,242)" stroke="rgb(244,244,242)" stroke-width="1" opacity="1" d="M 4.5 52 L 5.5 54 L 4.5 52 Z " /><path fill="rgb(244,244,242)" stroke="rgb(244,244,242)" stroke-width="1" opacity="1" d="M 106.5 71 L 109 71.5 L 106.5 72 L 106.5 71 Z " /><path fill="rgb(244,244,242)" stroke="rgb(244,244,242)" stroke-width="1" opacity="1" d="M 112.5 76 L 111.5 78 L 112.5 76 Z " /><path fill="rgb(237,218,180)" stroke="rgb(237,218,180)" stroke-width="1" opacity="1" d="M 109.5 14 L 109 15.5 L 107.5 18 L 108 16.5 L 109.5 14 Z " /><path fill="rgb(237,218,180)" stroke="rgb(237,218,180)" stroke-width="1" opacity="1" d="M 6.5 15 L 8 17.5 L 6 16.5 L 6.5 15 Z " /><path fill="rgb(237,218,180)" stroke="rgb(237,218,180)" stroke-width="1" opacity="1" d="M 9.5 15 L 10 17.5 L 9 17.5 L 9.5 15 Z " /><path fill="rgb(237,218,180)" stroke="rgb(237,218,180)" stroke-width="1" opacity="1" d="M 19.5 15 L 24 15.5 L 19.5 16 L 19.5 15 Z " /><path fill="rgb(237,218,180)" stroke="rgb(237,218,180)" stroke-width="1" opacity="1" d="M 54.5 15 Q 64.9 13.6 68 19.5 L 69 28.5 L 67 32 L 62 35.5 L 67 37.5 L 53.5 38 L 53.5 37 L 55.5 37 L 62 31.5 L 63 23.5 L 60.5 20 L 52.5 19 L 46 23.5 Q 46.7 26.1 44 25 L 50.5 17 L 54.5 15 Z " /><path fill="rgb(237,218,180)" stroke="rgb(237,218,180)" stroke-width="1" opacity="1" d="M 90.5 15 L 96 15.5 L 90.5 16 L 90.5 15 Z " /><path fill="rgb(237,218,180)" stroke="rgb(237,218,180)" stroke-width="1" opacity="1" d="M 105 15 L 107 15.5 L 105.5 18 L 105 15 Z " /><path fill="rgb(237,218,180)" stroke="rgb(237,218,180)" stroke-width="1" opacity="1" d="M 1.5 19 L 5 21.5 L 6 25.5 L 4 25.5 L 5 27.5 L 1 24.5 L 0 20.5 L 1.5 19 Z " /><path fill="rgb(237,218,180)" stroke="rgb(237,218,180)" stroke-width="1" opacity="1" d="M 14.5 19 Q 19.8 17.8 21 20.5 Q 19.8 23.3 14.5 22 L 14.5 21 L 17 20.5 Q 13.7 20.6 14.5 19 Z " /><path fill="rgb(237,218,180)" stroke="rgb(237,218,180)" stroke-width="1" opacity="1" d="M 95.5 19 L 101 19.5 L 98 20.5 L 101 21.5 L 95.5 22 Q 92.5 20.5 95.5 19 Z " /><path fill="rgb(237,218,180)" stroke="rgb(237,218,180)" stroke-width="1" opacity="1" d="M 113.5 19 L 115 21.5 L 110.5 28 L 111 26.5 L 110.5 25 L 109 25.5 L 111 20 L 113.5 19 Z " /><path fill="rgb(237,218,180)" stroke="rgb(237,218,180)" stroke-width="1" opacity="1" d="M 12.5 26 Q 17.8 24.8 19 27.5 L 12.5 30 L 12.5 28 L 10 27.5 L 12.5 26 Z " /><path fill="rgb(237,218,180)" stroke="rgb(237,218,180)" stroke-width="1" opacity="1" d="M 96 26 Q 102.2 24.7 105 27.5 L 102 28.5 L 104 29.5 L 101.5 30 L 96 28 L 96 26 Z " /><path fill="rgb(237,218,180)" stroke="rgb(237,218,180)" stroke-width="1" opacity="1" d="M 115.5 29 L 116 36 L 112.5 37 L 111 33.5 L 115.5 29 Z " /><path fill="rgb(237,218,180)" stroke="rgb(237,218,180)" stroke-width="1" opacity="1" d="M 0.5 30 Q 4.5 30.5 4 35.5 L 1.5 37 Q -1.6 35.4 0.5 30 Z " /><path fill="rgb(237,218,180)" stroke="rgb(237,218,180)" stroke-width="1" opacity="1" d="M 11.5 33 Q 17.6 31.8 17 34.5 L 11.5 38 L 11 36 L 9 36.5 L 9.5 38 L 8 35.5 L 11.5 33 Z " /><path fill="rgb(237,218,180)" stroke="rgb(237,218,180)" stroke-width="1" opacity="1" d="M 98 33 L 106 34 L 107 36.5 L 103.5 38 L 98 34.5 L 98 33 Z " /><path fill="rgb(237,218,180)" stroke="rgb(237,218,180)" stroke-width="1" opacity="1" d="M 54.5 39 L 58 39.5 L 54.5 40 L 54.5 39 Z " /><path fill="rgb(237,218,180)" stroke="rgb(237,218,180)" stroke-width="1" opacity="1" d="M 14.5 40 L 17 41.5 L 15.5 41 L 14.5 40 Z " /><path fill="rgb(237,218,180)" stroke="rgb(237,218,180)" stroke-width="1" opacity="1" d="M 99.5 40 L 101 40.5 L 98.5 42 L 99.5 40 Z " /><path fill="rgb(237,218,180)" stroke="rgb(237,218,180)" stroke-width="1" opacity="1" d="M 11.5 43 L 13 45.5 L 11 44.5 L 11.5 43 Z " /><path fill="rgb(237,218,180)" stroke="rgb(237,218,180)" stroke-width="1" opacity="1" d="M 103.5 43 L 105 45.5 L 102 45.5 L 103.5 43 Z " /><path fill="rgb(237,218,180)" stroke="rgb(237,218,180)" stroke-width="1" opacity="1" d="M 8.5 45 L 9.5 47 L 8.5 45 Z " /><path fill="rgb(231,211,173)" stroke="rgb(231,211,173)" stroke-width="1" opacity="1" d="M 51 38 L 67.5 38 L 72 42.5 L 73 52 L 67 52 L 67 47.5 L 62.5 41 L 54.5 39 L 51 40 L 51 38 Z " /><path fill="rgb(231,211,173)" stroke="rgb(231,211,173)" stroke-width="1" opacity="1" d="M 115.5 40 L 116 45.5 L 113.5 47 L 114.5 44 L 111.5 46 L 111 44.5 L 115.5 40 Z " /><path fill="rgb(231,211,173)" stroke="rgb(231,211,173)" stroke-width="1" opacity="1" d="M 0.5 41 L 4 45.5 L 1.5 44 Q -1.6 44.7 0.5 41 Z " /><path fill="rgb(231,211,173)" stroke="rgb(231,211,173)" stroke-width="1" opacity="1" d="M 11.5 41 Q 16.9 39.1 16 42.5 L 10.5 46 L 8 44.5 L 11.5 41 Z M 12 43 L 10 45 L 12 45 L 12 43 Z " /><path fill="rgb(231,211,173)" stroke="rgb(231,211,173)" stroke-width="1" opacity="1" d="M 99 41 Q 105.4 39.8 107 44.5 L 105.5 45 L 103 43.5 L 104 45.5 L 102.5 45 L 99 42.5 L 99 41 Z " /><path fill="rgb(231,211,173)" stroke="rgb(231,211,173)" stroke-width="1" opacity="1" d="M 0.5 45 L 1.5 47 Q -1.3 47.7 0.5 45 Z " /><path fill="rgb(231,211,173)" stroke="rgb(231,211,173)" stroke-width="1" opacity="1" d="M 14.5 48 L 18 48.5 L 14.5 54 L 13.5 52 L 11.5 55 Q 13.1 53.3 10 51.5 L 12.5 49 L 14.5 48 Z " /><path fill="rgb(231,211,173)" stroke="rgb(231,211,173)" stroke-width="1" opacity="1" d="M 97.5 48 Q 103.1 47.9 105 51.5 Q 101.9 53.3 103.5 55 L 99 52.5 L 97.5 48 Z M 101 52 L 101 53 L 103 53 L 101 52 Z " /><path fill="rgb(231,211,173)" stroke="rgb(231,211,173)" stroke-width="1" opacity="1" d="M 70.5 53 L 71.5 55 L 69 54.5 L 70.5 53 Z " /><path fill="rgb(231,211,173)" stroke="rgb(231,211,173)" stroke-width="1" opacity="1" d="M 111.5 53 L 115 54.5 L 116 56.5 L 114.5 56 L 113 55.5 L 113.5 54 L 109.5 56 L 111.5 53 Z " /><path fill="rgb(231,211,173)" stroke="rgb(231,211,173)" stroke-width="1" opacity="1" d="M 0.5 54 L 1.5 56 L 0.5 54 Z " /><path fill="rgb(231,211,173)" stroke="rgb(231,211,173)" stroke-width="1" opacity="1" d="M 4.5 55 L 6 55.5 L 4 56 Q 5.1 58.7 2.5 58 L 4.5 55 Z " /><path fill="rgb(231,211,173)" stroke="rgb(231,211,173)" stroke-width="1" opacity="1" d="M 16.5 56 L 15.5 58 L 16.5 56 Z " /><path fill="rgb(231,211,173)" stroke="rgb(231,211,173)" stroke-width="1" opacity="1" d="M 111.5 56 L 112.5 58 Q 109.7 58.7 111.5 56 Z " /><path fill="rgb(231,211,173)" stroke="rgb(231,211,173)" stroke-width="1" opacity="1" d="M 102.5 62 L 101.5 64 L 102.5 62 Z " /><path fill="rgb(231,211,173)" stroke="rgb(231,211,173)" stroke-width="1" opacity="1" d="M 97.5 71 L 96.5 73 L 97.5 71 Z " /><path fill="rgb(231,211,173)" stroke="rgb(231,211,173)" stroke-width="1" opacity="1" d="M 100.5 71 L 98.5 74 L 100.5 71 Z " /><path fill="rgb(231,211,173)" stroke="rgb(231,211,173)" stroke-width="1" opacity="1" d="M 13 76 L 15 76.5 L 13 77.5 L 13 76 Z " /><path fill="rgb(231,211,173)" stroke="rgb(231,211,173)" stroke-width="1" opacity="1" d="M 100.5 76 Q 102.8 75.3 102 77.5 L 100.5 76 Z " /><path fill="rgb(231,211,173)" stroke="rgb(231,211,173)" stroke-width="1" opacity="1" d="M 8.5 78 L 11 78.5 L 8.5 79 L 8.5 78 Z " /><path fill="rgb(231,211,173)" stroke="rgb(231,211,173)" stroke-width="1" opacity="1" d="M 104.5 78 L 107 78.5 L 104.5 79 L 104.5 78 Z " /><path fill="rgb(231,211,173)" stroke="rgb(231,211,173)" stroke-width="1" opacity="1" d="M 85.5 91 L 86.5 93 L 85.5 91 Z " /><path fill="rgb(231,211,173)" stroke="rgb(231,211,173)" stroke-width="1" opacity="1" d="M 50.5 93 L 49.5 95 L 50.5 93 Z " /><path fill="rgb(231,211,173)" stroke="rgb(231,211,173)" stroke-width="1" opacity="1" d="M 64.5 93 L 65.5 95 L 64.5 93 Z " /><path fill="rgb(231,211,173)" stroke="rgb(231,211,173)" stroke-width="1" opacity="1" d="M 72.5 96 L 71.5 98 L 72.5 96 Z " /><path fill="rgb(244,244,243)" stroke="rgb(244,244,243)" stroke-width="1" opacity="1" d="M 0 0 L 4.5 1 L 5.5 0 L 116 0 L 115.5 20 L 115 18 L 112.5 18 L 108 22.5 L 107.5 27 L 105 20 Q 108.8 20.8 110 17.5 L 111 12.5 L 110 10 Q 106.2 9.3 105 12.5 L 103.5 18 L 101 13.5 Q 105.9 11.9 105 4.5 Q 102.5 -0.5 100 4.5 L 98.5 11 L 97 10.5 Q 97.9 13.9 92.5 12 L 89 14.5 L 90.5 17 Q 98 18.5 99.5 14 L 102 18.5 L 100.5 18 Q 95.1 17.4 93 19 L 94.5 23 Q 101.8 24.8 103.5 21 L 106 26.5 L 103.5 25 Q 96.7 23.3 95 26.5 L 96.5 29 L 105.5 30 L 107 29.5 L 108 34.5 L 105.5 33 L 97 32 Q 96.3 36.7 100.5 38 L 107 39 L 106.5 42 Q 103.7 38.6 97 40 L 101 47.5 L 99.5 47 L 96 48.5 L 100 54.5 L 96.5 55 L 94.5 55 Q 92.3 54.3 93 56.5 L 96 61.5 L 93.5 62 L 91.5 61 L 89 62 L 90 69 Q 93 68 92 71 L 90 71 Q 91.1 68.3 88.5 69 L 84 68 Q 85.6 70.1 85 75.5 L 84 75.5 L 84 71 L 80 69 L 80 71 Q 77.3 69.9 78 72.5 L 78 74.5 L 77 81.5 L 79 85.5 L 77 86.5 L 76 83.5 Q 78.5 82 75 80.5 L 73 75 Q 70 73.8 71 77.5 L 68 81.5 L 69 83.5 L 68 87 L 65.5 86 L 64 86.5 L 64 84 L 66 83.5 L 66 79 L 67.5 79 L 67.5 78 Q 60.6 76 62 80 Q 65 78.8 64 82.5 L 62 86.5 L 63.5 89 L 62 88.5 Q 62.7 91.1 60 90 L 59.5 88 L 55.5 88 L 52 89.5 L 53 92 L 49.5 93 L 46 92 L 46 89 Q 49 90.3 48 86.5 L 46.5 84 Q 47.8 86.3 49 83.5 Q 49.8 81.3 47.5 82 L 46 82.5 L 46 78 Q 43 79 44 76 L 40.5 76 L 40 78.5 L 39 85.5 L 41.5 91 L 35 87.5 L 37 85.5 L 38 77.5 Q 35.5 76 39 74.5 Q 40.9 69.1 37.5 70 L 35 69 L 35 71 Q 39.1 69.7 38 73 L 33 73 L 33 74.5 L 30.5 81 L 29 80.5 Q 28.3 83.1 31 82 L 31 85 L 25 81.5 L 28 81 Q 31.3 76.9 30 68 L 27.5 68 L 23 71 L 22.5 74 Q 19.3 72.3 23 70.5 Q 26 68.5 25 62.5 L 22.5 61 L 20 62 L 20 64 Q 17.3 62.9 18 65.5 L 16 70.5 L 16.5 72 L 13 66.5 L 20 60.5 L 21 55.5 Q 19.7 52.7 18.5 55 L 16.5 55 L 12 59.5 L 11.5 63 L 9 57.5 L 18 51.5 L 19 48.5 Q 18.3 46.3 14.5 47 L 9 51.5 L 8.5 53 L 7 47.5 L 9.5 47 L 12.5 47 L 17 43.5 L 18 40 Q 10.3 38.5 7.5 43 L 7 38.5 L 8.5 39 L 14.5 38 L 18 34.5 L 18 32 L 11.5 32 L 7.5 35 L 8 33.5 L 8.5 29 L 9.5 30 L 17.5 30 L 20 26.5 Q 18.3 23.3 11.5 25 L 9 26.5 L 11.5 21 Q 13.3 24.8 20.5 23 L 22 19 Q 19.9 17.4 14.5 18 L 13 18.5 L 15.5 14 Q 17 18.5 24.5 17 L 26 14.5 Q 23.7 11 18 12 L 17.5 10 L 16 10.5 Q 16.9 3.6 12.5 2 Q 8.8 3.3 10 9.5 L 12 13 Q 14.7 11.9 14 14.5 L 11.5 18 Q 11 11.5 6.5 9 L 4 14.5 L 7.5 20 Q 10.8 18.9 10 21.5 L 7.5 27 Q 7 20.5 2.5 18 L 0 17.5 L 0 0 Z M 21 3 Q 17 5 18 10 Q 24 11 25 8 Q 27 1 21 3 Z M 91 3 L 89 5 L 90 8 L 94 10 Q 99 12 97 6 Q 96 2 91 3 Z M 55 14 L 50 16 L 43 24 L 45 26 L 53 20 Q 60 19 62 24 L 61 32 Q 58 36 52 37 L 50 41 L 56 40 L 63 42 L 66 48 Q 67 55 64 59 L 59 61 L 56 62 L 45 57 L 42 61 L 44 65 Q 43 68 48 66 L 49 70 L 50 71 L 55 71 L 55 69 L 50 69 L 50 67 L 57 67 L 58 66 Q 63 64 62 68 Q 68 70 66 64 L 64 64 L 67 62 Q 69 57 72 59 L 72 57 L 77 57 L 77 56 Q 78 53 80 55 L 80 53 L 76 53 Q 77 56 73 55 Q 72 52 75 53 Q 73 51 74 45 L 72 41 L 66 36 Q 63 37 64 35 L 67 33 L 70 29 L 69 20 Q 66 13 55 14 Z M 96 42 L 96 46 L 97 46 Q 98 41 96 42 Z M 87 47 L 87 51 Q 83 52 84 49 L 80 51 L 82 55 L 86 55 L 86 53 L 91 53 Q 90 50 93 51 L 95 51 L 95 47 L 93 47 Q 94 50 92 49 Q 90 51 89 49 L 91 49 L 91 47 L 87 47 Z M 81 58 L 81 59 L 84 59 L 81 58 Z M 88 58 L 85 61 Q 84 63 88 62 L 88 58 Z M 78 60 Q 79 63 76 62 L 76 66 L 82 66 L 82 62 L 78 60 Z M 71 64 Q 69 70 75 68 L 75 67 Q 72 68 73 64 L 71 64 Z M 42 71 L 42 73 L 44 72 L 42 71 Z M 60 71 L 60 77 L 64 75 L 62 71 L 60 71 Z M 64 71 Q 63 74 66 73 Q 67 70 64 71 Z M 69 71 Q 70 74 67 73 L 66 76 Q 68 79 70 75 Q 72 76 71 73 L 73 73 Q 74 69 69 71 Z M 44 73 Q 43 76 46 75 Q 47 72 44 73 Z M 51 73 Q 50 76 53 75 Q 54 72 51 73 Z M 55 73 Q 54 76 57 75 Q 58 72 55 73 Z M 73 73 Q 72 77 77 75 Q 78 71 73 73 Z M 59 78 L 57 80 L 59 80 L 59 78 Z M 53 80 Q 51 84 55 83 L 59 85 L 62 84 L 62 82 L 57 82 L 57 80 L 53 80 Z " /><path fill="rgb(244,244,243)" stroke="rgb(244,244,243)" stroke-width="1" opacity="1" d="M 115.5 22 L 116 27.5 L 111 31.5 L 109.5 36 L 108 29 L 114 26.5 L 115.5 22 Z " /><path fill="rgb(244,244,243)" stroke="rgb(244,244,243)" stroke-width="1" opacity="1" d="M 0.5 25 L 1 27 L 5.5 29 L 7 28.5 L 5.5 36 L 1.5 29 Q -2 29.8 0.5 25 Z " /><path fill="rgb(244,244,243)" stroke="rgb(244,244,243)" stroke-width="1" opacity="1" d="M 0.5 37 L 5 38 L 4.5 44 L 1.5 40 Q -1.6 40.7 0.5 37 Z " /><path fill="rgb(244,244,243)" stroke="rgb(244,244,243)" stroke-width="1" opacity="1" d="M 114.5 37 Q 116.8 36.3 116 38.5 Q 114.6 41.3 110 40 Q 108.7 36.7 113.5 38 L 114.5 37 Z " /><path fill="rgb(244,244,243)" stroke="rgb(244,244,243)" stroke-width="1" opacity="1" d="M 102.5 46 L 106.5 48 L 108 47.5 L 106.5 53 L 102 47.5 L 102.5 46 Z " /><path fill="rgb(244,244,243)" stroke="rgb(244,244,243)" stroke-width="1" opacity="1" d="M 115.5 47 L 116 50 L 111 49 L 112 51.5 L 110.5 51 L 109 50.5 L 110 48 L 115.5 47 Z " /><path fill="rgb(244,244,243)" stroke="rgb(244,244,243)" stroke-width="1" opacity="1" d="M 0 48 L 5 48 L 5 49.5 L 6 52.5 L 4.5 52 L 0 49.5 L 0 48 Z " /><path fill="rgb(244,244,243)" stroke="rgb(244,244,243)" stroke-width="1" opacity="1" d="M 102 56 L 104.5 57 L 106 56.5 L 103.5 63 L 103 59.5 L 103.5 58 Q 100.9 58.7 102 56 Z " /><path fill="rgb(244,244,243)" stroke="rgb(244,244,243)" stroke-width="1" opacity="1" d="M 6.5 57 L 9 63 Q 6 60.3 0 61 Q -1.8 55.8 5.5 58 L 6.5 57 Z " /><path fill="rgb(244,244,243)" stroke="rgb(244,244,243)" stroke-width="1" opacity="1" d="M 112.5 58 Q 114.8 57.3 114 59.5 L 115 59.5 L 115.5 58 L 116 61 L 111 61 L 111 59.5 L 112.5 58 Z " /><path fill="rgb(244,244,243)" stroke="rgb(244,244,243)" stroke-width="1" opacity="1" d="M 106.5 61 L 107.5 63 Q 104.7 63.7 106.5 61 Z " /><path fill="rgb(244,244,243)" stroke="rgb(244,244,243)" stroke-width="1" opacity="1" d="M 96.5 64 L 100 65.5 L 101 68.5 Q 99.5 71.5 98 68.5 L 96.5 64 Z " /><path fill="rgb(244,244,243)" stroke="rgb(244,244,243)" stroke-width="1" opacity="1" d="M 10.5 66 L 14 72.5 L 12.5 72 L 6.5 71 L 1 73.5 L 3.5 78 Q 5.8 81 11 80 L 8 85.5 Q 9.8 90.8 18.5 89 L 24 86 L 24.5 84 L 29 87.5 Q 21.4 88.4 18 93.5 L 16.5 96 L 13.5 95 L 13 96.5 Q 14.3 99.2 15.5 97 Q 22.8 94.8 21 100 Q 15.8 98.3 17 102 L 21 102.5 L 16.5 104 L 14 102.5 L 13.5 104 L 12 103.5 L 11.5 105 L 7.5 104 L 5 105.5 L 5.5 107 L 0 103.5 Q -1.3 98.7 2 100 L 2.5 105 L 6 103.5 Q 5.3 100.9 8 102 L 8 100 L 4 98 L 4 95 L 8 93 L 8 89 L 0 89 L 0 68 Q 2.4 69.8 8.5 69 L 10.5 66 Z M 6 82 Q 5 85 8 84 Q 9 81 6 82 Z M 15 91 Q 14 94 17 93 Q 18 90 15 91 Z M 8 96 Q 6 102 13 100 L 11 98 Q 12 95 8 96 Z M 11 101 L 11 102 L 13 102 L 11 101 Z " /><path fill="rgb(244,244,243)" stroke="rgb(244,244,243)" stroke-width="1" opacity="1" d="M 93.5 72 L 94.5 76 Q 90 74 93.5 72 Z " /><path fill="rgb(244,244,243)" stroke="rgb(244,244,243)" stroke-width="1" opacity="1" d="M 19.5 74 L 23 75 L 22.5 79 L 19 75.5 L 19.5 74 Z " /><path fill="rgb(244,244,243)" stroke="rgb(244,244,243)" stroke-width="1" opacity="1" d="M 17.5 77 L 21.5 82 L 12 79.5 L 14.5 78 L 17 79.5 L 17.5 77 Z " /><path fill="rgb(244,244,243)" stroke="rgb(244,244,243)" stroke-width="1" opacity="1" d="M 85.5 77 L 84.5 79 L 85.5 77 Z " /><path fill="rgb(244,244,243)" stroke="rgb(244,244,243)" stroke-width="1" opacity="1" d="M 64.5 90 L 65.5 92 L 64.5 90 Z " /><path fill="rgb(244,244,243)" stroke="rgb(244,244,243)" stroke-width="1" opacity="1" d="M 0 91 Q 5.2 89.3 4 93 Q 1 91.8 2 95.5 L 0.5 98 L 0 91 Z " /><path fill="rgb(244,244,243)" stroke="rgb(244,244,243)" stroke-width="1" opacity="1" d="M 35 91 L 39 92 Q 40.3 95 36.5 94 L 35 94.5 L 35 91 Z " /><path fill="rgb(244,244,243)" stroke="rgb(244,244,243)" stroke-width="1" opacity="1" d="M 54.5 91 L 56.5 94 L 54.5 91 Z " /><path fill="rgb(244,244,243)" stroke="rgb(244,244,243)" stroke-width="1" opacity="1" d="M 32.5 93 L 33 95.5 Q 31.8 98.8 28 98 Q 26.8 95 30.5 96 L 32.5 93 Z " /><path fill="rgb(244,244,243)" stroke="rgb(244,244,243)" stroke-width="1" opacity="1" d="M 50.5 95 L 51.5 97 Q 48.7 97.7 50.5 95 Z " /><path fill="rgb(244,244,243)" stroke="rgb(244,244,243)" stroke-width="1" opacity="1" d="M 47.5 98 L 50 98.5 L 47.5 99 L 47.5 98 Z " /><path fill="rgb(232,216,188)" stroke="rgb(232,216,188)" stroke-width="1" opacity="1" d="M 12.5 61 L 13 63.5 L 12 63.5 L 12.5 61 Z " /><path fill="rgb(232,216,188)" stroke="rgb(232,216,188)" stroke-width="1" opacity="1" d="M 15.5 61 L 14.5 63 L 15.5 61 Z " /><path fill="rgb(232,216,188)" stroke="rgb(232,216,188)" stroke-width="1" opacity="1" d="M 5.5 65 L 8 66.5 L 6.5 67 L 5.5 65 Z " /><path fill="rgb(232,216,188)" stroke="rgb(232,216,188)" stroke-width="1" opacity="1" d="M 109.5 65 L 108.5 67 L 109.5 65 Z " /><path fill="rgb(232,216,188)" stroke="rgb(232,216,188)" stroke-width="1" opacity="1" d="M 95.5 70 L 96 72.5 L 95 72.5 L 95.5 70 Z " /><path fill="rgb(232,216,188)" stroke="rgb(232,216,188)" stroke-width="1" opacity="1" d="M 19.5 71 L 20 73 L 18 72.5 L 19.5 71 Z " /><path fill="rgb(232,216,188)" stroke="rgb(232,216,188)" stroke-width="1" opacity="1" d="M 11.5 75 L 15 75.5 L 11.5 76 L 11.5 75 Z " /><path fill="rgb(232,216,188)" stroke="rgb(232,216,188)" stroke-width="1" opacity="1" d="M 100.5 75 L 104 75.5 L 100.5 76 L 100.5 75 Z " /><path fill="rgb(232,216,188)" stroke="rgb(232,216,188)" stroke-width="1" opacity="1" d="M 26.5 77 L 27 79.5 L 26 79.5 L 26.5 77 Z " /><path fill="rgb(232,216,188)" stroke="rgb(232,216,188)" stroke-width="1" opacity="1" d="M 88.5 77 L 89 79.5 L 88 79.5 L 88.5 77 Z " /><path fill="rgb(232,216,188)" stroke="rgb(232,216,188)" stroke-width="1" opacity="1" d="M 16.5 81 L 19 81.5 L 16.5 82 L 16.5 81 Z " /><path fill="rgb(232,216,188)" stroke="rgb(232,216,188)" stroke-width="1" opacity="1" d="M 39.5 90 L 38.5 92 L 39.5 90 Z " /><path fill="rgb(232,216,188)" stroke="rgb(232,216,188)" stroke-width="1" opacity="1" d="M 75.5 90 L 76.5 92 L 75.5 90 Z " /><path fill="rgb(232,216,188)" stroke="rgb(232,216,188)" stroke-width="1" opacity="1" d="M 42.5 95 L 43 97 L 40.5 98 L 42.5 95 Z " /><path fill="rgb(232,216,188)" stroke="rgb(232,216,188)" stroke-width="1" opacity="1" d="M 42.5 99 L 40.5 102 L 42.5 99 Z " /><path fill="rgb(232,216,188)" stroke="rgb(232,216,188)" stroke-width="1" opacity="1" d="M 72.5 99 L 74.5 102 L 72.5 99 Z " /><path fill="rgb(232,216,188)" stroke="rgb(232,216,188)" stroke-width="1" opacity="1" d="M 33.5 103 L 36 103.5 L 33.5 104 L 33.5 103 Z " /><path fill="rgb(232,216,188)" stroke="rgb(232,216,188)" stroke-width="1" opacity="1" d="M 79.5 103 L 82 103.5 L 79.5 104 L 79.5 103 Z " /><path fill="rgb(228,205,165)" stroke="rgb(228,205,165)" stroke-width="1" opacity="1" d="M 0 52 Q 3.8 51.3 5 54.5 L 2.5 55 L 0 54 L 0 52 Z " /><path fill="rgb(228,205,165)" stroke="rgb(228,205,165)" stroke-width="1" opacity="1" d="M 13.5 52 L 14 53.5 L 12 54.5 L 13.5 52 Z " /><path fill="rgb(228,205,165)" stroke="rgb(228,205,165)" stroke-width="1" opacity="1" d="M 67 52 L 72 52 L 72 53.5 L 69 54.5 L 71 55.5 L 67.5 60 L 55.5 66 L 48.5 66 L 44 64 L 43 60.5 Q 44.7 56.2 46.5 59 Q 50.5 63 58.5 63 L 65 58.5 L 67 52 Z " /><path fill="rgb(228,205,165)" stroke="rgb(228,205,165)" stroke-width="1" opacity="1" d="M 104.5 52 L 106 54.5 L 104 53.5 L 104.5 52 Z " /><path fill="rgb(228,205,165)" stroke="rgb(228,205,165)" stroke-width="1" opacity="1" d="M 112.5 52 Q 117.8 50.3 116 55.5 L 112.5 57 L 112.5 56 Q 115.8 57.1 115 54.5 L 112.5 52 Z " /><path fill="rgb(228,205,165)" stroke="rgb(228,205,165)" stroke-width="1" opacity="1" d="M 0.5 55 L 3 56.5 L 0 57 L 0.5 55 Z " /><path fill="rgb(228,205,165)" stroke="rgb(228,205,165)" stroke-width="1" opacity="1" d="M 17.5 56 Q 21.3 54.8 20 58.5 L 16.5 63 L 14.5 62 L 13 62.5 L 14 58 L 17.5 56 Z " /><path fill="rgb(228,205,165)" stroke="rgb(228,205,165)" stroke-width="1" opacity="1" d="M 95 56 L 101 58.5 L 102 62.5 L 99.5 63 L 97 61.5 L 95 56 Z " /><path fill="rgb(228,205,165)" stroke="rgb(228,205,165)" stroke-width="1" opacity="1" d="M 0 62 Q 6.7 60.9 9 65.5 L 7.5 66 L 4.5 65 L 4.5 66 L 8 67.5 L 2.5 68 L 0 67 L 0 62 Z " /><path fill="rgb(228,205,165)" stroke="rgb(228,205,165)" stroke-width="1" opacity="1" d="M 23.5 62 L 24 66.5 L 23 69 L 20.5 68 L 20 70 L 18 70.5 L 18.5 72 Q 15.8 70.7 18 69.5 Q 18.3 64.8 21.5 63 L 23.5 62 Z " /><path fill="rgb(228,205,165)" stroke="rgb(228,205,165)" stroke-width="1" opacity="1" d="M 110.5 62 Q 117.8 59.4 116 65.5 Q 114 69 107.5 68 L 107.5 67 L 111 65.5 L 108.5 65 L 106.5 66 L 108.5 63 L 110.5 62 Z " /><path fill="rgb(228,205,165)" stroke="rgb(228,205,165)" stroke-width="1" opacity="1" d="M 91 63 Q 94.8 62.3 96 65.5 L 98 70.5 L 96.5 70 L 93.5 71 L 93.5 70 Q 95.8 70.8 95 68.5 L 93.5 69 Q 91.3 69.8 92 67.5 L 91 63 Z " /><path fill="rgb(228,205,165)" stroke="rgb(228,205,165)" stroke-width="1" opacity="1" d="M 28.5 69 L 29.5 71 L 28.5 69 Z " /><path fill="rgb(228,205,165)" stroke="rgb(228,205,165)" stroke-width="1" opacity="1" d="M 86.5 69 L 88 69.5 L 85.5 71 L 86.5 69 Z " /><path fill="rgb(228,205,165)" stroke="rgb(228,205,165)" stroke-width="1" opacity="1" d="M 21.5 70 L 20.5 72 L 21.5 70 Z " /><path fill="rgb(228,205,165)" stroke="rgb(228,205,165)" stroke-width="1" opacity="1" d="M 18.5 76 L 19.5 78 L 18.5 76 Z " /><path fill="rgb(228,205,165)" stroke="rgb(228,205,165)" stroke-width="1" opacity="1" d="M 96.5 76 L 95.5 78 L 96.5 76 Z " /><path fill="rgb(228,205,165)" stroke="rgb(228,205,165)" stroke-width="1" opacity="1" d="M 78.5 78 L 79 81.5 L 78 81.5 L 78.5 78 Z " /><path fill="rgb(228,205,165)" stroke="rgb(228,205,165)" stroke-width="1" opacity="1" d="M 24.5 82 L 25.5 84 L 24.5 82 Z " /><path fill="rgb(228,205,165)" stroke="rgb(228,205,165)" stroke-width="1" opacity="1" d="M 10.5 83 L 9.5 85 L 10.5 83 Z " /><path fill="rgb(228,205,165)" stroke="rgb(228,205,165)" stroke-width="1" opacity="1" d="M 32.5 85 Q 35.5 86.5 32.5 88 L 32.5 85 Z " /><path fill="rgb(228,205,165)" stroke="rgb(228,205,165)" stroke-width="1" opacity="1" d="M 82.5 85 L 82.5 88 Q 79.5 86.5 82.5 85 Z " /><path fill="rgb(228,205,165)" stroke="rgb(228,205,165)" stroke-width="1" opacity="1" d="M 105.5 85 L 104.5 87 L 105.5 85 Z " /><path fill="rgb(228,205,165)" stroke="rgb(228,205,165)" stroke-width="1" opacity="1" d="M 58.5 98 L 59.5 100 L 58.5 98 Z " /><path fill="rgb(225,200,157)" stroke="rgb(225,200,157)" stroke-width="1" opacity="1" d="M 21.5 69 L 20.5 71 L 21.5 69 Z " /><path fill="rgb(225,200,157)" stroke="rgb(225,200,157)" stroke-width="1" opacity="1" d="M 27.5 69 Q 31.7 70.8 29 72.5 L 27.5 79 L 26.5 74 L 26 79 Q 22.3 80.3 24 74.5 L 27.5 69 Z " /><path fill="rgb(225,200,157)" stroke="rgb(225,200,157)" stroke-width="1" opacity="1" d="M 86.5 70 Q 89.8 68.9 89 71.5 Q 92 73.8 91 79 Q 87.3 80.3 89 74.5 L 88 74.5 L 87.5 79 L 85 71.5 L 86.5 70 Z " /><path fill="rgb(225,200,157)" stroke="rgb(225,200,157)" stroke-width="1" opacity="1" d="M 7.5 72 L 14 74.5 L 9 75.5 L 13 77.5 L 6.5 78 L 3 75.5 Q 1.7 71.3 6.5 73 L 7.5 72 Z " /><path fill="rgb(225,200,157)" stroke="rgb(225,200,157)" stroke-width="1" opacity="1" d="M 107.5 72 L 113 74.5 Q 110.8 79.3 102.5 78 L 103.5 76 L 106 75.5 L 101 74.5 L 107.5 72 Z " /><path fill="rgb(225,200,157)" stroke="rgb(225,200,157)" stroke-width="1" opacity="1" d="M 34.5 74 L 37 79.5 L 35.5 84 L 34.5 81 L 34 84 L 31 82.5 Q 31.3 76.8 34.5 74 Z " /><path fill="rgb(225,200,157)" stroke="rgb(225,200,157)" stroke-width="1" opacity="1" d="M 80.5 74 Q 83.8 76.8 84 82.5 L 81 84.5 L 80.5 81 L 79.5 85 L 79 75.5 L 80.5 74 Z " /><path fill="rgb(225,200,157)" stroke="rgb(225,200,157)" stroke-width="1" opacity="1" d="M 20.5 78 L 23.5 82 L 20.5 78 Z " /><path fill="rgb(225,200,157)" stroke="rgb(225,200,157)" stroke-width="1" opacity="1" d="M 42.5 78 L 45 80.5 L 46 84.5 L 43.5 85 L 40 84 L 42.5 78 Z " /><path fill="rgb(225,200,157)" stroke="rgb(225,200,157)" stroke-width="1" opacity="1" d="M 72.5 78 Q 75.8 79.7 75 85.5 L 74 85.5 L 73.5 84 L 71.5 85 L 69 84.5 L 70 80.5 L 72.5 78 Z " /><path fill="rgb(225,200,157)" stroke="rgb(225,200,157)" stroke-width="1" opacity="1" d="M 94.5 78 L 90.5 83 L 94.5 78 Z " /><path fill="rgb(225,200,157)" stroke="rgb(225,200,157)" stroke-width="1" opacity="1" d="M 13.5 82 Q 20.3 80.3 22 83.5 L 17 84.5 L 19 85.5 L 15.5 86 L 15.5 84 L 11 83.5 L 13.5 82 Z " /><path fill="rgb(225,200,157)" stroke="rgb(225,200,157)" stroke-width="1" opacity="1" d="M 94.5 82 Q 101.3 80.7 104 83.5 L 99 84 Q 100.3 87 96.5 86 L 96.5 85 L 98 84.5 L 93 83.5 L 94.5 82 Z " /><path fill="rgb(225,200,157)" stroke="rgb(225,200,157)" stroke-width="1" opacity="1" d="M 27.5 84 L 28.5 86 L 27.5 84 Z " /><path fill="rgb(225,200,157)" stroke="rgb(225,200,157)" stroke-width="1" opacity="1" d="M 87.5 84 L 86.5 86 L 87.5 84 Z " /><path fill="rgb(225,200,157)" stroke="rgb(225,200,157)" stroke-width="1" opacity="1" d="M 105.5 84 L 104.5 86 L 105.5 84 Z " /><path fill="rgb(225,200,157)" stroke="rgb(225,200,157)" stroke-width="1" opacity="1" d="M 84.5 86 L 83.5 88 L 84.5 86 Z " /><path fill="rgb(225,200,157)" stroke="rgb(225,200,157)" stroke-width="1" opacity="1" d="M 101.5 86 L 102.5 88 L 101.5 86 Z " /><path fill="rgb(225,200,157)" stroke="rgb(225,200,157)" stroke-width="1" opacity="1" d="M 38.5 90 L 39.5 92 L 38.5 90 Z " /><path fill="rgb(225,200,157)" stroke="rgb(225,200,157)" stroke-width="1" opacity="1" d="M 76.5 90 L 75.5 92 L 76.5 90 Z " /><path fill="rgb(225,200,157)" stroke="rgb(225,200,157)" stroke-width="1" opacity="1" d="M 70.5 92 L 69.5 94 L 70.5 92 Z " /><path fill="rgb(225,200,157)" stroke="rgb(225,200,157)" stroke-width="1" opacity="1" d="M 33.5 97 L 31.5 100 L 33.5 97 Z " /><path fill="rgb(225,200,157)" stroke="rgb(225,200,157)" stroke-width="1" opacity="1" d="M 81.5 97 L 83.5 100 L 81.5 97 Z " /><path fill="rgb(240,232,217)" stroke="rgb(240,232,217)" stroke-width="1" opacity="1" d="M 90.5 3 L 94 3.5 L 90.5 4 L 90.5 3 Z " /><path fill="rgb(240,232,217)" stroke="rgb(240,232,217)" stroke-width="1" opacity="1" d="M 18.5 6 L 21 9.5 L 19.5 10 Q 17 9 18.5 6 Z " /><path fill="rgb(240,232,217)" stroke="rgb(240,232,217)" stroke-width="1" opacity="1" d="M 96.5 6 L 97 8.5 L 93.5 10 L 93.5 9 L 96 7.5 L 96.5 6 Z " /><path fill="rgb(240,232,217)" stroke="rgb(240,232,217)" stroke-width="1" opacity="1" d="M 15.5 7 L 16 10.5 L 15 10.5 L 15.5 7 Z " /><path fill="rgb(240,232,217)" stroke="rgb(240,232,217)" stroke-width="1" opacity="1" d="M 99.5 7 L 100 10.5 L 99 10.5 L 99.5 7 Z " /><path fill="rgb(240,232,217)" stroke="rgb(240,232,217)" stroke-width="1" opacity="1" d="M 7.5 10 L 8.5 12 L 7.5 10 Z " /><path fill="rgb(240,232,217)" stroke="rgb(240,232,217)" stroke-width="1" opacity="1" d="M 11.5 10 L 14 11.5 L 12.5 12 L 11.5 10 Z " /><path fill="rgb(240,232,217)" stroke="rgb(240,232,217)" stroke-width="1" opacity="1" d="M 101.5 10 L 104 10.5 Q 101.9 13.8 101.5 10 Z " /><path fill="rgb(240,232,217)" stroke="rgb(240,232,217)" stroke-width="1" opacity="1" d="M 18.5 12 L 22 12.5 L 18.5 13 L 18.5 12 Z " /><path fill="rgb(240,232,217)" stroke="rgb(240,232,217)" stroke-width="1" opacity="1" d="M 55.5 14 L 61 14.5 L 55.5 15 L 55.5 14 Z " /><path fill="rgb(240,232,217)" stroke="rgb(240,232,217)" stroke-width="1" opacity="1" d="M 20.5 16 L 24 16.5 L 20.5 17 L 20.5 16 Z " /><path fill="rgb(240,232,217)" stroke="rgb(240,232,217)" stroke-width="1" opacity="1" d="M 91.5 16 L 95 16.5 L 91.5 17 L 91.5 16 Z " /><path fill="rgb(240,232,217)" stroke="rgb(240,232,217)" stroke-width="1" opacity="1" d="M 66.5 17 L 67.5 19 L 66.5 17 Z " /><path fill="rgb(240,232,217)" stroke="rgb(240,232,217)" stroke-width="1" opacity="1" d="M 10.5 18 L 9.5 20 L 8 19.5 L 10.5 18 Z " /><path fill="rgb(240,232,217)" stroke="rgb(240,232,217)" stroke-width="1" opacity="1" d="M 104.5 18 L 105.5 20 L 104.5 18 Z " /><path fill="rgb(240,232,217)" stroke="rgb(240,232,217)" stroke-width="1" opacity="1" d="M 53.5 19 L 57 19.5 L 53.5 20 L 53.5 19 Z " /><path fill="rgb(240,232,217)" stroke="rgb(240,232,217)" stroke-width="1" opacity="1" d="M 45.5 21 L 44.5 23 L 45.5 21 Z " /><path fill="rgb(240,232,217)" stroke="rgb(240,232,217)" stroke-width="1" opacity="1" d="M 17.5 22 L 20 22.5 L 17.5 23 L 17.5 22 Z " /><path fill="rgb(240,232,217)" stroke="rgb(240,232,217)" stroke-width="1" opacity="1" d="M 106.5 26 L 107.5 28 L 109.5 27 L 109.5 28 Q 106.5 27.1 108 31.5 L 109 32.5 L 110 46 L 114 47.5 L 111.5 48 Q 109.8 44.9 108 46.5 L 107 44.5 L 109 41.5 L 107.5 37 L 106 37.5 Q 108.8 36.8 108 32.5 L 106.5 28 L 105 28.5 L 106.5 26 Z " /><path fill="rgb(240,232,217)" stroke="rgb(240,232,217)" stroke-width="1" opacity="1" d="M 7.5 29 L 8 31.5 L 6 42.5 Q 9.5 44 7 45.5 L 6.5 47 Q 5 44.5 3.5 48 L 1 47.5 L 5 46 L 6 32.5 L 7.5 29 Z " /><path fill="rgb(240,232,217)" stroke="rgb(240,232,217)" stroke-width="1" opacity="1" d="M 61.5 31 L 58.5 35 L 61.5 31 Z " /><path fill="rgb(240,232,217)" stroke="rgb(240,232,217)" stroke-width="1" opacity="1" d="M 13.5 32 L 16 32.5 L 13.5 33 L 13.5 32 Z " /><path fill="rgb(240,232,217)" stroke="rgb(240,232,217)" stroke-width="1" opacity="1" d="M 99.5 32 L 102 32.5 L 99.5 33 L 99.5 32 Z " /><path fill="rgb(240,232,217)" stroke="rgb(240,232,217)" stroke-width="1" opacity="1" d="M 17.5 33 L 18 34.5 L 15 36.5 L 17.5 33 Z " /><path fill="rgb(240,232,217)" stroke="rgb(240,232,217)" stroke-width="1" opacity="1" d="M 97.5 33 L 100 36.5 L 97 34.5 L 97.5 33 Z " /><path fill="rgb(240,232,217)" stroke="rgb(240,232,217)" stroke-width="1" opacity="1" d="M 3.5 36 L 4 38 L 2 37.5 L 3.5 36 Z " /><path fill="rgb(240,232,217)" stroke="rgb(240,232,217)" stroke-width="1" opacity="1" d="M 111.5 36 L 112.5 38 Q 109.7 38.7 111.5 36 Z " /><path fill="rgb(240,232,217)" stroke="rgb(240,232,217)" stroke-width="1" opacity="1" d="M 73.5 46 L 74 50.5 L 73 50.5 L 73.5 46 Z " /><path fill="rgb(240,232,217)" stroke="rgb(240,232,217)" stroke-width="1" opacity="1" d="M 11.5 49 L 10.5 51 L 11.5 49 Z " /><path fill="rgb(240,232,217)" stroke="rgb(240,232,217)" stroke-width="1" opacity="1" d="M 66.5 49 L 67 51.5 L 66 51.5 L 66.5 49 Z " /><path fill="rgb(240,232,217)" stroke="rgb(240,232,217)" stroke-width="1" opacity="1" d="M 103.5 49 L 104.5 51 L 103.5 49 Z " /><path fill="rgb(240,232,217)" stroke="rgb(240,232,217)" stroke-width="1" opacity="1" d="M 6 52 L 8 52.5 L 6 53.5 L 6 52 Z " /><path fill="rgb(240,232,217)" stroke="rgb(240,232,217)" stroke-width="1" opacity="1" d="M 107.5 52 Q 109.8 51.3 109 53.5 L 107.5 52 Z " /><path fill="rgb(240,232,217)" stroke="rgb(240,232,217)" stroke-width="1" opacity="1" d="M 9.5 55 L 7.5 58 L 9.5 55 Z " /><path fill="rgb(240,232,217)" stroke="rgb(240,232,217)" stroke-width="1" opacity="1" d="M 105.5 55 L 107.5 58 L 105.5 55 Z " /><path fill="rgb(240,232,217)" stroke="rgb(240,232,217)" stroke-width="1" opacity="1" d="M 100.5 57 L 101.5 59 L 100.5 57 Z " /><path fill="rgb(240,232,217)" stroke="rgb(240,232,217)" stroke-width="1" opacity="1" d="M 69.5 58 L 67.5 61 L 69.5 58 Z " /><path fill="rgb(240,232,217)" stroke="rgb(240,232,217)" stroke-width="1" opacity="1" d="M 9.5 59 L 8.5 61 L 9.5 59 Z " /><path fill="rgb(240,232,217)" stroke="rgb(240,232,217)" stroke-width="1" opacity="1" d="M 105.5 59 L 106.5 61 L 105.5 59 Z " /><path fill="rgb(240,232,217)" stroke="rgb(240,232,217)" stroke-width="1" opacity="1" d="M 18.5 61 L 16.5 64 L 18.5 61 Z " /><path fill="rgb(240,232,217)" stroke="rgb(240,232,217)" stroke-width="1" opacity="1" d="M 96.5 61 L 98.5 64 L 96.5 61 Z " /><path fill="rgb(240,232,217)" stroke="rgb(240,232,217)" stroke-width="1" opacity="1" d="M 11.5 64 L 14 64.5 L 11.5 65 L 11.5 64 Z " /><path fill="rgb(240,232,217)" stroke="rgb(240,232,217)" stroke-width="1" opacity="1" d="M 101.5 64 L 104 64.5 L 101.5 65 L 101.5 64 Z " /><path fill="rgb(240,232,217)" stroke="rgb(240,232,217)" stroke-width="1" opacity="1" d="M 19.5 76 Q 21.8 80.3 24 78.5 L 23.5 80 L 25 80.5 L 23 81.5 L 23.5 83 Q 21.3 83.8 22 81.5 Q 24.8 79.7 20.5 78 Q 19.2 80.3 18 77.5 L 19.5 76 Z " /><path fill="rgb(240,232,217)" stroke="rgb(240,232,217)" stroke-width="1" opacity="1" d="M 95.5 76 Q 98.5 77.5 95.5 79 L 94.5 78 L 91 80.5 L 91.5 78 L 92.5 79 L 95.5 76 Z " /><path fill="rgb(240,232,217)" stroke="rgb(240,232,217)" stroke-width="1" opacity="1" d="M 27.5 88 L 30 88.5 L 27.5 89 L 27.5 88 Z " /><path fill="rgb(240,232,217)" stroke="rgb(240,232,217)" stroke-width="1" opacity="1" d="M 85.5 88 L 88 88.5 L 85.5 89 L 85.5 88 Z " /><path fill="rgb(240,232,217)" stroke="rgb(240,232,217)" stroke-width="1" opacity="1" d="M 33.5 89 L 32.5 91 L 33.5 89 Z " /><path fill="rgb(240,232,217)" stroke="rgb(240,232,217)" stroke-width="1" opacity="1" d="M 41.5 89 L 40.5 91 L 41.5 89 Z " /><path fill="rgb(240,232,217)" stroke="rgb(240,232,217)" stroke-width="1" opacity="1" d="M 73.5 89 L 74.5 91 L 73.5 90 L 71 91.5 L 73.5 89 Z " /><path fill="rgb(240,232,217)" stroke="rgb(240,232,217)" stroke-width="1" opacity="1" d="M 81.5 89 L 82.5 91 L 81.5 89 Z " /><path fill="rgb(221,194,150)" stroke="rgb(221,194,150)" stroke-width="1" opacity="1" d="M 10 84 L 16 84.5 L 15.5 86 L 21.5 85 L 20.5 87 L 13.5 88 L 10 85.5 L 10 84 Z " /><path fill="rgb(221,194,150)" stroke="rgb(221,194,150)" stroke-width="1" opacity="1" d="M 32.5 84 Q 34.8 83.3 34 85.5 L 32.5 84 Z " /><path fill="rgb(221,194,150)" stroke="rgb(221,194,150)" stroke-width="1" opacity="1" d="M 40.5 84 L 43 85.5 L 44 90 Q 41.3 91.1 42 88.5 L 40.5 84 Z " /><path fill="rgb(221,194,150)" stroke="rgb(221,194,150)" stroke-width="1" opacity="1" d="M 44.5 84 L 46 87.5 L 44 86.5 L 44.5 84 Z " /><path fill="rgb(221,194,150)" stroke="rgb(221,194,150)" stroke-width="1" opacity="1" d="M 70.5 84 L 71 85.5 L 69.5 88 L 69 85.5 L 70.5 84 Z " /><path fill="rgb(221,194,150)" stroke="rgb(221,194,150)" stroke-width="1" opacity="1" d="M 73.5 84 L 74 86.5 L 73 90 Q 70.3 91.1 71 88.5 L 73.5 84 Z " /><path fill="rgb(221,194,150)" stroke="rgb(221,194,150)" stroke-width="1" opacity="1" d="M 82.5 84 L 81.5 86 L 82.5 84 Z " /><path fill="rgb(221,194,150)" stroke="rgb(221,194,150)" stroke-width="1" opacity="1" d="M 99 84 L 105 84.5 L 104 87 L 97.5 88 L 94 86.5 Q 95.3 83.8 96.5 86 Q 100.3 87 99 84 Z " /><path fill="rgb(221,194,150)" stroke="rgb(221,194,150)" stroke-width="1" opacity="1" d="M 26.5 89 Q 32.4 87.3 31 91 L 26 92.5 L 28.5 93 L 31.5 92 L 29.5 95 L 21.5 96 L 19 95 L 21.5 91 L 26.5 89 Z " /><path fill="rgb(221,194,150)" stroke="rgb(221,194,150)" stroke-width="1" opacity="1" d="M 84 89 Q 92.3 88.5 96 93.5 Q 96.8 95.8 94.5 95 Q 93 97.5 87.5 96 L 83 92.5 L 85.5 92 L 88.5 93 L 88.5 92 L 84 91 L 84 89 Z " /><path fill="rgb(221,194,150)" stroke="rgb(221,194,150)" stroke-width="1" opacity="1" d="M 42.5 92 L 45 92.5 L 42.5 93 L 42.5 92 Z " /><path fill="rgb(221,194,150)" stroke="rgb(221,194,150)" stroke-width="1" opacity="1" d="M 46.5 93 L 49 93.5 L 46.5 94 L 46.5 93 Z " /><path fill="rgb(221,194,150)" stroke="rgb(221,194,150)" stroke-width="1" opacity="1" d="M 66.5 93 L 69 93.5 L 66.5 94 L 66.5 93 Z " /><path fill="rgb(221,194,150)" stroke="rgb(221,194,150)" stroke-width="1" opacity="1" d="M 40.5 94 L 43 94.5 L 38 98.5 L 39.5 99 L 43.5 96 L 43 97.5 L 39.5 102 L 31 103 L 31 100.5 L 35.5 96 L 40.5 94 Z " /><path fill="rgb(221,194,150)" stroke="rgb(221,194,150)" stroke-width="1" opacity="1" d="M 72.5 94 Q 80.8 94.8 84 100.5 L 84 103 L 77.5 103 L 72 98.5 L 71 96.5 L 73.5 98 L 76.5 99 L 75.5 97 L 72.5 94 Z " /><path fill="rgb(221,194,150)" stroke="rgb(221,194,150)" stroke-width="1" opacity="1" d="M 59.5 95 L 61 95.5 L 59 96 L 61 99.5 L 58.5 98 L 54.5 100 L 56 97.5 Q 55.2 94.9 58.5 96 L 59.5 95 Z " /><path fill="rgb(244,244,244)" stroke="rgb(244,244,244)" stroke-width="1" opacity="1" d="M 107.5 38 L 108 42.5 L 107 42.5 L 107.5 38 Z " /><path fill="rgb(244,244,244)" stroke="rgb(244,244,244)" stroke-width="1" opacity="1" d="M 110 40 L 113 40.5 L 110 42 L 110 40 Z " /><path fill="rgb(244,244,244)" stroke="rgb(244,244,244)" stroke-width="1" opacity="1" d="M 92.5 42 L 94.5 43 L 97 42 L 96.5 46 L 95.5 43 L 93.5 44 L 91 43.5 L 92.5 42 Z " /><path fill="rgb(244,244,244)" stroke="rgb(244,244,244)" stroke-width="1" opacity="1" d="M 100.5 45 L 102 47.5 L 101 47.5 L 100.5 45 Z " /><path fill="rgb(244,244,244)" stroke="rgb(244,244,244)" stroke-width="1" opacity="1" d="M 87 47 L 91 47 Q 90 50 93 49 Q 92 46 95 47 L 94.5 51 L 92.5 51 Q 89.9 50.3 91 53 L 86 53 L 86 55 L 82 55 Q 83 52 80 53 L 79.5 55 Q 78.3 52.7 77 55.5 L 77 57 L 72 57 L 72 58.5 L 71 58.5 L 72 55 L 75.5 55 Q 74.7 51.8 80 53 L 80 51 L 84 49 Q 82.9 52.3 87 51 L 87 47 Z " /><path fill="rgb(244,244,244)" stroke="rgb(244,244,244)" stroke-width="1" opacity="1" d="M 111 49 Q 114 48 113 51 L 109.5 53 L 109 51 Q 112 52 111 49 Z " /><path fill="rgb(244,244,244)" stroke="rgb(244,244,244)" stroke-width="1" opacity="1" d="M 74.5 51 L 75 53 L 73 52.5 L 74.5 51 Z " /><path fill="rgb(244,244,244)" stroke="rgb(244,244,244)" stroke-width="1" opacity="1" d="M 99.5 55 L 102 55 Q 100.5 58.8 103.5 58 L 103.5 59 L 99.5 55 Z " /><path fill="rgb(244,244,244)" stroke="rgb(244,244,244)" stroke-width="1" opacity="1" d="M 80.5 58 L 84 58.5 L 80.5 59 L 80.5 58 Z " /><path fill="rgb(244,244,244)" stroke="rgb(244,244,244)" stroke-width="1" opacity="1" d="M 87.5 58 L 88 62 Q 84.2 63.5 85 60.5 L 87.5 58 Z " /><path fill="rgb(244,244,244)" stroke="rgb(244,244,244)" stroke-width="1" opacity="1" d="M 108.5 58 L 112 58.5 L 109.5 62 Q 105.8 63.3 107 59.5 L 108.5 58 Z " /><path fill="rgb(244,244,244)" stroke="rgb(244,244,244)" stroke-width="1" opacity="1" d="M 78 60 L 82 62 L 82 66 L 76 66 L 76 62 Q 79 63 78 60 Z " /><path fill="rgb(244,244,244)" stroke="rgb(244,244,244)" stroke-width="1" opacity="1" d="M 94.5 62 L 98 63.5 L 95.5 64 L 94.5 62 Z " /><path fill="rgb(244,244,244)" stroke="rgb(244,244,244)" stroke-width="1" opacity="1" d="M 62.5 64 Q 68.2 62.4 66 68 L 62 68 Q 63.1 65.3 60.5 66 L 60.5 65 L 62.5 64 Z " /><path fill="rgb(244,244,244)" stroke="rgb(244,244,244)" stroke-width="1" opacity="1" d="M 71 64 L 73 64 Q 71.5 67.8 74.5 67 L 74.5 68 Q 68.8 69.6 71 64 Z " /><path fill="rgb(244,244,244)" stroke="rgb(244,244,244)" stroke-width="1" opacity="1" d="M 100.5 65 L 103 65.5 L 100 67.5 L 100.5 65 Z " /><path fill="rgb(244,244,244)" stroke="rgb(244,244,244)" stroke-width="1" opacity="1" d="M 104.5 66 L 105 67.5 L 104.5 69 L 106.5 68 Q 107.7 70.3 112.5 69 L 115.5 67 L 116 108 L 30.5 108 L 29.5 107 L 28.5 108 L 17.5 108 L 13.5 108 L 11.5 107 L 10.5 108 L 0 108 L 0.5 104 L 2 104.5 L 2 100 Q -0.7 101.1 0 98.5 L 2 93 Q 5 94 4 91 Q -1.2 92.7 0 89 L 8 89 L 8 93 L 4 95 L 4 98 L 8 100 Q 6.1 94.4 11 96 L 13 99.5 L 8 100 L 8 102 Q 5.3 100.9 6 103.5 L 5.5 105 L 10.5 104 L 12 104.5 L 12.5 103 L 14 103.5 L 14.5 102 L 17.5 104 L 21 102.5 L 17 102 L 17 100 L 21 100 Q 19.3 95.9 23.5 97 L 25.5 97 L 30.5 98 L 33 95.5 Q 32 91 34.5 90 L 35 96 L 30 99.5 Q 29.3 103.3 31.5 104 L 38.5 105 L 38.5 103 L 44 98.5 L 45 95.5 L 44.5 94 L 48.5 96 L 50 95.5 Q 49.3 97.8 51.5 97 L 53.5 96 Q 56.8 97.8 53 99.5 L 54.5 102 L 57.5 99 L 60.5 102 L 62 100.5 L 60 97.5 L 70.5 94 L 70 95.5 L 75.5 103 L 83.5 104 Q 85.8 103.3 85 99.5 Q 81.9 94.9 76 94 Q 74.9 91.3 77.5 92 L 80.5 90 L 85.5 96 L 94.5 97 L 97 93.5 Q 93.6 88.4 86 87.5 L 90.5 84 Q 92.6 90.4 102.5 89 L 106 86.5 L 107 84.5 L 102.5 81 L 94 80.5 L 98.5 76 L 100 77.5 L 100.5 79 L 102 78.5 L 102.5 80 Q 104 77.5 109.5 79 L 113 76.5 L 114 73 L 106.5 70 L 106 72 L 101.5 73 L 101 71.5 L 104.5 66 Z M 48 98 L 48 99 L 50 99 L 48 98 Z M 4 104 L 2 106 L 6 107 L 4 104 Z " /><path fill="rgb(244,244,244)" stroke="rgb(244,244,244)" stroke-width="1" opacity="1" d="M 47.5 67 L 50 67.5 L 50 69 L 55 69 L 55 71 L 49.5 71 L 49 69.5 L 47.5 67 Z " /><path fill="rgb(244,244,244)" stroke="rgb(244,244,244)" stroke-width="1" opacity="1" d="M 82.5 67 L 85 68.5 L 84.5 70 L 84 68 L 82.5 67 Z " /><path fill="rgb(244,244,244)" stroke="rgb(244,244,244)" stroke-width="1" opacity="1" d="M 90.5 67 L 91 68.5 L 89 69.5 L 90.5 67 Z " /><path fill="rgb(244,244,244)" stroke="rgb(244,244,244)" stroke-width="1" opacity="1" d="M 35 69 L 39 70 Q 40.3 74.6 37.5 76 L 36 73.5 L 38 73 L 38 71 Q 33.9 72.3 35 69 Z " /><path fill="rgb(244,244,244)" stroke="rgb(244,244,244)" stroke-width="1" opacity="1" d="M 80 69 L 84 71 L 84 75.5 L 87 81 L 89 81.5 L 84.5 85 L 84 83 L 86 82.5 L 84 79.5 Q 86.5 78 83 76.5 L 82 73 Q 76.8 74.7 78 71 Q 81 72 80 69 Z " /><path fill="rgb(244,244,244)" stroke="rgb(244,244,244)" stroke-width="1" opacity="1" d="M 42 71 L 44 71.5 L 42 72.5 L 42 71 Z " /><path fill="rgb(244,244,244)" stroke="rgb(244,244,244)" stroke-width="1" opacity="1" d="M 60 71 L 64 73 Q 63 70 66 71 L 66 73 L 64 73 L 64 75 L 60 77 L 60 71 Z " /><path fill="rgb(244,244,244)" stroke="rgb(244,244,244)" stroke-width="1" opacity="1" d="M 69 71 L 73 71 L 73 73 Q 78.2 71.3 77 75 L 73 75 Q 74 78 71 77 Q 72.1 74.3 69.5 75 L 67.5 79 L 66 79 L 66 83.5 L 64 84 L 64 86.5 L 66.5 87 Q 68.8 86.3 68 88.5 L 70 91.5 L 66.5 92 L 65 91.5 Q 65.7 94.1 63 93 L 62.5 91 L 60.5 94 L 56.5 95 L 51 92.5 L 53 92 L 52 89.5 L 55.5 88 L 60 88.5 Q 59.3 91.1 62 90 L 63 87.5 L 61.5 84 L 58.5 85 L 54.5 83 Q 51.5 83.7 53 80 Q 57.3 81 58.5 78 L 59 80 Q 56 79 57 82 L 62 82 L 62 83.5 L 64 82.5 L 64 80 Q 61 81 62 78 L 68 77.5 Q 64.5 76 67 74.5 Q 66.3 71.9 69 73 L 69 71 Z M 71 73 Q 70 76 73 75 Q 74 72 71 73 Z " /><path fill="rgb(244,244,244)" stroke="rgb(244,244,244)" stroke-width="1" opacity="1" d="M 91 71 L 93 71 Q 91.9 73.7 94.5 73 L 96 75.5 L 92 78.5 L 93 73.5 L 91 73 L 91 71 Z " /><path fill="rgb(244,244,244)" stroke="rgb(244,244,244)" stroke-width="1" opacity="1" d="M 20 73 L 23 74.5 L 20 75 L 20 73 Z " /><path fill="rgb(244,244,244)" stroke="rgb(244,244,244)" stroke-width="1" opacity="1" d="M 44 73 Q 47 72 46 75 Q 43 76 44 73 Z " /><path fill="rgb(244,244,244)" stroke="rgb(244,244,244)" stroke-width="1" opacity="1" d="M 51 73 Q 54 72 53 75 Q 50 76 51 73 Z " /><path fill="rgb(244,244,244)" stroke="rgb(244,244,244)" stroke-width="1" opacity="1" d="M 55 73 Q 58 72 57 75 Q 54 76 55 73 Z " /><path fill="rgb(244,244,244)" stroke="rgb(244,244,244)" stroke-width="1" opacity="1" d="M 16.5 76 L 17 79.5 L 15 78.5 L 16.5 76 Z " /><path fill="rgb(244,244,244)" stroke="rgb(244,244,244)" stroke-width="1" opacity="1" d="M 40.5 76 L 44 76.5 L 40.5 77 L 40.5 76 Z " /><path fill="rgb(244,244,244)" stroke="rgb(244,244,244)" stroke-width="1" opacity="1" d="M 6.5 79 Q 12.3 78.3 15 80.5 L 11.5 82 L 11 80 L 6.5 80 L 6.5 79 Z " /><path fill="rgb(244,244,244)" stroke="rgb(244,244,244)" stroke-width="1" opacity="1" d="M 6 82 Q 9 81 8 84 Q 5 85 6 82 Z " /><path fill="rgb(244,244,244)" stroke="rgb(244,244,244)" stroke-width="1" opacity="1" d="M 47.5 82 Q 49.8 81.3 49 83.5 Q 47.5 86.5 46 83.5 L 47.5 82 Z " /><path fill="rgb(244,244,244)" stroke="rgb(244,244,244)" stroke-width="1" opacity="1" d="M 76.5 84 L 77.5 87 Q 78.8 84.7 80 87.5 L 73.5 91 L 75 88.5 L 76.5 84 Z " /><path fill="rgb(244,244,244)" stroke="rgb(244,244,244)" stroke-width="1" opacity="1" d="M 47.5 86 L 48 88.5 L 47 88.5 L 47.5 86 Z " /><path fill="rgb(244,244,244)" stroke="rgb(244,244,244)" stroke-width="1" opacity="1" d="M 15 91 Q 18 90 17 93 Q 14 94 15 91 Z " /><path fill="rgb(244,244,244)" stroke="rgb(244,244,244)" stroke-width="1" opacity="1" d="M 31.5 94 L 30.5 96 L 31.5 94 Z " /><path fill="rgb(244,244,244)" stroke="rgb(244,244,244)" stroke-width="1" opacity="1" d="M 13.5 95 L 16.5 96 L 18.5 95 L 19.5 97 L 14.5 98 L 13.5 95 Z " /><path fill="rgb(244,244,244)" stroke="rgb(244,244,244)" stroke-width="1" opacity="1" d="M 10.5 101 L 13 101.5 L 9.5 103 L 10.5 101 Z " /></svg>