<svg width="24" height="30" viewBox="0 0 24 30" fill="none" xmlns="http://www.w3.org/2000/svg">
<path fill-rule="evenodd" clip-rule="evenodd" d="M18.2556 2.20917C16.9588 1.46039 15.8774 0.83601 14.9522 0.45578C13.9758 0.0544462 13.0029 -0.149895 11.966 0.127961C10.929 0.405817 10.1887 1.0692 9.54366 1.905C8.93259 2.69686 8.30828 3.77828 7.55959 5.07515L1.10022 16.2629C0.665953 17.0137 0.311212 17.6269 0.13191 18.2855C0.106296 18.3796 0.0842615 18.4746 0.0660872 18.571C-0.079304 19.3427 0.0393392 20.1174 0.189388 21.0972L0.22982 21.362C0.506795 23.181 0.735096 24.6802 1.07943 25.8172C1.43955 27.0062 1.99314 28.0354 3.08193 28.664C4.17071 29.2926 5.33882 29.2575 6.54863 28.9748C7.70541 28.7045 9.11796 28.1526 10.8317 27.483L11.0813 27.3856C12.0048 27.0257 12.7351 26.7411 13.3306 26.2293C13.9262 25.7176 14.3176 25.0385 14.8125 24.1797L21.2717 12.9918C22.0204 11.695 22.6448 10.6136 23.025 9.68848C23.4264 8.712 23.6307 7.73917 23.3529 6.7022C23.075 5.66523 22.4116 4.9249 21.5758 4.27991C20.784 3.66884 19.7025 3.04453 18.4057 2.29584L18.2556 2.20917ZM18.4383 12.8994L9.05632 7.48274L3.35059 17.3654C2.72899 18.442 2.57945 18.7336 2.52286 19.0339C2.46627 19.3342 2.49946 19.6602 2.68664 20.8893C2.98205 22.8289 3.18611 24.1482 3.4721 25.0925C3.74837 26.0047 4.03327 26.3265 4.33192 26.499C4.63058 26.6714 5.05174 26.7572 5.97986 26.5404C6.94065 26.3159 8.18526 25.8329 10.0127 25.119C11.1707 24.6666 11.4696 24.5323 11.7014 24.3331C11.9332 24.1339 12.1109 23.8587 12.7325 22.782L18.4383 12.8994ZM19.6856 10.7328C20.1541 9.90739 20.4919 9.27552 20.7127 8.73812C21.0077 8.02036 21.0176 7.64594 20.9381 7.34925C20.8586 7.05256 20.6628 6.73321 20.0485 6.25911C19.4054 5.76284 18.4721 5.22091 17.0806 4.41757C15.6892 3.61423 14.7532 3.07689 14.0019 2.7681C13.2841 2.4731 12.9097 2.46328 12.613 2.54278C12.3163 2.62227 11.997 2.81798 11.5229 3.43235C11.1679 3.89232 10.7896 4.5008 10.3089 5.31918L19.6856 10.7328Z" fill="url(#paint0_linear_6151_135)"/>
<defs>
<linearGradient id="paint0_linear_6151_135" x1="1.57292" y1="21.8769" x2="23.87" y2="11.514" gradientUnits="userSpaceOnUse">
<stop stop-color="#B33DEB"/>
<stop offset="1" stop-color="#DE8FFF"/>
</linearGradient>
</defs>
</svg>
