<svg width="28" height="28" viewBox="0 0 28 28" fill="none" xmlns="http://www.w3.org/2000/svg">
<path fill-rule="evenodd" clip-rule="evenodd" d="M14 24.7915C12.2935 24.7915 10.7672 24.0202 9.75068 22.8072C9.1086 23.9891 7.85634 24.7915 6.41667 24.7915C4.32259 24.7915 2.625 23.0939 2.625 20.9998V11.6665C2.625 9.57242 4.32259 7.87484 6.41667 7.87484C7.86604 7.87484 9.12548 8.68806 9.76359 9.8831C9.86782 9.71165 9.98014 9.52918 10.1012 9.33256L12.7594 5.01286C13.2265 4.25385 14.0539 3.7915 14.9451 3.7915C16.5181 3.7915 17.7209 5.19353 17.4817 6.74815L17.1982 8.59122C16.973 10.0549 18.1054 11.3748 19.5863 11.3748H20.391C24.0013 11.3748 26.3494 15.1742 24.7349 18.4034L23.3949 21.0832C22.2586 23.3559 19.9357 24.7915 17.3948 24.7915H14ZM14.2499 5.93003C14.3984 5.68858 14.6616 5.5415 14.9451 5.5415C15.4455 5.5415 15.8281 5.9875 15.7521 6.48205L15.4685 8.32512C15.0802 10.8488 17.0329 13.1248 19.5863 13.1248H20.391C22.7004 13.1248 24.2024 15.5552 23.1696 17.6207L21.8297 20.3006C20.9898 21.9804 19.2729 23.0415 17.3948 23.0415H14C11.9059 23.0415 10.2083 21.3439 10.2083 19.2498V15.2436C10.2083 13.8721 10.2134 13.3204 10.3325 12.798C10.3704 12.632 10.4169 12.4679 10.4716 12.3067C10.6439 11.7993 10.9288 11.3268 11.6476 10.1588L14.2499 5.93003ZM6.41667 9.62484C7.54425 9.62484 8.45833 10.5389 8.45833 11.6665V20.9998C8.45833 22.1274 7.54425 23.0415 6.41667 23.0415C5.28909 23.0415 4.375 22.1274 4.375 20.9998V11.6665C4.375 10.5389 5.28909 9.62484 6.41667 9.62484Z" fill="#78FA7C"/>
</svg>
