<svg width="28" height="28" viewBox="0 0 28 28" fill="none" xmlns="http://www.w3.org/2000/svg">
<path fill-rule="evenodd" clip-rule="evenodd" d="M6.41667 3.7915C4.32259 3.7915 2.625 5.48909 2.625 7.58317V16.9165C2.625 19.0106 4.32259 20.7082 6.41667 20.7082C7.86604 20.7082 9.12548 19.8949 9.76359 18.6999C9.86784 18.8714 9.98019 19.0539 10.1012 19.2506L12.7594 23.5701C13.2265 24.3292 14.0539 24.7915 14.9451 24.7915C16.5181 24.7915 17.7209 23.3895 17.4817 21.8349L17.1982 19.9918C16.973 18.5281 18.1054 17.2082 19.5863 17.2082H20.391C24.0013 17.2082 26.3494 13.4088 24.7349 10.1796L23.3949 7.49978C22.2586 5.22711 19.9357 3.7915 17.3948 3.7915H14C12.2935 3.7915 10.7672 4.56281 9.75068 5.77581C9.1086 4.59387 7.85633 3.7915 6.41667 3.7915ZM8.45833 7.58317C8.45833 6.45559 7.54425 5.5415 6.41667 5.5415C5.28909 5.5415 4.375 6.45559 4.375 7.58317V16.9165C4.375 18.0441 5.28909 18.9582 6.41667 18.9582C7.54425 18.9582 8.45833 18.0441 8.45833 16.9165V7.58317ZM10.3325 15.785C10.2134 15.2626 10.2083 14.7109 10.2083 13.3394V9.33317C10.2083 7.23909 11.9059 5.5415 14 5.5415H17.3948C19.2729 5.5415 20.9898 6.6026 21.8297 8.28241L23.1696 10.9623C24.2024 13.0278 22.7004 15.4582 20.391 15.4582H19.5863C17.0329 15.4582 15.0802 17.7342 15.4685 20.2579L15.7521 22.101C15.8281 22.5955 15.4455 23.0415 14.9451 23.0415C14.6616 23.0415 14.3984 22.8944 14.2499 22.653L11.6476 18.4243C10.9288 17.2562 10.6439 16.7837 10.4716 16.2764C10.4169 16.1151 10.3704 15.9511 10.3325 15.785Z" fill="#FF6F6F"/>
</svg>
