<svg width="28" height="28" viewBox="0 0 28 28" fill="none" xmlns="http://www.w3.org/2000/svg">
<path fill-rule="evenodd" clip-rule="evenodd" d="M18.8588 4.98835C17.3296 0.281877 10.6711 0.281877 9.14192 4.98835C8.69231 6.37211 7.40281 7.30899 5.94784 7.30899C0.999158 7.30899 -1.05841 13.6415 2.94516 16.5503C4.12226 17.4055 4.61481 18.9214 4.16519 20.3051C2.63597 25.0116 8.02273 28.9253 12.0263 26.0166C13.2034 25.1614 14.7973 25.1614 15.9744 26.0166C19.978 28.9253 25.3647 25.0116 23.8355 20.3051C23.3859 18.9214 23.8784 17.4055 25.0555 16.5503C29.0591 13.6415 27.0016 7.30899 22.0529 7.30899C20.5979 7.30899 19.3084 6.37211 18.8588 4.98835ZM10.8063 5.52913C11.8116 2.43495 16.1891 2.43495 17.1944 5.52913C17.8783 7.63393 19.8398 9.05899 22.0529 9.05899C25.3063 9.05899 26.659 13.2222 24.0269 15.1345C22.2365 16.4353 21.4873 18.7411 22.1712 20.8459C23.1765 23.9401 19.6351 26.5131 17.003 24.6008C15.2126 23.3 12.7881 23.3 10.9977 24.6008C8.36561 26.5131 4.82418 23.9401 5.82954 20.8459C6.51343 18.7411 5.76424 16.4353 3.97379 15.1345C1.34172 13.2222 2.69442 9.05899 5.94784 9.05899C8.16096 9.05899 10.1224 7.63393 10.8063 5.52913Z" fill="#80BEEA"/>
</svg>
