<svg width="28" height="28" viewBox="0 0 28 28" fill="none" xmlns="http://www.w3.org/2000/svg">
<path fill-rule="evenodd" clip-rule="evenodd" d="M13.9998 0.291504C10.5833 0.291504 7.76337 2.84552 7.34502 6.14844C5.75194 6.21442 4.54382 6.40302 3.53425 6.96038C2.24477 7.67227 1.22657 8.7881 0.634997 10.1343C0.616779 10.1758 0.598966 10.2174 0.581563 10.2593C0.225581 11.1161 0.130706 12.0521 0.159663 13.1774C0.188166 14.285 0.341022 15.6606 0.536438 17.4193L0.54507 17.497C0.70474 18.9341 0.830184 20.0631 1.00277 20.9691C1.17885 21.8934 1.41504 22.6522 1.83068 23.3321C2.51675 24.4544 3.51762 25.3502 4.70881 25.9081C5.43045 26.2461 6.21069 26.3971 7.14878 26.47C8.06824 26.5415 9.20419 26.5415 10.6501 26.5415H17.3496C18.7954 26.5415 19.9314 26.5415 20.8509 26.47C21.789 26.3971 22.5692 26.2461 23.2909 25.9081C24.4821 25.3502 25.4829 24.4544 26.169 23.3321C26.5846 22.6522 26.8208 21.8934 26.9969 20.9691C27.1695 20.0632 27.2949 18.9342 27.4546 17.4972L27.4632 17.4194C27.6586 15.6608 27.8115 14.285 27.84 13.1774C27.869 12.0521 27.7741 11.1161 27.4181 10.2593C27.3722 10.1487 27.3233 10.0395 27.2717 9.93196C26.6695 8.67633 25.6897 7.63629 24.4654 6.96038C23.4519 6.40081 22.2477 6.22359 20.6563 6.16113C20.2435 2.85206 17.4207 0.291504 13.9998 0.291504ZM9.74555 6.12159C9.53093 6.12046 9.32218 6.11936 9.11953 6.11891C9.5352 3.80074 11.5621 2.0415 13.9998 2.0415C16.4407 2.0415 18.4696 3.80515 18.8817 6.12762C18.3988 6.12484 17.8789 6.12484 17.3193 6.12484H10.6869C10.3619 6.12484 10.0479 6.12318 9.74555 6.12159ZM8.18312 7.87468C8.64983 7.86581 9.14638 7.86847 9.70566 7.87146C10.0121 7.8731 10.3374 7.87484 10.6869 7.87484H17.3128C18.2746 7.87484 19.0976 7.87487 19.8168 7.88833C21.8419 7.92624 22.8654 8.076 23.6196 8.49241C24.34 8.89011 24.9459 9.45839 25.3876 10.1418L21.4891 14.0402C19.5272 16.0022 18.1167 17.4101 16.9001 18.3383C15.7037 19.2511 14.7982 19.6173 13.8583 19.6173C12.9184 19.6173 12.0129 19.2511 10.8165 18.3383C9.59988 17.4101 8.18935 16.0022 6.22742 14.0402L2.50407 10.3169C2.95262 9.5553 3.59901 8.9236 4.38005 8.49241C5.13495 8.07565 6.17398 7.91284 8.18312 7.87468ZM26.0516 11.9526C26.0897 12.2866 26.1024 12.6725 26.0906 13.1324C26.0642 14.1568 25.9203 15.4586 25.7194 17.2672C25.5548 18.7487 25.4362 19.8103 25.2778 20.6416C25.1215 21.4623 24.9375 21.9914 24.6759 22.4193C24.1688 23.2488 23.429 23.911 22.5486 24.3234C22.0944 24.5361 21.5482 24.6605 20.7153 24.7253C19.8715 24.7909 18.8034 24.7915 17.3128 24.7915H10.6869C9.19628 24.7915 8.12817 24.7909 7.28442 24.7253C6.45151 24.6605 5.90531 24.5361 5.4511 24.3234C4.57066 23.911 3.83088 23.2488 3.32379 22.4193C3.06218 21.9914 2.8782 21.4623 2.72186 20.6416C2.56348 19.8103 2.44492 18.7487 2.28031 17.2672C2.07935 15.4586 1.93545 14.1568 1.90908 13.1324C1.9002 12.787 1.90519 12.4833 1.92435 12.212L5.03732 15.325C6.94164 17.2293 8.434 18.7217 9.75497 19.7296C11.1071 20.7612 12.3819 21.3673 13.8583 21.3673C15.3346 21.3673 16.6095 20.7612 17.9616 19.7296C19.2826 18.7217 20.7749 17.2293 22.6792 15.325L26.0516 11.9526Z" fill="#66ADFF"/>
</svg>
