<svg width="224" height="29" viewBox="0 0 224 29" fill="none" xmlns="http://www.w3.org/2000/svg">
<path d="M5.31992 2V23.44H22.5199V27.88H-7.78437e-05V2H5.31992ZM44.1196 21.28H49.1596C48.9463 22.64 48.3729 23.8533 47.4396 24.92C46.5329 25.9867 45.2929 26.8267 43.7196 27.44C42.1463 28.0533 40.2263 28.36 37.9596 28.36C35.4263 28.36 33.1863 27.96 31.2396 27.16C29.2929 26.3333 27.7729 25.1467 26.6796 23.6C25.5863 22.0533 25.0396 20.1867 25.0396 18C25.0396 15.8133 25.5729 13.9467 26.6396 12.4C27.7063 10.8267 29.1863 9.62667 31.0796 8.8C32.9996 7.97334 35.2396 7.56 37.7996 7.56C40.4129 7.56 42.5863 7.97334 44.3196 8.8C46.0529 9.62667 47.3329 10.88 48.1596 12.56C49.0129 14.2133 49.3729 16.3333 49.2396 18.92H30.2796C30.4129 19.9333 30.7863 20.8533 31.3996 21.68C32.0396 22.5067 32.8929 23.16 33.9596 23.64C35.0529 24.12 36.3463 24.36 37.8396 24.36C39.4929 24.36 40.8663 24.08 41.9596 23.52C43.0796 22.9333 43.7996 22.1867 44.1196 21.28ZM37.5596 11.52C35.6396 11.52 34.0796 11.9467 32.8796 12.8C31.6796 13.6267 30.9063 14.6533 30.5596 15.88H44.0796C43.9463 14.5467 43.3063 13.4933 42.1596 12.72C41.0396 11.92 39.5063 11.52 37.5596 11.52ZM71.229 21.28H76.269C76.0557 22.64 75.4823 23.8533 74.549 24.92C73.6423 25.9867 72.4023 26.8267 70.829 27.44C69.2557 28.0533 67.3357 28.36 65.069 28.36C62.5357 28.36 60.2957 27.96 58.349 27.16C56.4023 26.3333 54.8823 25.1467 53.789 23.6C52.6957 22.0533 52.149 20.1867 52.149 18C52.149 15.8133 52.6823 13.9467 53.749 12.4C54.8157 10.8267 56.2957 9.62667 58.189 8.8C60.109 7.97334 62.349 7.56 64.909 7.56C67.5223 7.56 69.6957 7.97334 71.429 8.8C73.1623 9.62667 74.4423 10.88 75.269 12.56C76.1223 14.2133 76.4823 16.3333 76.349 18.92H57.389C57.5223 19.9333 57.8957 20.8533 58.509 21.68C59.149 22.5067 60.0023 23.16 61.069 23.64C62.1623 24.12 63.4557 24.36 64.949 24.36C66.6023 24.36 67.9757 24.08 69.069 23.52C70.189 22.9333 70.909 22.1867 71.229 21.28ZM64.669 11.52C62.749 11.52 61.189 11.9467 59.989 12.8C58.789 13.6267 58.0157 14.6533 57.669 15.88H71.189C71.0557 14.5467 70.4157 13.4933 69.269 12.72C68.149 11.92 66.6157 11.52 64.669 11.52ZM78.5449 8H93.9849V12.04H78.5449V8ZM83.6649 2.56H88.8649V27.88H83.6649V2.56Z" fill="url(#paint0_linear_1_1702)"/>
<path d="M137.817 18.56C137.577 20.64 136.844 22.4133 135.617 23.88C134.39 25.3467 132.724 26.4667 130.617 27.24C128.51 28.0133 126.004 28.4 123.097 28.4C120.67 28.4 118.444 28.12 116.417 27.56C114.417 27 112.684 26.16 111.217 25.04C109.777 23.92 108.657 22.5333 107.857 20.88C107.057 19.2 106.657 17.24 106.657 15C106.657 12.76 107.057 10.8 107.857 9.12C108.657 7.44 109.777 6.04 111.217 4.92C112.684 3.77334 114.417 2.92 116.417 2.36C118.444 1.77334 120.67 1.48 123.097 1.48C126.004 1.48 128.51 1.88 130.617 2.68C132.75 3.48 134.43 4.62667 135.657 6.12C136.884 7.58667 137.604 9.37334 137.817 11.48H132.537C132.19 10.36 131.604 9.4 130.777 8.6C129.977 7.77334 128.937 7.14667 127.657 6.72C126.377 6.29334 124.857 6.08 123.097 6.08C120.91 6.08 118.99 6.42667 117.337 7.12C115.684 7.78667 114.404 8.78667 113.497 10.12C112.59 11.4267 112.137 13.0533 112.137 15C112.137 16.92 112.59 18.5333 113.497 19.84C114.404 21.1467 115.684 22.1467 117.337 22.84C118.99 23.5067 120.91 23.84 123.097 23.84C124.857 23.84 126.364 23.6267 127.617 23.2C128.897 22.7733 129.937 22.16 130.737 21.36C131.564 20.56 132.164 19.6267 132.537 18.56H137.817ZM154.048 28.36C151.541 28.36 149.328 27.96 147.408 27.16C145.514 26.36 144.034 25.2 142.968 23.68C141.901 22.1333 141.368 20.24 141.368 18C141.368 15.76 141.901 13.8667 142.968 12.32C144.034 10.7467 145.514 9.56 147.408 8.76C149.328 7.96 151.541 7.56 154.048 7.56C156.554 7.56 158.741 7.96 160.608 8.76C162.501 9.56 163.981 10.7467 165.048 12.32C166.114 13.8667 166.648 15.76 166.648 18C166.648 20.24 166.114 22.1333 165.048 23.68C163.981 25.2 162.501 26.36 160.608 27.16C158.741 27.96 156.554 28.36 154.048 28.36ZM154.048 24.36C155.434 24.36 156.674 24.12 157.768 23.64C158.888 23.1333 159.768 22.4133 160.408 21.48C161.048 20.52 161.368 19.36 161.368 18C161.368 16.64 161.048 15.48 160.408 14.52C159.768 13.5333 158.901 12.7867 157.808 12.28C156.714 11.7733 155.461 11.52 154.048 11.52C152.661 11.52 151.408 11.7733 150.288 12.28C149.168 12.7867 148.274 13.52 147.608 14.48C146.968 15.44 146.648 16.6133 146.648 18C146.648 19.36 146.968 20.52 147.608 21.48C148.248 22.4133 149.128 23.1333 150.248 23.64C151.368 24.12 152.634 24.36 154.048 24.36ZM180.172 28.32C178.172 28.32 176.358 27.8933 174.732 27.04C173.132 26.16 171.865 24.9467 170.932 23.4C169.998 21.8267 169.532 20.0133 169.532 17.96C169.532 15.8533 169.985 14.0267 170.892 12.48C171.825 10.9333 173.092 9.73334 174.692 8.88C176.292 8 178.118 7.56 180.172 7.56C181.958 7.56 183.478 7.82667 184.732 8.36C185.985 8.89334 186.998 9.64 187.772 10.6C188.545 11.5333 189.105 12.6267 189.452 13.88C189.825 15.1333 190.012 16.4933 190.012 17.96C190.012 19.1333 189.825 20.3333 189.452 21.56C189.078 22.76 188.505 23.88 187.732 24.92C186.958 25.9333 185.945 26.76 184.692 27.4C183.438 28.0133 181.932 28.32 180.172 28.32ZM181.852 24.32C183.425 24.32 184.785 24.0533 185.932 23.52C187.078 22.9867 187.958 22.24 188.572 21.28C189.185 20.32 189.492 19.2133 189.492 17.96C189.492 16.6 189.172 15.4533 188.532 14.52C187.918 13.56 187.038 12.8267 185.892 12.32C184.772 11.8133 183.425 11.56 181.852 11.56C179.638 11.56 177.918 12.1467 176.692 13.32C175.465 14.4933 174.852 16.04 174.852 17.96C174.852 19.24 175.145 20.36 175.732 21.32C176.318 22.2533 177.132 22.9867 178.172 23.52C179.238 24.0533 180.465 24.32 181.852 24.32ZM189.492 3.8147e-06H194.692V27.88H189.852C189.772 27.2667 189.692 26.48 189.612 25.52C189.532 24.5333 189.492 23.6133 189.492 22.76V3.8147e-06ZM218.416 21.28H223.456C223.243 22.64 222.67 23.8533 221.736 24.92C220.83 25.9867 219.59 26.8267 218.016 27.44C216.443 28.0533 214.523 28.36 212.256 28.36C209.723 28.36 207.483 27.96 205.536 27.16C203.59 26.3333 202.07 25.1467 200.976 23.6C199.883 22.0533 199.336 20.1867 199.336 18C199.336 15.8133 199.87 13.9467 200.936 12.4C202.003 10.8267 203.483 9.62667 205.376 8.8C207.296 7.97334 209.536 7.56 212.096 7.56C214.71 7.56 216.883 7.97334 218.616 8.8C220.35 9.62667 221.63 10.88 222.456 12.56C223.31 14.2133 223.67 16.3333 223.536 18.92H204.576C204.71 19.9333 205.083 20.8533 205.696 21.68C206.336 22.5067 207.19 23.16 208.256 23.64C209.35 24.12 210.643 24.36 212.136 24.36C213.79 24.36 215.163 24.08 216.256 23.52C217.376 22.9333 218.096 22.1867 218.416 21.28ZM211.856 11.52C209.936 11.52 208.376 11.9467 207.176 12.8C205.976 13.6267 205.203 14.6533 204.856 15.88H218.376C218.243 14.5467 217.603 13.4933 216.456 12.72C215.336 11.92 213.803 11.52 211.856 11.52Z" fill="white"/>
<defs>
<linearGradient id="paint0_linear_1_1702" x1="11.803" y1="26.88" x2="42.597" y2="-57.9402" gradientUnits="userSpaceOnUse">
<stop stop-color="#B33DEB"/>
<stop offset="1" stop-color="#DE8FFF"/>
</linearGradient>
</defs>
</svg>
