<svg width="130" height="28" viewBox="0 0 130 28" fill="none" xmlns="http://www.w3.org/2000/svg">
<path d="M18 18L22 14L18 10" stroke="#00C950" stroke-width="2" stroke-linecap="round" stroke-linejoin="round"/>
<path d="M6 10L2 14L6 18" stroke="#00C950" stroke-width="2" stroke-linecap="round" stroke-linejoin="round"/>
<path d="M14.5 6L9.5 22" stroke="#00C950" stroke-width="2" stroke-linecap="round" stroke-linejoin="round"/>
<path d="M37.4347 21V6.45455H40.0696V18.7912H46.4759V21H37.4347ZM53.4787 21.2131C52.3849 21.2131 51.4403 20.9858 50.6449 20.5312C49.8542 20.072 49.2457 19.4233 48.8196 18.5852C48.3935 17.7424 48.1804 16.7505 48.1804 15.6094C48.1804 14.4872 48.3935 13.5024 48.8196 12.6548C49.2505 11.8026 49.8518 11.1397 50.6236 10.6662C51.3954 10.188 52.3021 9.94886 53.3438 9.94886C54.0161 9.94886 54.6506 10.0578 55.2472 10.2756C55.8485 10.4886 56.3788 10.8201 56.8381 11.2699C57.3021 11.7197 57.6667 12.2926 57.9318 12.9886C58.197 13.6799 58.3295 14.5038 58.3295 15.4602V16.2486H49.3878V14.5156H55.8651C55.8603 14.0232 55.7538 13.5852 55.5455 13.2017C55.3371 12.8134 55.0459 12.508 54.6719 12.2855C54.3026 12.063 53.8717 11.9517 53.3793 11.9517C52.8537 11.9517 52.392 12.0795 51.9943 12.3352C51.5966 12.5862 51.2865 12.9176 51.0639 13.3295C50.8461 13.7367 50.7348 14.1842 50.7301 14.6719V16.1847C50.7301 16.8191 50.8461 17.3636 51.0781 17.8182C51.3101 18.268 51.6345 18.6136 52.0511 18.8551C52.4678 19.0919 52.9555 19.2102 53.5142 19.2102C53.8883 19.2102 54.2268 19.1581 54.5298 19.054C54.8329 18.9451 55.0956 18.7865 55.3182 18.5781C55.5407 18.3698 55.7088 18.1117 55.8224 17.804L58.223 18.0739C58.0715 18.7083 57.7827 19.2623 57.3565 19.7358C56.9351 20.2045 56.3954 20.5691 55.7372 20.8295C55.0791 21.0852 54.3262 21.2131 53.4787 21.2131ZM65.3342 21.2131C64.2404 21.2131 63.2958 20.9858 62.5004 20.5312C61.7096 20.072 61.1012 19.4233 60.6751 18.5852C60.2489 17.7424 60.0359 16.7505 60.0359 15.6094C60.0359 14.4872 60.2489 13.5024 60.6751 12.6548C61.1059 11.8026 61.7073 11.1397 62.479 10.6662C63.2508 10.188 64.1576 9.94886 65.1992 9.94886C65.8716 9.94886 66.506 10.0578 67.1026 10.2756C67.704 10.4886 68.2343 10.8201 68.6935 11.2699C69.1576 11.7197 69.5221 12.2926 69.7873 12.9886C70.0524 13.6799 70.185 14.5038 70.185 15.4602V16.2486H61.2433V14.5156H67.7205C67.7158 14.0232 67.6093 13.5852 67.4009 13.2017C67.1926 12.8134 66.9014 12.508 66.5273 12.2855C66.158 12.063 65.7272 11.9517 65.2347 11.9517C64.7092 11.9517 64.2475 12.0795 63.8498 12.3352C63.4521 12.5862 63.1419 12.9176 62.9194 13.3295C62.7016 13.7367 62.5903 14.1842 62.5856 14.6719V16.1847C62.5856 16.8191 62.7016 17.3636 62.9336 17.8182C63.1656 18.268 63.4899 18.6136 63.9066 18.8551C64.3233 19.0919 64.811 19.2102 65.3697 19.2102C65.7437 19.2102 66.0823 19.1581 66.3853 19.054C66.6883 18.9451 66.9511 18.7865 67.1737 18.5781C67.3962 18.3698 67.5643 18.1117 67.6779 17.804L70.0785 18.0739C69.927 18.7083 69.6381 19.2623 69.212 19.7358C68.7906 20.2045 68.2508 20.5691 67.5927 20.8295C66.9345 21.0852 66.1817 21.2131 65.3342 21.2131ZM77.8075 10.0909V12.0795H71.5362V10.0909H77.8075ZM73.0845 7.47727H75.6555V17.7188C75.6555 18.0644 75.7076 18.3295 75.8118 18.5142C75.9207 18.6941 76.0627 18.8172 76.2379 18.8835C76.4131 18.9498 76.6072 18.983 76.8203 18.983C76.9813 18.983 77.1281 18.9711 77.2607 18.9474C77.398 18.9238 77.5021 18.9025 77.5732 18.8835L78.0064 20.8935C77.8691 20.9408 77.6726 20.9929 77.4169 21.0497C77.166 21.1065 76.8582 21.1397 76.4936 21.1491C75.8497 21.1681 75.2696 21.071 74.7536 20.858C74.2375 20.6402 73.8279 20.304 73.5249 19.8494C73.2266 19.3949 73.0798 18.8267 73.0845 18.1449V7.47727ZM92.5217 11.3622H89.8654C89.7897 10.9266 89.65 10.5407 89.4464 10.2045C89.2428 9.86364 88.9895 9.57481 88.6864 9.33807C88.3834 9.10133 88.0378 8.92377 87.6495 8.8054C87.266 8.68229 86.8517 8.62074 86.4066 8.62074C85.6159 8.62074 84.9151 8.8196 84.3043 9.21733C83.6935 9.61032 83.2153 10.188 82.8697 10.9503C82.524 11.7079 82.3512 12.6335 82.3512 13.7273C82.3512 14.84 82.524 15.7775 82.8697 16.5398C83.2201 17.2973 83.6983 17.8703 84.3043 18.2585C84.9151 18.642 85.6135 18.8338 86.3995 18.8338C86.8351 18.8338 87.2423 18.777 87.6211 18.6634C88.0046 18.545 88.3479 18.3722 88.6509 18.1449C88.9587 17.9176 89.2167 17.6383 89.4251 17.3068C89.6381 16.9754 89.7849 16.5966 89.8654 16.1705L92.5217 16.1847C92.4222 16.8759 92.2068 17.5246 91.8754 18.1307C91.5487 18.7367 91.1201 19.2718 90.5898 19.7358C90.0595 20.1951 89.4393 20.5549 88.729 20.8153C88.0188 21.071 87.2305 21.1989 86.364 21.1989C85.0856 21.1989 83.9445 20.9029 82.9407 20.3111C81.9369 19.7192 81.1462 18.8646 80.5685 17.7472C79.9909 16.6297 79.7021 15.2898 79.7021 13.7273C79.7021 12.16 79.9933 10.8201 80.5756 9.70739C81.158 8.58996 81.9511 7.73532 82.9549 7.14347C83.9587 6.55161 85.0951 6.25568 86.364 6.25568C87.1737 6.25568 87.9265 6.36932 88.6225 6.59659C89.3185 6.82386 89.9388 7.15767 90.4833 7.59801C91.0278 8.03362 91.4753 8.56866 91.8256 9.20312C92.1808 9.83286 92.4128 10.5526 92.5217 11.3622ZM99.5795 21.2131C98.5142 21.2131 97.5909 20.9787 96.8097 20.5099C96.0284 20.0412 95.4223 19.3854 94.9915 18.5426C94.5653 17.6998 94.3523 16.715 94.3523 15.5881C94.3523 14.4612 94.5653 13.474 94.9915 12.6264C95.4223 11.7789 96.0284 11.1207 96.8097 10.652C97.5909 10.1832 98.5142 9.94886 99.5795 9.94886C100.645 9.94886 101.568 10.1832 102.349 10.652C103.131 11.1207 103.734 11.7789 104.161 12.6264C104.591 13.474 104.807 14.4612 104.807 15.5881C104.807 16.715 104.591 17.6998 104.161 18.5426C103.734 19.3854 103.131 20.0412 102.349 20.5099C101.568 20.9787 100.645 21.2131 99.5795 21.2131ZM99.5938 19.1534C100.171 19.1534 100.654 18.9948 101.043 18.6776C101.431 18.3556 101.72 17.9247 101.909 17.3849C102.103 16.8452 102.2 16.2438 102.2 15.581C102.2 14.9134 102.103 14.3097 101.909 13.7699C101.72 13.2254 101.431 12.7921 101.043 12.4702C100.654 12.1482 100.171 11.9872 99.5938 11.9872C99.0019 11.9872 98.5095 12.1482 98.1165 12.4702C97.7282 12.7921 97.437 13.2254 97.2429 13.7699C97.0535 14.3097 96.9588 14.9134 96.9588 15.581C96.9588 16.2438 97.0535 16.8452 97.2429 17.3849C97.437 17.9247 97.7282 18.3556 98.1165 18.6776C98.5095 18.9948 99.0019 19.1534 99.5938 19.1534ZM111.037 21.1918C110.18 21.1918 109.413 20.9716 108.736 20.5312C108.059 20.0909 107.524 19.4517 107.131 18.6136C106.738 17.7756 106.542 16.7576 106.542 15.5597C106.542 14.3475 106.74 13.3248 107.138 12.4915C107.541 11.6534 108.083 11.0213 108.765 10.5952C109.446 10.1643 110.206 9.94886 111.044 9.94886C111.684 9.94886 112.209 10.0578 112.621 10.2756C113.033 10.4886 113.36 10.7467 113.601 11.0497C113.843 11.348 114.03 11.6297 114.162 11.8949H114.269V6.45455H116.847V21H114.319V19.2812H114.162C114.03 19.5464 113.838 19.8281 113.587 20.1264C113.336 20.42 113.005 20.6709 112.593 20.8793C112.181 21.0876 111.662 21.1918 111.037 21.1918ZM111.755 19.0824C112.299 19.0824 112.763 18.9356 113.147 18.642C113.53 18.3437 113.821 17.9295 114.02 17.3991C114.219 16.8688 114.319 16.2509 114.319 15.5455C114.319 14.84 114.219 14.2268 114.02 13.706C113.826 13.1851 113.537 12.7803 113.154 12.4915C112.775 12.2027 112.309 12.0582 111.755 12.0582C111.182 12.0582 110.703 12.2074 110.32 12.5057C109.936 12.804 109.648 13.2159 109.453 13.7415C109.259 14.267 109.162 14.8684 109.162 15.5455C109.162 16.2273 109.259 16.8357 109.453 17.3707C109.652 17.901 109.944 18.3201 110.327 18.6278C110.715 18.9309 111.191 19.0824 111.755 19.0824ZM124.416 21.2131C123.322 21.2131 122.378 20.9858 121.582 20.5312C120.792 20.072 120.183 19.4233 119.757 18.5852C119.331 17.7424 119.118 16.7505 119.118 15.6094C119.118 14.4872 119.331 13.5024 119.757 12.6548C120.188 11.8026 120.789 11.1397 121.561 10.6662C122.333 10.188 123.24 9.94886 124.281 9.94886C124.954 9.94886 125.588 10.0578 126.185 10.2756C126.786 10.4886 127.316 10.8201 127.776 11.2699C128.24 11.7197 128.604 12.2926 128.869 12.9886C129.134 13.6799 129.267 14.5038 129.267 15.4602V16.2486H120.325V14.5156H126.803C126.798 14.0232 126.691 13.5852 126.483 13.2017C126.275 12.8134 125.983 12.508 125.609 12.2855C125.24 12.063 124.809 11.9517 124.317 11.9517C123.791 11.9517 123.33 12.0795 122.932 12.3352C122.534 12.5862 122.224 12.9176 122.001 13.3295C121.784 13.7367 121.672 14.1842 121.668 14.6719V16.1847C121.668 16.8191 121.784 17.3636 122.016 17.8182C122.248 18.268 122.572 18.6136 122.989 18.8551C123.405 19.0919 123.893 19.2102 124.452 19.2102C124.826 19.2102 125.164 19.1581 125.467 19.054C125.77 18.9451 126.033 18.7865 126.256 18.5781C126.478 18.3698 126.646 18.1117 126.76 17.804L129.161 18.0739C129.009 18.7083 128.72 19.2623 128.294 19.7358C127.873 20.2045 127.333 20.5691 126.675 20.8295C126.017 21.0852 125.264 21.2131 124.416 21.2131Z" fill="white"/>
</svg>
