<!-- src/components/countdownTimer/assets/icons/alarm-clock.svg -->
<svg
  xmlns="http://www.w3.org/2000/svg"
  width="100%" 
  height="100%"
  viewBox="0 0 44.7917 46.3542"
  fill="none"
>
  <path
    d="M9.83025 2.78267C10.5041 2.24359 10.6134 1.26032 10.0743 0.586471C9.5352 -0.0873753 8.55193 -0.196627 7.87808 0.34245L2.66975 4.50912C1.9959 5.04819 1.88665 6.03146 2.42573 6.70531C2.9648 7.37916 3.94807 7.48841 4.62192 6.94933L9.83025 2.78267Z"
    fill="#AE8CFA"
  />
  <path
    d="M36.9136 0.34245C36.2397 -0.196627 35.2565 -0.0873753 34.7174 0.586471C34.1783 1.26032 34.2876 2.24359 34.9614 2.78267L40.1697 6.94933C40.8436 7.48841 41.8269 7.37916 42.3659 6.70531C42.905 6.03146 42.7958 5.04819 42.1219 4.50912L36.9136 0.34245Z"
    fill="#AE8CFA"
  />
  <path
    d="M23.9583 15.6251C23.9583 14.7621 23.2588 14.0626 22.3958 14.0626C21.5329 14.0626 20.8333 14.7621 20.8333 15.6251V21.3031C20.8333 22.4152 20.8333 23.3611 20.9107 24.1461C20.9931 24.9824 21.1719 25.7575 21.6009 26.5007C22.03 27.2438 22.6119 27.7862 23.2949 28.2757C23.9361 28.7352 24.7553 29.2082 25.7185 29.7642L27.0274 30.5199C27.7747 30.9514 28.7303 30.6953 29.1618 29.948C29.5933 29.2006 29.3372 28.245 28.5899 27.8135L27.3438 27.0942C26.3007 26.492 25.6165 26.0949 25.1153 25.7357C24.642 25.3965 24.4364 25.1619 24.3072 24.9382C24.178 24.7144 24.0777 24.4191 24.0206 23.8396C23.9601 23.2259 23.9583 22.4348 23.9583 21.2304V15.6251Z"
    fill="#AE8CFA"
  />
  <path
    fill-rule="evenodd"
    clip-rule="evenodd"
    d="M22.3958 1.56256C10.027 1.56256 0 11.5895 0 23.9584C0 36.3273 10.027 46.3542 22.3958 46.3542C34.7647 46.3542 44.7917 36.3273 44.7917 23.9584C44.7917 11.5895 34.7647 1.56256 22.3958 1.56256ZM3.125 23.9584C3.125 13.3154 11.7528 4.68756 22.3958 4.68756C33.0388 4.68756 41.6667 13.3154 41.6667 23.9584C41.6667 34.6014 33.0388 43.2292 22.3958 43.2292C11.7528 43.2292 3.125 34.6014 3.125 23.9584Z"
    fill="#AE8CFA"
  />
</svg>
