<svg width="24" height="22" viewBox="0 0 24 22" fill="none" xmlns="http://www.w3.org/2000/svg">
<path fill-rule="evenodd" clip-rule="evenodd" d="M11.4899 1.6278e-05C9.7836 -0.000252241 8.74239 -0.00041604 7.87487 0.281458C6.12435 0.850236 4.75192 2.22267 4.18314 3.97319L4.17452 4.00003H3.88249C0.176945 4.00003 -1.41486 8.70211 1.52866 10.953L1.53931 10.9612L4.00622 12.7115C4.09563 12.775 4.1884 12.8334 4.2841 12.8865C4.28547 12.89 4.28684 12.8936 4.28821 12.8972C4.29783 12.9223 4.30767 12.9473 4.31774 12.9724C4.57323 13.607 5.07193 14.3684 5.55155 14.8563C6.33317 15.6512 7.14205 16.0038 8.43371 16.5667L8.51954 16.6041C9.0759 16.8467 9.63847 17.0667 10.1608 17.2272C10.4082 17.3032 10.6579 17.3696 10.9017 17.4178V20H7.65172C7.2375 20 6.90172 20.3358 6.90172 20.75C6.90172 21.1642 7.2375 21.5 7.65172 21.5H15.6517C16.0659 21.5 16.4017 21.1642 16.4017 20.75C16.4017 20.3358 16.0659 20 15.6517 20H12.4017V17.4178C12.6455 17.3696 12.8952 17.3032 13.1426 17.2272C13.665 17.0667 14.2275 16.8467 14.7839 16.6041L14.8697 16.5667C16.1614 16.0038 16.9703 15.6512 17.7519 14.8563C18.2315 14.3684 18.7302 13.607 18.9857 12.9724C18.9969 12.9445 19.0078 12.9167 19.0184 12.8888C19.1162 12.8332 19.2111 12.7727 19.303 12.7076L21.7643 10.9612L21.7749 10.953C24.7184 8.70211 23.1266 4.00003 19.4211 4.00003H19.1289L19.1203 3.97319C18.5515 2.22267 17.1791 0.850236 15.4286 0.281458C14.561 -0.00041604 13.5198 -0.000252241 11.8136 1.6278e-05H11.4899ZM2.42986 9.75383C0.63938 8.37126 1.61558 5.50003 3.88249 5.50003H3.93478C3.90166 6.08514 3.90168 6.78687 3.90172 7.66608L3.90171 9.16602C3.90163 9.79107 3.90157 10.3301 3.9217 10.8123L2.42986 9.75383ZM20.8737 9.75382L19.3817 10.8124C19.4019 10.3304 19.4018 9.79164 19.4017 9.16695L19.4017 7.66603C19.4018 6.78693 19.4018 6.08509 19.3687 5.50003H19.4211C21.688 5.50003 22.6642 8.37126 20.8737 9.75382ZM8.3384 1.70804C8.95011 1.50929 9.73206 1.50003 11.6517 1.50003C13.5714 1.50003 14.3533 1.50929 14.965 1.70804C16.2589 2.12844 17.2733 3.14285 17.6937 4.43671C17.736 4.56689 17.7706 4.70938 17.7984 4.87463C17.8991 5.47223 17.9017 6.27818 17.9017 7.75003V9.05043C17.9017 10.6975 17.8943 11.4674 17.6903 12.1396C17.6624 12.2314 17.6306 12.3217 17.5942 12.4122C17.4126 12.8634 17.0233 13.4578 16.6823 13.8046C16.1228 14.3737 15.5809 14.6203 14.1844 15.2291C13.6582 15.4585 13.1517 15.6552 12.702 15.7934C12.2413 15.935 11.8878 16 11.6517 16C11.4157 16 11.0621 15.935 10.6014 15.7934C10.1518 15.6552 9.64522 15.4585 9.11903 15.2291C7.72257 14.6203 7.18063 14.3737 6.62116 13.8046C6.28017 13.4578 5.89085 12.8634 5.70922 12.4122C5.67171 12.319 5.63912 12.2261 5.61066 12.1314C5.40902 11.4607 5.40172 10.6905 5.40172 9.05043V7.75003C5.40172 6.27818 5.40433 5.47223 5.50501 4.87463C5.53285 4.70938 5.56743 4.56688 5.60973 4.43671C6.03013 3.14285 7.04453 2.12844 8.3384 1.70804Z" fill="url(#paint0_linear_8103_274)"/>
<defs>
<linearGradient id="paint0_linear_8103_274" x1="1.56104" y1="16.125" x2="20.8975" y2="4.02463" gradientUnits="userSpaceOnUse">
<stop stop-color="#B33DEB"/>
<stop offset="1" stop-color="#DE8FFF"/>
</linearGradient>
</defs>
</svg>
