<svg width="43" height="43" viewBox="0 0 43 43" fill="none" xmlns="http://www.w3.org/2000/svg">
<g clip-path="url(#clip0_1_209)">
<path fill-rule="evenodd" clip-rule="evenodd" d="M21.0046 1.0506C16.0475 1.05317 11.2529 2.80889 7.47819 6.0038C3.70348 9.19872 1.19479 13.6245 0.400683 18.4898C-0.393422 23.355 0.578837 28.3425 3.14363 32.5605C5.70843 36.7784 9.6985 39.9516 14.4004 41.5129C15.4377 41.7054 15.8284 41.0625 15.8284 40.5158C15.8284 39.9692 15.8077 38.3843 15.8007 36.6515C9.9918 37.9064 8.76432 34.2002 8.76432 34.2002C7.81691 31.7935 6.44766 31.1609 6.44766 31.1609C4.55283 29.8751 6.58943 29.8992 6.58943 29.8992C8.68826 30.047 9.79127 32.0411 9.79127 32.0411C11.6515 35.2144 14.677 34.2964 15.8664 33.7601C16.0532 32.4158 16.596 31.5013 17.1942 30.9822C12.554 30.4596 7.6786 28.6787 7.6786 20.723C7.64984 18.6598 8.41985 16.6645 9.8293 15.15C9.61492 14.6274 8.89917 12.5165 10.0333 9.64913C10.0333 9.64913 11.7864 9.09217 15.7766 11.7773C19.1991 10.8467 22.8101 10.8467 26.2327 11.7773C30.2194 9.09217 31.969 9.64913 31.969 9.64913C33.1066 12.5096 32.3908 14.6205 32.1764 15.15C33.5904 16.6648 34.362 18.6635 34.3306 20.7299C34.3306 28.7027 29.4448 30.4596 24.7977 30.9718C25.5446 31.6182 26.2119 32.88 26.2119 34.819C26.2119 37.5969 26.1877 39.8317 26.1877 40.5158C26.1877 41.0694 26.5646 41.7157 27.6226 41.5129C32.3251 39.9515 36.3155 36.7776 38.8803 32.559C41.445 28.3404 42.4168 23.3521 41.6218 18.4864C40.8268 13.6207 38.3168 9.19484 34.5409 6.00047C30.7649 2.8061 25.9692 1.05154 21.0115 1.0506H21.0046Z" fill="#191717"/>
<path d="M8.03081 30.8618C7.98586 30.9649 7.81989 30.9959 7.68504 30.9237C7.55019 30.8515 7.44992 30.7174 7.49833 30.6108C7.54674 30.5042 7.70925 30.4767 7.8441 30.5489C7.97895 30.6211 8.08267 30.7586 8.03081 30.8618Z" fill="#191717"/>
<path d="M8.87799 31.8004C8.80639 31.8362 8.72446 31.8463 8.64625 31.8287C8.56803 31.8111 8.4984 31.7671 8.44924 31.7041C8.31439 31.5597 8.28671 31.3603 8.39044 31.2709C8.49418 31.1815 8.68091 31.2228 8.81576 31.3672C8.95061 31.5116 8.98172 31.711 8.87799 31.8004Z" fill="#191717"/>
<path d="M9.70085 32.9933C9.57292 33.0827 9.35507 32.9933 9.23405 32.8145C9.20059 32.7824 9.17398 32.744 9.1558 32.7014C9.13762 32.6589 9.12823 32.6132 9.12823 32.567C9.12823 32.5207 9.13762 32.475 9.1558 32.4325C9.17398 32.3899 9.20059 32.3515 9.23405 32.3194C9.36199 32.2335 9.57983 32.3194 9.70085 32.4948C9.82187 32.6701 9.82533 32.9039 9.70085 32.9933Z" fill="#191717"/>
<path d="M10.8178 34.1486C10.7037 34.2758 10.472 34.2414 10.2818 34.0695C10.0917 33.8976 10.0467 33.6638 10.1608 33.54C10.2749 33.4163 10.5066 33.4507 10.7037 33.6191C10.9007 33.7876 10.9388 34.0248 10.8178 34.1486Z" fill="#191717"/>
<path d="M12.384 34.8223C12.3322 34.9839 12.0971 35.0561 11.8619 34.9873C11.6268 34.9186 11.4712 34.726 11.5162 34.561C11.5611 34.396 11.7997 34.3204 12.0383 34.396C12.2769 34.4716 12.429 34.6538 12.384 34.8223Z" fill="#191717"/>
<path d="M14.0924 34.9393C14.0924 35.1077 13.8988 35.2521 13.6498 35.2556C13.4008 35.259 13.1968 35.1215 13.1968 34.953C13.1968 34.7846 13.3905 34.6402 13.6394 34.6367C13.8884 34.6333 14.0924 34.7674 14.0924 34.9393Z" fill="#191717"/>
<path d="M15.6827 34.6746C15.7138 34.8431 15.5409 35.0184 15.2919 35.0597C15.043 35.1009 14.8252 35.0012 14.794 34.8362C14.7629 34.6712 14.9427 34.4924 15.1848 34.4477C15.4268 34.403 15.6515 34.5061 15.6827 34.6746Z" fill="#191717"/>
</g>
<defs>
<clipPath id="clip0_1_209">
<rect width="42.024" height="42.024" fill="white"/>
</clipPath>
</defs>
</svg>
