<svg width="43" height="43" viewBox="0 0 43 43" fill="none" xmlns="http://www.w3.org/2000/svg">
<g clip-path="url(#clip0_1_210)">
<path fill-rule="evenodd" clip-rule="evenodd" d="M41.1835 21.4896C41.1835 19.9996 41.0498 18.567 40.8015 17.1917H21.012V25.3195H32.3202C31.8331 27.946 30.3528 30.1713 28.1274 31.6613V36.9334H34.9181C38.8913 33.2754 41.1835 27.8887 41.1835 21.4896Z" fill="#4285F4"/>
<path fill-rule="evenodd" clip-rule="evenodd" d="M21.0121 42.0239C26.6853 42.0239 31.4417 40.1424 34.9182 36.9333L28.1275 31.6612C26.246 32.9219 23.8391 33.6669 21.0121 33.6669C15.5394 33.6669 10.9072 29.9707 9.2549 25.0042H2.23499V30.4482C5.69241 37.3153 12.7983 42.0239 21.0121 42.0239Z" fill="#34A853"/>
<path fill-rule="evenodd" clip-rule="evenodd" d="M9.25483 25.0043C8.83459 23.7435 8.59582 22.3969 8.59582 21.012C8.59582 19.6271 8.83459 18.2804 9.25483 17.0197V11.5757H2.23491C0.811827 14.4123 0 17.6214 0 21.012C0 24.4026 0.811827 27.6117 2.23491 30.4483L9.25483 25.0043Z" fill="#FBBC05"/>
<path fill-rule="evenodd" clip-rule="evenodd" d="M21.0121 8.35705C24.097 8.35705 26.8668 9.4172 29.0444 11.4993L35.071 5.47267C31.4321 2.0821 26.6758 0 21.0121 0C12.7983 0 5.69241 4.7086 2.23499 11.5757L9.2549 17.0197C10.9072 12.0532 15.5394 8.35705 21.0121 8.35705Z" fill="#EA4335"/>
</g>
<defs>
<clipPath id="clip0_1_210">
<rect width="42.024" height="42.024" fill="white"/>
</clipPath>
</defs>
</svg>
