<svg width="342" height="67" viewBox="0 0 342 67" fill="none" xmlns="http://www.w3.org/2000/svg">
<rect width="342" height="67" rx="15" fill="#FAFAFA" fill-opacity="0.75"/>
<path d="M65.8334 35.592H67.3054C67.3374 36.008 67.4761 36.3867 67.7214 36.728C67.9774 37.0587 68.3188 37.32 68.7454 37.512C69.1828 37.704 69.6894 37.8 70.2654 37.8C70.7668 37.8 71.1828 37.7307 71.5134 37.592C71.8441 37.4533 72.0894 37.2667 72.2494 37.032C72.4201 36.7867 72.5054 36.4987 72.5054 36.168C72.5054 35.8373 72.4148 35.576 72.2334 35.384C72.0521 35.1813 71.7801 35.016 71.4174 34.888C71.0548 34.7493 70.6068 34.616 70.0734 34.488C69.6041 34.3707 69.1401 34.232 68.6814 34.072C68.2334 33.9013 67.8174 33.6933 67.4334 33.448C67.0601 33.2027 66.7561 32.9093 66.5214 32.568C66.2974 32.216 66.1854 31.7947 66.1854 31.304C66.1854 30.7813 66.3294 30.3067 66.6174 29.88C66.9054 29.4427 67.3268 29.096 67.8814 28.84C68.4468 28.5733 69.1294 28.44 69.9294 28.44C71.1668 28.44 72.1001 28.7493 72.7294 29.368C73.3694 29.9867 73.6788 30.8133 73.6574 31.848H72.2174C72.1854 31.1227 71.9561 30.6053 71.5294 30.296C71.1028 29.976 70.5481 29.816 69.8654 29.816C69.2788 29.816 68.7774 29.9387 68.3614 30.184C67.9454 30.4187 67.7374 30.792 67.7374 31.304C67.7374 31.528 67.7854 31.7253 67.8814 31.896C67.9774 32.056 68.1374 32.2053 68.3614 32.344C68.5854 32.4827 68.8841 32.616 69.2574 32.744C69.6414 32.872 70.1161 33.0107 70.6814 33.16C71.1081 33.256 71.5188 33.3787 71.9134 33.528C72.3188 33.6773 72.6814 33.864 73.0014 34.088C73.3214 34.312 73.5721 34.6 73.7534 34.952C73.9454 35.304 74.0414 35.736 74.0414 36.248C74.0414 36.792 73.9081 37.288 73.6414 37.736C73.3748 38.1733 72.9588 38.5253 72.3934 38.792C71.8388 39.048 71.1188 39.176 70.2334 39.176C69.5294 39.176 68.9161 39.0853 68.3934 38.904C67.8814 38.7227 67.4494 38.488 67.0974 38.2C66.7561 37.912 66.4841 37.6027 66.2814 37.272C66.0894 36.9413 65.9561 36.6267 65.8814 36.328C65.8174 36.0293 65.8014 35.784 65.8334 35.592ZM81.8477 36.408H83.3037C83.2184 36.9307 83.0157 37.4 82.6957 37.816C82.3757 38.232 81.9544 38.5627 81.4317 38.808C80.909 39.0533 80.2957 39.176 79.5917 39.176C78.7597 39.176 78.0184 39 77.3677 38.648C76.717 38.296 76.205 37.8107 75.8317 37.192C75.4584 36.5733 75.2717 35.8533 75.2717 35.032C75.2717 34.2 75.453 33.4747 75.8157 32.856C76.1784 32.2267 76.6797 31.736 77.3197 31.384C77.9597 31.032 78.6904 30.856 79.5117 30.856C80.3757 30.856 81.101 31.0267 81.6877 31.368C82.2744 31.7093 82.7064 32.216 82.9837 32.888C83.2717 33.5493 83.389 34.376 83.3357 35.368H76.7917C76.845 35.848 76.989 36.2747 77.2237 36.648C77.469 37.0213 77.789 37.3147 78.1837 37.528C78.589 37.7413 79.053 37.848 79.5757 37.848C80.1624 37.848 80.653 37.7147 81.0477 37.448C81.4424 37.1813 81.709 36.8347 81.8477 36.408ZM79.5277 32.168C78.8344 32.168 78.2584 32.3547 77.7997 32.728C77.341 33.0907 77.037 33.576 76.8877 34.184H81.7997C81.757 33.5333 81.5224 33.0373 81.0957 32.696C80.669 32.344 80.1464 32.168 79.5277 32.168ZM88.2493 39.16C87.5666 39.16 86.9426 38.984 86.3773 38.632C85.812 38.28 85.364 37.7947 85.0333 37.176C84.7026 36.5467 84.5373 35.8267 84.5373 35.016C84.5373 34.2053 84.7026 33.4907 85.0333 32.872C85.3746 32.2427 85.8386 31.752 86.4253 31.4C87.012 31.0373 87.668 30.856 88.3933 30.856C89.1933 30.856 89.812 31.0427 90.2493 31.416C90.6973 31.7893 91.0066 32.2907 91.1773 32.92C91.3586 33.5493 91.4493 34.248 91.4493 35.016C91.4493 35.4427 91.396 35.896 91.2893 36.376C91.1826 36.856 91.012 37.3093 90.7773 37.736C90.5426 38.1627 90.2173 38.5093 89.8013 38.776C89.3853 39.032 88.868 39.16 88.2493 39.16ZM88.6813 37.832C89.2466 37.832 89.7213 37.7093 90.1053 37.464C90.5 37.208 90.7933 36.8667 90.9853 36.44C91.1773 36.0133 91.2733 35.5387 91.2733 35.016C91.2733 34.4507 91.172 33.9547 90.9693 33.528C90.7773 33.1013 90.484 32.7707 90.0893 32.536C89.7053 32.3013 89.236 32.184 88.6813 32.184C87.8493 32.184 87.204 32.4507 86.7453 32.984C86.2973 33.5173 86.0733 34.1947 86.0733 35.016C86.0733 35.5707 86.1853 36.0613 86.4093 36.488C86.6333 36.904 86.9373 37.2347 87.3213 37.48C87.716 37.7147 88.1693 37.832 88.6813 37.832ZM91.2733 31.016H92.8093V39H91.4013C91.4013 39 91.3906 38.904 91.3693 38.712C91.348 38.5093 91.3266 38.2693 91.3053 37.992C91.284 37.7147 91.2733 37.4693 91.2733 37.256V31.016ZM94.8127 31.016H96.3487V39H94.8127V31.016ZM99.0527 32.376C98.498 32.376 98.0234 32.504 97.6287 32.76C97.2447 33.016 96.9354 33.3307 96.7007 33.704C96.4767 34.0773 96.3274 34.4347 96.2527 34.776L96.2367 33.864C96.2474 33.7573 96.274 33.592 96.3167 33.368C96.37 33.1333 96.4607 32.872 96.5887 32.584C96.7167 32.296 96.8874 32.024 97.1007 31.768C97.314 31.5013 97.5807 31.2827 97.9007 31.112C98.2207 30.9413 98.6047 30.856 99.0527 30.856V32.376ZM108.262 35.96C108.198 36.6213 107.984 37.1973 107.622 37.688C107.27 38.168 106.806 38.536 106.23 38.792C105.654 39.048 105.014 39.176 104.31 39.176C103.531 39.176 102.816 39.016 102.166 38.696C101.515 38.3653 100.992 37.8907 100.598 37.272C100.214 36.6427 100.022 35.896 100.022 35.032C100.022 34.1573 100.214 33.4107 100.598 32.792C100.992 32.1627 101.515 31.6827 102.166 31.352C102.816 31.0213 103.531 30.856 104.31 30.856C105.014 30.856 105.648 30.984 106.214 31.24C106.779 31.496 107.243 31.864 107.606 32.344C107.968 32.8133 108.187 33.3787 108.262 34.04H106.87C106.688 33.464 106.363 33.0107 105.894 32.68C105.435 32.3387 104.907 32.168 104.31 32.168C103.819 32.168 103.36 32.28 102.934 32.504C102.518 32.728 102.182 33.0533 101.926 33.48C101.68 33.896 101.558 34.4133 101.558 35.032C101.558 35.6293 101.68 36.1413 101.926 36.568C102.182 36.984 102.518 37.304 102.934 37.528C103.35 37.7413 103.808 37.848 104.31 37.848C104.992 37.848 105.547 37.6827 105.974 37.352C106.4 37.0213 106.704 36.5573 106.886 35.96H108.262ZM116.052 39V34.184C116.052 33.7573 115.982 33.4053 115.844 33.128C115.705 32.8507 115.497 32.6427 115.22 32.504C114.942 32.3547 114.59 32.28 114.164 32.28C113.694 32.28 113.262 32.392 112.868 32.616C112.484 32.8293 112.169 33.1227 111.924 33.496C111.678 33.8587 111.529 34.2693 111.476 34.728L111.46 33.816C111.513 33.4 111.625 33.0107 111.796 32.648C111.977 32.2853 112.201 31.9707 112.468 31.704C112.745 31.4373 113.065 31.2293 113.428 31.08C113.79 30.9307 114.185 30.856 114.612 30.856C115.06 30.856 115.465 30.92 115.828 31.048C116.19 31.1653 116.5 31.352 116.756 31.608C117.022 31.8533 117.225 32.1573 117.364 32.52C117.502 32.872 117.572 33.2773 117.572 33.736V39H116.052ZM110.052 39V27.816H111.572V39H110.052Z" fill="black" fill-opacity="0.5"/>
<g clip-path="url(#clip0_4472_588)">
<path fill-rule="evenodd" clip-rule="evenodd" d="M41.9142 24.1978C37.4144 24.1978 33.7666 27.6536 33.7666 31.9165C33.7666 36.1795 37.4144 39.6353 41.9142 39.6353C46.4139 39.6353 50.0617 36.1795 50.0617 31.9165C50.0617 27.6536 46.4139 24.1978 41.9142 24.1978ZM35.0201 31.9165C35.0201 28.3094 38.1067 25.3853 41.9142 25.3853C45.7217 25.3853 48.8083 28.3094 48.8083 31.9165C48.8083 35.5236 45.7217 38.4478 41.9142 38.4478C38.1067 38.4478 35.0201 35.5236 35.0201 31.9165Z" fill="url(#paint0_linear_4472_588)"/>
<path d="M49.0426 37.8301C48.7978 37.5982 48.401 37.5982 48.1562 37.8301C47.9115 38.0619 47.9115 38.4379 48.1562 38.6698L51.4987 41.8364C51.7435 42.0683 52.1403 42.0683 52.3851 41.8364C52.6298 41.6045 52.6298 41.2286 52.3851 40.9967L49.0426 37.8301Z" fill="url(#paint1_linear_4472_588)"/>
</g>
<defs>
<linearGradient id="paint0_linear_4472_588" x1="35.0261" y1="37.5572" x2="50.8572" y2="27.9093" gradientUnits="userSpaceOnUse">
<stop stop-color="#B33DEB"/>
<stop offset="1" stop-color="#DE8FFF"/>
</linearGradient>
<linearGradient id="paint1_linear_4472_588" x1="35.0261" y1="37.5572" x2="50.8572" y2="27.9093" gradientUnits="userSpaceOnUse">
<stop stop-color="#B33DEB"/>
<stop offset="1" stop-color="#DE8FFF"/>
</linearGradient>
<clipPath id="clip0_4472_588">
<rect width="20.0556" height="19" fill="white" transform="translate(32.7222 24)"/>
</clipPath>
</defs>
</svg>
