<svg width="126" height="105" version="1.1" xmlns="http://www.w3.org/2000/svg" desc="Created with imagetracer.js version 1.2.6" ><path fill="rgb(205,161,56)" stroke="rgb(205,161,56)" stroke-width="1" opacity="1" d="M 3 32 Q 7.7 31 9 34.5 L 8.5 36 L 6 34.5 L 7 36.5 L 5.5 36 L 3 34.5 L 3 32 Z " /><path fill="rgb(205,161,56)" stroke="rgb(205,161,56)" stroke-width="1" opacity="1" d="M 60 32 L 65 32 L 65 42.5 L 66 43.5 L 66 62.5 L 67.5 64 L 75 65 L 74.5 67 L 50 67 Q 48.6 63.3 54.5 65 L 59 62.5 L 59 34.5 L 60 32 Z " /><path fill="rgb(205,161,56)" stroke="rgb(205,161,56)" stroke-width="1" opacity="1" d="M 118.5 32 L 123 32.5 L 119.5 37 L 118 36.5 L 119 34.5 L 116 35.5 L 118.5 32 Z " /><path fill="rgb(205,161,56)" stroke="rgb(205,161,56)" stroke-width="1" opacity="1" d="M 16.5 34 L 22 34.5 L 16.5 38 L 16.5 36 L 13.5 37 L 14.5 35 L 16.5 34 Z " /><path fill="rgb(205,161,56)" stroke="rgb(205,161,56)" stroke-width="1" opacity="1" d="M 103.5 34 Q 110 33 112 36.5 L 107.5 38 L 103.5 34 Z " /><path fill="rgb(205,161,56)" stroke="rgb(205,161,56)" stroke-width="1" opacity="1" d="M 0 40 L 3.5 40 L 9 45.5 L 7.5 48 L 2 46 L 0 40 Z " /><path fill="rgb(205,161,56)" stroke="rgb(205,161,56)" stroke-width="1" opacity="1" d="M 121.5 40 Q 125.9 38.5 125 41.5 L 123 46 L 117.5 48 L 117.5 46 Q 115.3 46.8 116 44.5 L 121.5 40 Z " /><path fill="rgb(205,161,56)" stroke="rgb(205,161,56)" stroke-width="1" opacity="1" d="M 17.5 41 L 22 41.5 L 19.5 45 L 15.5 47 L 15.5 45 L 13.5 46 L 13 44.5 L 17.5 41 Z " /><path fill="rgb(205,161,56)" stroke="rgb(205,161,56)" stroke-width="1" opacity="1" d="M 103.5 41 Q 110.4 40.1 112 44.5 L 111.5 46 L 109.5 45 L 109.5 47 L 104 43.5 L 103.5 41 Z " /><path fill="rgb(205,161,56)" stroke="rgb(205,161,56)" stroke-width="1" opacity="1" d="M 21.5 48 Q 24.3 49.3 22 50.5 L 18.5 55 L 16.5 56 L 14 55.5 L 14 53.5 L 18.5 49 L 21.5 48 Z " /><path fill="rgb(205,161,56)" stroke="rgb(205,161,56)" stroke-width="1" opacity="1" d="M 103.5 48 L 111 53.5 L 110.5 56 L 107.5 55 L 103 51.5 L 102 49.5 L 103.5 48 Z " /><path fill="rgb(205,161,56)" stroke="rgb(205,161,56)" stroke-width="1" opacity="1" d="M 0 51 Q 8 50 11 55.5 L 9.5 58 Q 2.6 58.9 1 54.5 L 0 51 Z " /><path fill="rgb(205,161,56)" stroke="rgb(205,161,56)" stroke-width="1" opacity="1" d="M 120.5 51 Q 125.9 49.1 125 52.5 L 121.5 57 L 115.5 58 L 114 55.5 L 120.5 51 Z " /><path fill="rgb(205,161,56)" stroke="rgb(205,161,56)" stroke-width="1" opacity="1" d="M 22.5 56 Q 26.3 54.8 25 58.5 L 20.5 64 L 20.5 62 Q 18.3 61.3 19 63.5 L 18 63.5 L 18 60.5 L 22.5 56 Z " /><path fill="rgb(205,161,56)" stroke="rgb(205,161,56)" stroke-width="1" opacity="1" d="M 100 56 L 102.5 56 L 107 60.5 L 106.5 64 L 104.5 61 L 104 62.5 L 104.5 64 Q 100.1 61.6 100 56 Z " /><path fill="rgb(205,161,56)" stroke="rgb(205,161,56)" stroke-width="1" opacity="1" d="M 4.5 62 Q 11 62 14 65.5 L 10 66.5 L 13 67.5 L 6.5 68 L 3 63.5 L 4.5 62 Z " /><path fill="rgb(205,161,56)" stroke="rgb(205,161,56)" stroke-width="1" opacity="1" d="M 117.5 62 Q 121.3 61.3 122 63.5 L 118.5 68 L 112 67.5 L 115 66.5 L 111 65.5 L 117.5 62 Z " /><path fill="rgb(205,161,56)" stroke="rgb(205,161,56)" stroke-width="1" opacity="1" d="M 27.5 63 Q 30.5 62.1 29 66.5 L 25.5 72 L 26 70.5 L 25.5 68 L 23.5 72 L 23 67.5 L 25 64 L 27.5 63 Z " /><path fill="rgb(205,161,56)" stroke="rgb(205,161,56)" stroke-width="1" opacity="1" d="M 96 63 L 100 64 L 102 67.5 L 102 71.5 L 101 71.5 L 99.5 68 L 99 70.5 L 99.5 72 Q 95.2 69.2 96 63 Z " /><path fill="rgb(205,161,56)" stroke="rgb(205,161,56)" stroke-width="1" opacity="1" d="M 33.5 69 L 34 73 L 31 71.5 L 33.5 69 Z " /><path fill="rgb(205,161,56)" stroke="rgb(205,161,56)" stroke-width="1" opacity="1" d="M 91.5 69 L 94 72.5 L 91 72.5 L 91.5 69 Z " /><path fill="rgb(243,241,226)" stroke="rgb(243,241,226)" stroke-width="1" opacity="1" d="M 23.5 9 L 26 10.5 L 24.5 11 L 23.5 9 Z " /><path fill="rgb(243,241,226)" stroke="rgb(243,241,226)" stroke-width="1" opacity="1" d="M 101.5 9 L 100.5 11 L 99 10.5 L 101.5 9 Z " /><path fill="rgb(243,241,226)" stroke="rgb(243,241,226)" stroke-width="1" opacity="1" d="M 16.5 11 L 17.5 13 L 16.5 11 Z " /><path fill="rgb(243,241,226)" stroke="rgb(243,241,226)" stroke-width="1" opacity="1" d="M 108.5 11 L 107.5 13 L 108.5 11 Z " /><path fill="rgb(243,241,226)" stroke="rgb(243,241,226)" stroke-width="1" opacity="1" d="M 21.5 12 L 20 14.5 L 19 18 L 17 17.5 L 21.5 12 Z " /><path fill="rgb(243,241,226)" stroke="rgb(243,241,226)" stroke-width="1" opacity="1" d="M 103.5 12 L 109 20.5 L 108 20.5 L 105 14 Q 101.8 15 103.5 12 Z " /><path fill="rgb(243,241,226)" stroke="rgb(243,241,226)" stroke-width="1" opacity="1" d="M 20.5 18 L 23 18.5 L 20.5 19 L 20.5 18 Z " /><path fill="rgb(243,241,226)" stroke="rgb(243,241,226)" stroke-width="1" opacity="1" d="M 51.5 18 L 51 19.5 L 52 21.5 L 50 20.5 L 51.5 18 Z " /><path fill="rgb(243,241,226)" stroke="rgb(243,241,226)" stroke-width="1" opacity="1" d="M 102.5 18 L 105 18.5 L 102.5 19 L 102.5 18 Z " /><path fill="rgb(243,241,226)" stroke="rgb(243,241,226)" stroke-width="1" opacity="1" d="M 102.5 23 L 105 23.5 L 102.5 24 L 102.5 23 Z " /><path fill="rgb(243,241,226)" stroke="rgb(243,241,226)" stroke-width="1" opacity="1" d="M 18.5 25 L 22 25.5 L 18.5 26 L 18.5 25 Z " /><path fill="rgb(243,241,226)" stroke="rgb(243,241,226)" stroke-width="1" opacity="1" d="M 103.5 25 L 107 25.5 L 103.5 26 L 103.5 25 Z " /><path fill="rgb(243,241,226)" stroke="rgb(243,241,226)" stroke-width="1" opacity="1" d="M 6.5 26 L 7.5 28 L 6.5 26 Z " /><path fill="rgb(243,241,226)" stroke="rgb(243,241,226)" stroke-width="1" opacity="1" d="M 118.5 26 L 117.5 28 L 118.5 26 Z " /><path fill="rgb(243,241,226)" stroke="rgb(243,241,226)" stroke-width="1" opacity="1" d="M 2.5 28 L 4 28.5 L 1.5 30 L 2.5 28 Z " /><path fill="rgb(243,241,226)" stroke="rgb(243,241,226)" stroke-width="1" opacity="1" d="M 22.5 35 L 21.5 37 L 22.5 35 Z " /><path fill="rgb(243,241,226)" stroke="rgb(243,241,226)" stroke-width="1" opacity="1" d="M 102.5 35 L 103.5 37 L 102.5 35 Z " /><path fill="rgb(243,241,226)" stroke="rgb(243,241,226)" stroke-width="1" opacity="1" d="M 5.5 40 L 7.5 43 L 5.5 40 Z " /><path fill="rgb(243,241,226)" stroke="rgb(243,241,226)" stroke-width="1" opacity="1" d="M 124.5 44 L 122.5 47 L 124.5 44 Z " /><path fill="rgb(243,241,226)" stroke="rgb(243,241,226)" stroke-width="1" opacity="1" d="M 115.5 47 L 114.5 49 L 115.5 47 Z " /><path fill="rgb(243,241,226)" stroke="rgb(243,241,226)" stroke-width="1" opacity="1" d="M 113.5 57 L 112.5 59 L 113.5 57 Z " /><path fill="rgb(243,241,226)" stroke="rgb(243,241,226)" stroke-width="1" opacity="1" d="M 118.5 61 L 121 61.5 L 118.5 62 L 118.5 61 Z " /><path fill="rgb(243,241,226)" stroke="rgb(243,241,226)" stroke-width="1" opacity="1" d="M 23.5 62 L 21.5 65 L 23.5 62 Z " /><path fill="rgb(243,241,226)" stroke="rgb(243,241,226)" stroke-width="1" opacity="1" d="M 101.5 62 L 102.5 64 L 101.5 62 Z " /><path fill="rgb(243,241,226)" stroke="rgb(243,241,226)" stroke-width="1" opacity="1" d="M 99.5 63 L 101.5 66 L 99.5 63 Z " /><path fill="rgb(243,241,226)" stroke="rgb(243,241,226)" stroke-width="1" opacity="1" d="M 16.5 64 L 19 65.5 L 17 66.5 L 16.5 64 Z " /><path fill="rgb(243,241,226)" stroke="rgb(243,241,226)" stroke-width="1" opacity="1" d="M 108.5 64 L 108 65.5 L 107.5 67 L 105 65.5 L 108.5 64 Z " /><path fill="rgb(243,241,226)" stroke="rgb(243,241,226)" stroke-width="1" opacity="1" d="M 2.5 65 L 4.5 68 L 2.5 65 Z " /><path fill="rgb(243,241,226)" stroke="rgb(243,241,226)" stroke-width="1" opacity="1" d="M 122.5 65 L 120.5 68 L 122.5 65 Z " /><path fill="rgb(243,241,226)" stroke="rgb(243,241,226)" stroke-width="1" opacity="1" d="M 32.5 68 L 30.5 71 L 32.5 68 Z " /><path fill="rgb(243,241,226)" stroke="rgb(243,241,226)" stroke-width="1" opacity="1" d="M 92.5 68 L 94.5 71 L 92.5 68 Z " /><path fill="rgb(243,241,226)" stroke="rgb(243,241,226)" stroke-width="1" opacity="1" d="M 26.5 72 L 25.5 74 L 26.5 72 Z " /><path fill="rgb(243,241,226)" stroke="rgb(243,241,226)" stroke-width="1" opacity="1" d="M 98.5 72 L 99.5 74 L 98.5 72 Z " /><path fill="rgb(243,241,226)" stroke="rgb(243,241,226)" stroke-width="1" opacity="1" d="M 38.5 74 L 37.5 76 L 38.5 74 Z " /><path fill="rgb(243,241,226)" stroke="rgb(243,241,226)" stroke-width="1" opacity="1" d="M 86.5 74 L 87.5 76 L 86.5 74 Z " /><path fill="rgb(243,241,226)" stroke="rgb(243,241,226)" stroke-width="1" opacity="1" d="M 23.5 75 L 24.5 77 L 23.5 75 Z " /><path fill="rgb(243,241,226)" stroke="rgb(243,241,226)" stroke-width="1" opacity="1" d="M 101.5 75 L 100.5 77 L 101.5 75 Z " /><path fill="rgb(243,241,226)" stroke="rgb(243,241,226)" stroke-width="1" opacity="1" d="M 24.5 79 L 27.5 83 L 24.5 79 Z " /><path fill="rgb(243,241,226)" stroke="rgb(243,241,226)" stroke-width="1" opacity="1" d="M 28.5 79 L 29 81 L 32.5 80 L 30.5 83 Q 26.9 81.9 28.5 79 Z " /><path fill="rgb(243,241,226)" stroke="rgb(243,241,226)" stroke-width="1" opacity="1" d="M 92.5 80 L 96 81.5 L 94.5 83 L 92.5 80 Z " /><path fill="rgb(243,241,226)" stroke="rgb(243,241,226)" stroke-width="1" opacity="1" d="M 99.5 80 L 97.5 83 L 99.5 80 Z " /><path fill="rgb(243,241,226)" stroke="rgb(243,241,226)" stroke-width="1" opacity="1" d="M 21.5 81 L 24 81.5 L 21.5 82 L 21.5 81 Z " /><path fill="rgb(243,241,226)" stroke="rgb(243,241,226)" stroke-width="1" opacity="1" d="M 101.5 81 L 104 81.5 L 101.5 82 L 101.5 81 Z " /><path fill="rgb(243,241,226)" stroke="rgb(243,241,226)" stroke-width="1" opacity="1" d="M 44.5 83 L 45 85.5 L 44 85.5 L 44.5 83 Z " /><path fill="rgb(243,241,226)" stroke="rgb(243,241,226)" stroke-width="1" opacity="1" d="M 80.5 83 L 81 85.5 L 80 85.5 L 80.5 83 Z " /><path fill="rgb(243,241,226)" stroke="rgb(243,241,226)" stroke-width="1" opacity="1" d="M 31.5 85 L 32.5 87 L 31.5 85 Z " /><path fill="rgb(243,241,226)" stroke="rgb(243,241,226)" stroke-width="1" opacity="1" d="M 97.5 86 L 98.5 88 L 97.5 86 Z " /><path fill="rgb(243,241,226)" stroke="rgb(243,241,226)" stroke-width="1" opacity="1" d="M 25.5 91 L 23.5 94 L 25.5 91 Z " /><path fill="rgb(243,241,226)" stroke="rgb(243,241,226)" stroke-width="1" opacity="1" d="M 99.5 91 L 100.5 93 L 99.5 91 Z " /><path fill="rgb(243,241,226)" stroke="rgb(243,241,226)" stroke-width="1" opacity="1" d="M 28.5 97 L 31 97.5 L 28.5 98 L 28.5 97 Z " /><path fill="rgb(243,241,226)" stroke="rgb(243,241,226)" stroke-width="1" opacity="1" d="M 60.5 97 L 58.5 100 L 60.5 97 Z " /><path fill="rgb(243,241,226)" stroke="rgb(243,241,226)" stroke-width="1" opacity="1" d="M 94.5 97 L 98 97.5 L 94.5 98 L 94.5 97 Z " /><path fill="rgb(243,241,226)" stroke="rgb(243,241,226)" stroke-width="1" opacity="1" d="M 65.5 98 L 66.5 100 L 65.5 98 Z " /><path fill="rgb(243,241,226)" stroke="rgb(243,241,226)" stroke-width="1" opacity="1" d="M 47.5 100 L 45.5 103 L 47.5 100 Z " /><path fill="rgb(243,241,226)" stroke="rgb(243,241,226)" stroke-width="1" opacity="1" d="M 77.5 100 L 79.5 103 L 77.5 100 Z " /><path fill="rgb(243,241,226)" stroke="rgb(243,241,226)" stroke-width="1" opacity="1" d="M 38.5 104 L 41 104.5 L 38.5 105 L 38.5 104 Z " /><path fill="rgb(246,246,240)" stroke="rgb(246,246,240)" stroke-width="1" opacity="1" d="M 121.5 2 Q 124.1 1.2 123 4.5 L 122 4.5 L 121.5 2 Z " /><path fill="rgb(246,246,240)" stroke="rgb(246,246,240)" stroke-width="1" opacity="1" d="M 120.5 4 L 119.5 6 L 120.5 4 Z " /><path fill="rgb(246,246,240)" stroke="rgb(246,246,240)" stroke-width="1" opacity="1" d="M 121.5 9 Q 123.8 8.3 123 10.5 L 121.5 9 Z " /><path fill="rgb(246,246,240)" stroke="rgb(246,246,240)" stroke-width="1" opacity="1" d="M 101.5 17 L 100.5 19 L 101.5 17 Z " /><path fill="rgb(246,246,240)" stroke="rgb(246,246,240)" stroke-width="1" opacity="1" d="M 114 18 Q 117 17 116 20 Q 113 21 114 18 Z " /><path fill="rgb(246,246,240)" stroke="rgb(246,246,240)" stroke-width="1" opacity="1" d="M 107 31 Q 110 30 109 33 Q 106 34 107 31 Z " /><path fill="rgb(246,246,240)" stroke="rgb(246,246,240)" stroke-width="1" opacity="1" d="M 120.5 37 L 123 37.5 L 120.5 38 L 120.5 37 Z " /><path fill="rgb(246,246,240)" stroke="rgb(246,246,240)" stroke-width="1" opacity="1" d="M 102.5 42 L 103 44.5 L 102 44.5 L 102.5 42 Z " /><path fill="rgb(246,246,240)" stroke="rgb(246,246,240)" stroke-width="1" opacity="1" d="M 98.5 54 L 103 54.5 L 98.5 55 L 98.5 54 Z " /><path fill="rgb(246,246,240)" stroke="rgb(246,246,240)" stroke-width="1" opacity="1" d="M 107.5 56 L 108.5 58 Q 105.7 58.7 107.5 56 Z " /><path fill="rgb(246,246,240)" stroke="rgb(246,246,240)" stroke-width="1" opacity="1" d="M 75.5 75 L 78 76.5 L 76.5 77 L 75.5 75 Z " /><path fill="rgb(246,246,240)" stroke="rgb(246,246,240)" stroke-width="1" opacity="1" d="M 90.5 77 L 91 79.5 L 90 79.5 L 90.5 77 Z " /><path fill="rgb(246,246,240)" stroke="rgb(246,246,240)" stroke-width="1" opacity="1" d="M 80.5 81 L 83 82.5 L 81.5 82 L 80.5 81 Z " /><path fill="rgb(246,246,240)" stroke="rgb(246,246,240)" stroke-width="1" opacity="1" d="M 66.5 90 L 65.5 92 L 66.5 90 Z " /><path fill="rgb(246,246,240)" stroke="rgb(246,246,240)" stroke-width="1" opacity="1" d="M 57.5 96 L 56.5 98 L 57.5 96 Z " /><path fill="rgb(246,246,240)" stroke="rgb(246,246,240)" stroke-width="1" opacity="1" d="M 67 96 Q 70 95 69 98 Q 66 99 67 96 Z " /><path fill="rgb(246,246,240)" stroke="rgb(246,246,240)" stroke-width="1" opacity="1" d="M 56.5 99 L 58 101.5 L 56 100.5 L 56.5 99 Z " /><path fill="rgb(221,184,80)" stroke="rgb(221,184,80)" stroke-width="1" opacity="1" d="M 8.5 21 L 11 26.5 Q 9.8 29.3 8.5 27 Q 6.3 27.8 7 25.5 L 6 22 L 8.5 21 Z " /><path fill="rgb(221,184,80)" stroke="rgb(221,184,80)" stroke-width="1" opacity="1" d="M 23.5 21 L 26 21.5 L 20.5 23 L 20.5 22 L 23.5 21 Z " /><path fill="rgb(221,184,80)" stroke="rgb(221,184,80)" stroke-width="1" opacity="1" d="M 60.5 21 L 62.5 22 L 65 21 L 65 32 L 60 32 L 60 33.5 L 59 33.5 L 59 22.5 L 60.5 21 Z " /><path fill="rgb(221,184,80)" stroke="rgb(221,184,80)" stroke-width="1" opacity="1" d="M 101.5 21 L 105 22.5 L 101 23 L 101.5 21 Z " /><path fill="rgb(221,184,80)" stroke="rgb(221,184,80)" stroke-width="1" opacity="1" d="M 117.5 21 Q 120.5 20.1 119 24.5 L 118 27 L 115.5 28 L 114 24.5 L 115 22 L 117.5 21 Z M 117 24 L 115 27 L 117 26 L 117 24 Z " /><path fill="rgb(221,184,80)" stroke="rgb(221,184,80)" stroke-width="1" opacity="1" d="M 18.5 26 L 24 27.5 Q 22.6 30.6 17.5 30 L 17.5 29 L 19 28.5 L 16.5 28 L 15 28.5 L 18.5 26 Z " /><path fill="rgb(221,184,80)" stroke="rgb(221,184,80)" stroke-width="1" opacity="1" d="M 103.5 26 Q 108.6 25.4 110 28.5 L 108.5 28 L 106 28.5 L 108 29.5 L 104.5 30 L 101 27.5 L 103.5 26 Z " /><path fill="rgb(221,184,80)" stroke="rgb(221,184,80)" stroke-width="1" opacity="1" d="M 2 29 L 8 32.5 L 6.5 32 L 2.5 33 L 2 29 Z " /><path fill="rgb(221,184,80)" stroke="rgb(221,184,80)" stroke-width="1" opacity="1" d="M 121.5 29 Q 124.5 28.2 123 32 L 117.5 33 L 119.5 30 L 121.5 29 Z " /><path fill="rgb(221,184,80)" stroke="rgb(221,184,80)" stroke-width="1" opacity="1" d="M 104.5 33 L 107 33.5 L 104.5 34 L 104.5 33 Z " /><path fill="rgb(221,184,80)" stroke="rgb(221,184,80)" stroke-width="1" opacity="1" d="M 65.5 34 L 66 42.5 L 65 42.5 L 65.5 34 Z " /><path fill="rgb(221,184,80)" stroke="rgb(221,184,80)" stroke-width="1" opacity="1" d="M 6.5 35 L 5.5 37 L 6.5 35 Z " /><path fill="rgb(221,184,80)" stroke="rgb(221,184,80)" stroke-width="1" opacity="1" d="M 108.5 44 L 110.5 47 L 108 46.5 L 108.5 44 Z " /><path fill="rgb(221,184,80)" stroke="rgb(221,184,80)" stroke-width="1" opacity="1" d="M 104.5 61 L 105.5 63 Q 102.7 63.7 104.5 61 Z " /><path fill="rgb(221,184,80)" stroke="rgb(221,184,80)" stroke-width="1" opacity="1" d="M 3.5 65 L 4.5 67 L 3.5 65 Z " /><path fill="rgb(221,184,80)" stroke="rgb(221,184,80)" stroke-width="1" opacity="1" d="M 121.5 65 L 120.5 67 L 121.5 65 Z " /><path fill="rgb(221,184,80)" stroke="rgb(221,184,80)" stroke-width="1" opacity="1" d="M 34.5 71 L 35 73.5 L 32.5 79 L 31.5 76 L 29.5 80 L 29 74.5 L 30 72 L 34 73 L 34.5 71 Z " /><path fill="rgb(221,184,80)" stroke="rgb(221,184,80)" stroke-width="1" opacity="1" d="M 90.5 71 L 91.5 73 L 95 72.5 L 96 79.5 L 94 78.5 L 93.5 76 L 92.5 79 L 90.5 71 Z " /><path fill="rgb(221,184,80)" stroke="rgb(221,184,80)" stroke-width="1" opacity="1" d="M 9.5 73 Q 17.1 71.9 20 75.5 L 14 76.5 L 19 77.5 Q 17.3 79.8 12.5 79 L 8 77 L 7 74.5 L 9.5 73 Z " /><path fill="rgb(221,184,80)" stroke="rgb(221,184,80)" stroke-width="1" opacity="1" d="M 108.5 73 Q 115.3 71.7 118 74.5 L 117 77 Q 114.7 79.6 108.5 79 L 106 77.5 L 111 76.5 L 105 75.5 L 108.5 73 Z " /><path fill="rgb(221,184,80)" stroke="rgb(221,184,80)" stroke-width="1" opacity="1" d="M 103.5 74 L 102.5 76 L 103.5 74 Z " /><path fill="rgb(221,184,80)" stroke="rgb(221,184,80)" stroke-width="1" opacity="1" d="M 39.5 75 Q 42.5 74.5 41 81.5 L 40 81.5 L 39.5 80 L 39 83 Q 35 84.4 37 77.5 L 39.5 75 Z " /><path fill="rgb(221,184,80)" stroke="rgb(221,184,80)" stroke-width="1" opacity="1" d="M 84 75 Q 87.8 73.5 87 76.5 Q 89.2 77.8 88 82.5 L 84 81.5 L 84 75 Z " /><path fill="rgb(221,184,80)" stroke="rgb(221,184,80)" stroke-width="1" opacity="1" d="M 47.5 78 L 50 83 L 45 82.5 L 47.5 78 Z " /><path fill="rgb(221,184,80)" stroke="rgb(221,184,80)" stroke-width="1" opacity="1" d="M 77.5 78 Q 80 79.2 79 83 L 75 83 L 75 81.5 L 77.5 78 Z " /><path fill="rgb(245,245,238)" stroke="rgb(245,245,238)" stroke-width="1" opacity="1" d="M 106.5 3 L 105.5 5 L 106.5 3 Z " /><path fill="rgb(245,245,238)" stroke="rgb(245,245,238)" stroke-width="1" opacity="1" d="M 102.5 10 L 103 11.5 L 101 12.5 L 102.5 10 Z " /><path fill="rgb(245,245,238)" stroke="rgb(245,245,238)" stroke-width="1" opacity="1" d="M 21.5 11 L 24 12.5 L 22.5 12 L 21 12.5 Q 23.3 13.8 20.5 15 L 20 12.5 L 21.5 11 Z " /><path fill="rgb(245,245,238)" stroke="rgb(245,245,238)" stroke-width="1" opacity="1" d="M 116.5 19 L 115.5 21 L 116.5 19 Z " /><path fill="rgb(245,245,238)" stroke="rgb(245,245,238)" stroke-width="1" opacity="1" d="M 109.5 20 L 108.5 22 L 109.5 20 Z " /><path fill="rgb(245,245,238)" stroke="rgb(245,245,238)" stroke-width="1" opacity="1" d="M 58.5 24 L 59 59.5 L 58 59.5 L 58.5 24 Z " /><path fill="rgb(245,245,238)" stroke="rgb(245,245,238)" stroke-width="1" opacity="1" d="M 111.5 29 L 110.5 31 L 111.5 29 Z " /><path fill="rgb(245,245,238)" stroke="rgb(245,245,238)" stroke-width="1" opacity="1" d="M 11.5 57 L 10.5 59 L 11.5 57 Z " /><path fill="rgb(245,245,238)" stroke="rgb(245,245,238)" stroke-width="1" opacity="1" d="M 49.5 67 L 75 67.5 L 49.5 68 L 49.5 67 Z " /><path fill="rgb(245,245,238)" stroke="rgb(245,245,238)" stroke-width="1" opacity="1" d="M 103.5 70 L 104 72.5 L 103 72.5 L 103.5 70 Z " /><path fill="rgb(245,245,238)" stroke="rgb(245,245,238)" stroke-width="1" opacity="1" d="M 25.5 77 L 27.5 80 L 25.5 77 Z " /><path fill="rgb(245,245,238)" stroke="rgb(245,245,238)" stroke-width="1" opacity="1" d="M 99.5 77 L 96.5 81 L 99.5 77 Z " /><path fill="rgb(245,245,238)" stroke="rgb(245,245,238)" stroke-width="1" opacity="1" d="M 28.5 83 L 29 85.5 L 28 85.5 L 28.5 83 Z " /><path fill="rgb(245,245,238)" stroke="rgb(245,245,238)" stroke-width="1" opacity="1" d="M 78.5 90 L 77.5 92 L 78.5 90 Z " /><path fill="rgb(245,247,239)" stroke="rgb(245,247,239)" stroke-width="1" opacity="1" d="M 84.5 23 Q 87.5 24.5 84.5 26 Q 81.5 24.5 84.5 23 Z " /><path fill="rgb(245,247,239)" stroke="rgb(245,247,239)" stroke-width="1" opacity="1" d="M 89 26 L 91 26.5 L 89 27.5 L 89 26 Z " /><path fill="rgb(245,247,239)" stroke="rgb(245,247,239)" stroke-width="1" opacity="1" d="M 79.5 31 L 80.5 33 L 79.5 31 Z " /><path fill="rgb(245,247,239)" stroke="rgb(245,247,239)" stroke-width="1" opacity="1" d="M 85.5 32 L 86 35.5 L 85 35.5 L 85.5 32 Z " /><path fill="rgb(245,247,239)" stroke="rgb(245,247,239)" stroke-width="1" opacity="1" d="M 78.5 33 L 79.5 35 L 78.5 33 Z " /><path fill="rgb(245,247,239)" stroke="rgb(245,247,239)" stroke-width="1" opacity="1" d="M 84.5 38 L 83.5 40 L 84.5 38 Z " /><path fill="rgb(245,247,239)" stroke="rgb(245,247,239)" stroke-width="1" opacity="1" d="M 77.5 42 L 79 45 L 74 46 L 74.5 44 Q 75.8 46.3 77 43.5 L 77.5 42 Z " /><path fill="rgb(245,247,239)" stroke="rgb(245,247,239)" stroke-width="1" opacity="1" d="M 74.5 49 L 75.5 51 L 73 50.5 L 74.5 49 Z " /><path fill="rgb(245,247,239)" stroke="rgb(245,247,239)" stroke-width="1" opacity="1" d="M 78.5 49 L 81 49.5 L 79.5 53 Q 77 52 78.5 49 Z " /><path fill="rgb(245,247,239)" stroke="rgb(245,247,239)" stroke-width="1" opacity="1" d="M 71.5 54 L 70.5 56 L 71.5 54 Z " /><path fill="rgb(245,247,239)" stroke="rgb(245,247,239)" stroke-width="1" opacity="1" d="M 79.5 55 L 80 57.5 L 79 57.5 L 79.5 55 Z " /><path fill="rgb(245,247,239)" stroke="rgb(245,247,239)" stroke-width="1" opacity="1" d="M 67.5 58 L 70 59.5 L 68.5 62 L 67.5 58 Z " /><path fill="rgb(245,247,239)" stroke="rgb(245,247,239)" stroke-width="1" opacity="1" d="M 67.5 72 L 68.5 74 Q 65.7 74.7 67.5 72 Z " /><path fill="rgb(245,247,239)" stroke="rgb(245,247,239)" stroke-width="1" opacity="1" d="M 56.5 85 L 57.5 87 L 56.5 85 Z " /><path fill="rgb(245,247,239)" stroke="rgb(245,247,239)" stroke-width="1" opacity="1" d="M 31.5 101 L 31 102.5 L 31.5 104 L 33.5 103 L 33.5 104 L 30.5 105 Q 27 103 31.5 101 Z " /><path fill="rgb(246,247,241)" stroke="rgb(246,247,241)" stroke-width="1" opacity="1" d="M 67.5 0 L 71.5 3 L 76 2 L 75.5 4 L 68.5 4 L 67 2.5 L 67.5 0 Z " /><path fill="rgb(246,247,241)" stroke="rgb(246,247,241)" stroke-width="1" opacity="1" d="M 83 0 L 85 0 L 85 6 L 83 6 L 83 0 Z " /><path fill="rgb(246,247,241)" stroke="rgb(246,247,241)" stroke-width="1" opacity="1" d="M 93.5 0 L 95.5 0 L 98.5 1 L 103.5 0 L 102.5 2 L 101 2.5 L 101.5 4 L 98.5 3 Q 93.7 1.3 95 5.5 L 91 10.5 L 95.5 12 L 94.5 9 L 98 10.5 L 97.5 13 L 94 14 L 95 17.5 L 94 20.5 L 94.5 22 L 92.5 21 L 93 22.5 L 92 24.5 L 92 26.5 Q 93.1 29.8 90.5 29 L 88 30 L 88 33 Q 91 31.8 90 35.5 L 89 38 L 97.5 38 L 98 36 L 99.5 36 L 102 34.5 L 101.5 39 L 98 38 Q 99.7 43.2 96 42 Q 97.3 39 93.5 40 L 93 42.5 L 92.5 45 L 89 42.5 L 90 39.5 L 88.5 38 Q 85.9 38.8 87 35.5 L 87 33.5 Q 87.7 30.9 85 32 L 84.5 34 L 83 33.5 L 83.5 37 L 85 36.5 L 84 38.5 L 86 39.5 Q 82.5 41 85 42.5 L 85.5 47 L 87.5 47 L 89 47.5 L 87.5 50 L 81.5 47 L 78 49.5 Q 78.7 52.1 76 51 Q 77.1 47.7 73 49 L 73 52 Q 75.7 50.9 75 53.5 L 74 59 Q 71.3 57.9 72 60.5 L 71.5 62 Q 74.1 62.7 73 60 L 76 60 L 76 58 L 78 58 Q 76.9 61.3 81 60 L 81.5 55 L 82.5 58 L 85 58.5 L 78 63.5 Q 79.3 68.3 76 67 L 76 63 Q 79.3 64.1 78 60 Q 75 59 76 62 L 73.5 62 L 70.5 64 L 68 62.5 L 69 60 L 72 58.5 L 71 55.5 Q 73.3 54.3 70.5 53 L 69 53.5 L 69 49 Q 66.3 50.1 67 47.5 L 66 43.5 L 67 38 Q 70 39 69 36 L 72.5 36 Q 75 34.8 74 31 L 79 32.5 L 76 33.5 L 78 34.5 L 77.5 38 L 80 38.5 L 79.5 40 L 84 39.5 L 81 39 L 80 35.5 Q 83.5 34 81 32.5 Q 81.7 29.5 78 31 L 78 26.5 L 80.5 26 Q 83.5 25.2 82 29 L 85 29 L 86.5 25 L 86.5 27 Q 89.1 27.8 88 24.5 L 90 20.5 L 88.5 20 L 87.5 23 L 83 22 Q 82 19 85 20 L 85 16 L 78 17 L 78 14 L 84.5 14 Q 86.3 17.1 88 15.5 L 88.5 17 L 90 11.5 L 87 11 L 87 9 L 91 9 Q 89.9 6.3 92.5 7 Q 95.5 5.5 92.5 4 L 90 5.5 L 89 3.5 L 93 2 L 93.5 0 Z M 89 26 L 90 29 L 91 27 L 89 26 Z M 82 29 Q 80 32 83 31 L 82 29 Z M 76 35 L 74 36 L 75 38 L 77 37 L 76 35 Z M 69 38 Q 68 41 71 40 Q 72 43 69 42 L 69 45 L 72 43 L 73 44 L 71 44 Q 69 49 75 47 L 77 47 L 79 46 L 78 40 L 69 38 Z " /><path fill="rgb(246,247,241)" stroke="rgb(246,247,241)" stroke-width="1" opacity="1" d="M 105 0 Q 107.7 -1.1 107 1.5 L 105 2.5 L 105 0 Z " /><path fill="rgb(246,247,241)" stroke="rgb(246,247,241)" stroke-width="1" opacity="1" d="M 121.5 3 L 123 5.5 L 120.5 6 L 121 4.5 L 121.5 3 Z " /><path fill="rgb(246,247,241)" stroke="rgb(246,247,241)" stroke-width="1" opacity="1" d="M 76 5 L 80 5.5 L 78 6 L 78 9 L 84.5 9 L 85 11 L 78.5 11 Q 79.3 14.3 74 13 Q 73.3 9.9 76 10.5 L 76 5 Z " /><path fill="rgb(246,247,241)" stroke="rgb(246,247,241)" stroke-width="1" opacity="1" d="M 64.5 7 L 66.5 7 L 73 7 L 73 10.5 L 72 10.5 Q 72.9 7.5 68.5 9 L 69.5 11 Q 72.1 10.3 71 13 L 68.5 12 L 65 13.5 L 67 14.5 L 64.5 15 L 62 14 L 61 11.5 L 63 11.5 Q 62.3 7.8 64.5 7 Z " /><path fill="rgb(246,247,241)" stroke="rgb(246,247,241)" stroke-width="1" opacity="1" d="M 103.5 7 L 104 9.5 L 102 8.5 L 103.5 7 Z " /><path fill="rgb(246,247,241)" stroke="rgb(246,247,241)" stroke-width="1" opacity="1" d="M 110.5 9 L 111 10.5 L 108.5 15 L 106 14.5 L 110.5 9 Z " /><path fill="rgb(246,247,241)" stroke="rgb(246,247,241)" stroke-width="1" opacity="1" d="M 67.5 16 L 71 16.5 L 67.5 17 L 67.5 16 Z " /><path fill="rgb(246,247,241)" stroke="rgb(246,247,241)" stroke-width="1" opacity="1" d="M 72 20 Q 80.8 18 83 23.5 L 81.5 24 Q 80.3 21 76 22 Q 77 25 74 24 L 72 20 Z " /><path fill="rgb(246,247,241)" stroke="rgb(246,247,241)" stroke-width="1" opacity="1" d="M 54.5 22 L 57 23.5 L 54 24 L 54.5 22 Z " /><path fill="rgb(246,247,241)" stroke="rgb(246,247,241)" stroke-width="1" opacity="1" d="M 105 23 Q 108 22 107 25 Q 104 26 105 23 Z " /><path fill="rgb(246,247,241)" stroke="rgb(246,247,241)" stroke-width="1" opacity="1" d="M 66.5 25 L 67 27 Q 70 26 69 29 L 73 29 L 73 31 L 69 33 Q 70.7 27.8 67 29 L 66.5 33 L 66.5 25 Z " /><path fill="rgb(246,247,241)" stroke="rgb(246,247,241)" stroke-width="1" opacity="1" d="M 56 27 L 58 27.5 L 58 29.5 Q 58.7 32.1 56 31 L 56 27 Z " /><path fill="rgb(246,247,241)" stroke="rgb(246,247,241)" stroke-width="1" opacity="1" d="M 74 27 Q 77 26 76 29 Q 73 30 74 27 Z " /><path fill="rgb(246,247,241)" stroke="rgb(246,247,241)" stroke-width="1" opacity="1" d="M 94.5 29 L 96.5 29 Q 99.1 28.3 98 31 Q 94.2 31.8 94.5 29 Z " /><path fill="rgb(246,247,241)" stroke="rgb(246,247,241)" stroke-width="1" opacity="1" d="M 115.5 31 L 116 32.5 L 114.5 35 L 114 32.5 L 115.5 31 Z " /><path fill="rgb(246,247,241)" stroke="rgb(246,247,241)" stroke-width="1" opacity="1" d="M 54.5 34 L 58 34.5 L 58 36.5 Q 58.7 39.1 56 38 L 54.5 34 Z " /><path fill="rgb(246,247,241)" stroke="rgb(246,247,241)" stroke-width="1" opacity="1" d="M 49.5 36 L 51.5 37 L 53 36.5 Q 53.9 39.9 48.5 38 L 49.5 36 Z " /><path fill="rgb(246,247,241)" stroke="rgb(246,247,241)" stroke-width="1" opacity="1" d="M 52.5 40 L 54.5 43 L 56 40 Q 59.7 38.8 58 44 Q 52.6 42.5 51 45.5 Q 51.9 48.9 46.5 47 L 47.5 49 L 53.5 49 Q 52.7 45.8 58 47 Q 59.1 50.3 55 49 L 55 54.5 L 58 56 L 58 58 L 52 58 L 54 52.5 Q 52.5 49.5 51 52.5 Q 52 56.3 49 55 Q 50 52 47 53 L 47 49 L 41.5 49 L 40.5 47 L 42.5 48 L 44 45 Q 46.7 46.1 46 43.5 L 47 43.5 Q 46.3 45.8 48.5 45 L 52.5 40 Z " /><path fill="rgb(246,247,241)" stroke="rgb(246,247,241)" stroke-width="1" opacity="1" d="M 103.5 44 L 107 46.5 L 104.5 48 Q 102 47 103.5 44 Z " /><path fill="rgb(246,247,241)" stroke="rgb(246,247,241)" stroke-width="1" opacity="1" d="M 94 45 L 96 45.5 L 94 46.5 L 94 45 Z " /><path fill="rgb(246,247,241)" stroke="rgb(246,247,241)" stroke-width="1" opacity="1" d="M 96 49 Q 99 48 98 51 Q 95 52 96 49 Z " /><path fill="rgb(246,247,241)" stroke="rgb(246,247,241)" stroke-width="1" opacity="1" d="M 114 50 Q 117 48.8 116 52.5 L 114 53.5 L 114 50 Z " /><path fill="rgb(246,247,241)" stroke="rgb(246,247,241)" stroke-width="1" opacity="1" d="M 39.5 52 L 40.5 54 L 41.5 52 L 42 58 Q 38.7 59.1 40 55 L 37.5 55 L 37.5 54 Q 40 54.7 39.5 52 Z " /><path fill="rgb(246,247,241)" stroke="rgb(246,247,241)" stroke-width="1" opacity="1" d="M 77.5 52 L 78 56 L 75.5 57 L 76 55.5 L 77.5 52 Z " /><path fill="rgb(246,247,241)" stroke="rgb(246,247,241)" stroke-width="1" opacity="1" d="M 66 55 L 69 56.5 L 67 59.5 L 66 59.5 L 66 55 Z " /><path fill="rgb(246,247,241)" stroke="rgb(246,247,241)" stroke-width="1" opacity="1" d="M 34 59 L 38 59.5 L 35 60 L 34.5 62 L 34 59 Z " /><path fill="rgb(246,247,241)" stroke="rgb(246,247,241)" stroke-width="1" opacity="1" d="M 40 60 Q 43 59 42 62 Q 39 63 40 60 Z " /><path fill="rgb(246,247,241)" stroke="rgb(246,247,241)" stroke-width="1" opacity="1" d="M 49 60 Q 52 59 51 62 Q 48 63 49 60 Z " /><path fill="rgb(246,247,241)" stroke="rgb(246,247,241)" stroke-width="1" opacity="1" d="M 56 60 Q 59 58.8 58 62.5 L 56 61.5 L 56 60 Z " /><path fill="rgb(246,247,241)" stroke="rgb(246,247,241)" stroke-width="1" opacity="1" d="M 87 60 Q 92.6 57.8 91 63.5 L 88.5 62 Q 85.9 62.7 87 60 Z " /><path fill="rgb(246,247,241)" stroke="rgb(246,247,241)" stroke-width="1" opacity="1" d="M 38.5 63 Q 41.1 62.3 40 65 L 42 65 L 42 67 L 38 69 L 38 67 Q 32.8 68.7 34 65 L 37.5 66 L 38.5 63 Z " /><path fill="rgb(246,247,241)" stroke="rgb(246,247,241)" stroke-width="1" opacity="1" d="M 43.5 63 L 49 63.5 L 43.5 64 L 43.5 63 Z " /><path fill="rgb(246,247,241)" stroke="rgb(246,247,241)" stroke-width="1" opacity="1" d="M 85 65 Q 88.7 63.8 87 69 Q 83.3 70.2 85 65 Z " /><path fill="rgb(246,247,241)" stroke="rgb(246,247,241)" stroke-width="1" opacity="1" d="M 103 65 Q 106 64 105 67 Q 102 68 103 65 Z " /><path fill="rgb(246,247,241)" stroke="rgb(246,247,241)" stroke-width="1" opacity="1" d="M 45 67 Q 51 65 49 71 L 40.5 73 L 40.5 72 L 43 70.5 Q 42.3 67.9 45 69 L 45 67 Z " /><path fill="rgb(246,247,241)" stroke="rgb(246,247,241)" stroke-width="1" opacity="1" d="M 54.5 68 L 61.5 69 Q 63 66.5 68.5 68 L 72 69 L 71.5 72 L 68.5 70 L 65.5 74 L 65 72.5 L 65.5 71 Q 62.5 70.2 64 74 L 61.5 74 L 61.5 75 Q 64.5 74.2 63 78 Q 60.3 76.9 61 79.5 Q 59 83.2 57 81.5 L 58 85.5 L 53 88.5 L 54 90.5 L 53.5 93 Q 49.2 91.3 52 89.5 L 53 84.5 L 49 78.5 L 50.5 78 L 53 79.5 L 52.5 81 L 56 80.5 L 55.5 78 Q 49.8 79.8 52 73.5 L 55 72 Q 53.9 74.7 56.5 74 Q 59 72.8 58 69 Q 53.6 70 54.5 68 Z M 62 71 L 60 73 Q 57 72 58 76 L 62 73 L 62 71 Z " /><path fill="rgb(246,247,241)" stroke="rgb(246,247,241)" stroke-width="1" opacity="1" d="M 79.5 68 L 80 71 L 76.5 72 L 76 69 L 79.5 68 Z " /><path fill="rgb(246,247,241)" stroke="rgb(246,247,241)" stroke-width="1" opacity="1" d="M 52.5 69 L 53.5 71 Q 50.7 71.7 52.5 69 Z " /><path fill="rgb(246,247,241)" stroke="rgb(246,247,241)" stroke-width="1" opacity="1" d="M 73.5 73 L 76 73.5 L 74.5 76 L 73 75.5 L 73.5 73 Z " /><path fill="rgb(246,247,241)" stroke="rgb(246,247,241)" stroke-width="1" opacity="1" d="M 23.5 74 Q 27.3 73 26 76 L 23.5 74 Z " /><path fill="rgb(246,247,241)" stroke="rgb(246,247,241)" stroke-width="1" opacity="1" d="M 36 74 L 38 74.5 L 36.5 77 L 36 74 Z " /><path fill="rgb(246,247,241)" stroke="rgb(246,247,241)" stroke-width="1" opacity="1" d="M 47 74 Q 50 73 49 76 L 46 77.5 Q 42.8 80.8 44 88.5 L 44.5 90 L 41 89 Q 40.3 85.6 43 84.5 L 43 78 L 45 78 L 47 74 Z " /><path fill="rgb(246,247,241)" stroke="rgb(246,247,241)" stroke-width="1" opacity="1" d="M 67.5 76 Q 68.8 79 73 78 Q 74.2 81.7 69 80 L 67.5 76 Z " /><path fill="rgb(246,247,241)" stroke="rgb(246,247,241)" stroke-width="1" opacity="1" d="M 19.5 78 L 22 78.5 Q 19.9 81.8 19.5 78 Z " /><path fill="rgb(246,247,241)" stroke="rgb(246,247,241)" stroke-width="1" opacity="1" d="M 65 78 L 67 78.5 L 65 79.5 L 65 78 Z " /><path fill="rgb(246,247,241)" stroke="rgb(246,247,241)" stroke-width="1" opacity="1" d="M 32.5 81 L 36 83 Q 37.1 85.7 34.5 85 L 31 82.5 L 32.5 81 Z " /><path fill="rgb(246,247,241)" stroke="rgb(246,247,241)" stroke-width="1" opacity="1" d="M 64 83 Q 68.1 81.7 67 85 L 71 85 L 71 87 L 67 89 Q 68 85.2 65.5 84 L 64 84.5 L 64 83 Z " /><path fill="rgb(246,247,241)" stroke="rgb(246,247,241)" stroke-width="1" opacity="1" d="M 9.5 85 L 10.5 87 Q 7.7 87.7 9.5 85 Z " /><path fill="rgb(246,247,241)" stroke="rgb(246,247,241)" stroke-width="1" opacity="1" d="M 13 87 Q 16 86 15 89 Q 12 90 13 87 Z " /><path fill="rgb(246,247,241)" stroke="rgb(246,247,241)" stroke-width="1" opacity="1" d="M 27 87 Q 30 86 29 89 Q 26 90 27 87 Z " /><path fill="rgb(246,247,241)" stroke="rgb(246,247,241)" stroke-width="1" opacity="1" d="M 58 87 L 63 87.5 L 61.5 90 L 59.5 89 L 58 89.5 L 58 87 Z " /><path fill="rgb(246,247,241)" stroke="rgb(246,247,241)" stroke-width="1" opacity="1" d="M 9.5 89 L 11 89 L 11 93 Q 7.7 91.9 9 96 L 13 94 L 13 96 L 15 96 L 15 98 Q 17.7 96.9 17 99.5 L 13 102 Q 14.7 96.8 11 98 Q 12.2 101.7 7 100 Q 8.1 97.3 5.5 98 L 5 95.5 Q 4.3 92.9 7 94 L 7 91.5 L 9.5 89 Z " /><path fill="rgb(246,247,241)" stroke="rgb(246,247,241)" stroke-width="1" opacity="1" d="M 22.5 89 Q 25.1 88.3 24 91 L 20 90.5 L 22.5 89 Z " /><path fill="rgb(246,247,241)" stroke="rgb(246,247,241)" stroke-width="1" opacity="1" d="M 65.5 90 L 67 93 L 62 92.5 Q 63.3 89.8 64.5 92 L 66 91.5 L 65.5 90 Z " /><path fill="rgb(246,247,241)" stroke="rgb(246,247,241)" stroke-width="1" opacity="1" d="M 43.5 93 L 46 93.5 L 40.5 95 L 40.5 94 L 43.5 93 Z " /><path fill="rgb(246,247,241)" stroke="rgb(246,247,241)" stroke-width="1" opacity="1" d="M 37.5 94 L 39 96.5 L 35 99.5 Q 33.1 104.9 36.5 104 L 36.5 105 L 32 104.5 L 34 103.5 Q 30.9 101.7 32.5 100 Q 30.3 99.3 31 101.5 L 29 105 Q 26 106 27 103 Q 30.3 104.1 29 100 L 24 101 Q 25.7 106.2 22 105 L 22 100 L 20 100 L 18 96 Q 21.1 95.3 20.5 98 L 32.5 98 L 37.5 94 Z " /><path fill="rgb(246,247,241)" stroke="rgb(246,247,241)" stroke-width="1" opacity="1" d="M 1.5 96 L 2 98.5 Q -0.3 99.8 2.5 101 L 6 101.5 L 0.5 102 L 0 99.5 L 1.5 96 Z " /><path fill="rgb(246,247,241)" stroke="rgb(246,247,241)" stroke-width="1" opacity="1" d="M 50.5 96 L 51 97.5 L 49 98.5 L 50.5 96 Z " /><path fill="rgb(246,247,241)" stroke="rgb(246,247,241)" stroke-width="1" opacity="1" d="M 56.5 96 Q 58.8 96.8 58 100.5 Q 56.8 103 53 102 L 54.5 98 L 57 97.5 L 56.5 96 Z " /><path fill="rgb(246,247,241)" stroke="rgb(246,247,241)" stroke-width="1" opacity="1" d="M 9 103 Q 14.2 101.3 13 105 Q 7.8 106.7 9 103 Z " /><path fill="rgb(246,247,241)" stroke="rgb(246,247,241)" stroke-width="1" opacity="1" d="M 18 103 Q 21 102 20 105 Q 17 106 18 103 Z " /><path fill="rgb(246,247,241)" stroke="rgb(246,247,241)" stroke-width="1" opacity="1" d="M 42.5 104 L 45 104.5 L 42.5 105 L 42.5 104 Z " /><path fill="rgb(245,246,241)" stroke="rgb(245,246,241)" stroke-width="1" opacity="1" d="M 118.5 0 L 126 0 L 126 8.5 L 125 10.5 L 126 15.5 L 126 17.5 L 125 21.5 L 126 24.5 L 126 26.5 L 126 39 L 121.5 39 L 120 39.5 Q 119.2 36.9 122.5 38 L 122.5 37 L 121 36.5 L 125 31.5 L 122.5 28 L 120.5 29 L 119.5 27 L 116.5 32 L 115.5 30 L 113 31 Q 111.7 27.7 116.5 29 Q 120.9 26.9 121 20.5 Q 119.2 16.3 117.5 19 L 115 17.5 L 116 12.5 L 114 8.5 L 114.5 7 L 115.5 9 L 116 6.5 L 115.5 5 L 118 4.5 L 117 1.5 L 118.5 0 Z M 121 2 L 121 4 L 119 7 L 121 6 L 123 7 L 123 6 L 123 4 Q 124 1 121 2 Z M 121 9 Q 120 12 123 11 Q 124 8 121 9 Z " /><path fill="rgb(245,246,241)" stroke="rgb(245,246,241)" stroke-width="1" opacity="1" d="M 113.5 19 Q 116.3 20.3 114 21.5 L 112.5 26 L 110 21.5 L 113.5 19 Z " /><path fill="rgb(245,246,241)" stroke="rgb(245,246,241)" stroke-width="1" opacity="1" d="M 102.5 24 L 101.5 26 L 100 25.5 L 102.5 24 Z " /><path fill="rgb(245,246,241)" stroke="rgb(245,246,241)" stroke-width="1" opacity="1" d="M 99.5 27 L 100.5 29 L 98 28.5 L 99.5 27 Z " /><path fill="rgb(245,246,241)" stroke="rgb(245,246,241)" stroke-width="1" opacity="1" d="M 111.5 30 L 113 35.5 L 111 34.5 L 110 31.5 L 111.5 30 Z " /><path fill="rgb(245,246,241)" stroke="rgb(245,246,241)" stroke-width="1" opacity="1" d="M 101.5 31 L 103 31.5 L 100.5 33 L 101.5 31 Z " /><path fill="rgb(245,246,241)" stroke="rgb(245,246,241)" stroke-width="1" opacity="1" d="M 105 31 Q 108 30 107 33 Q 104 34 105 31 Z " /><path fill="rgb(245,246,241)" stroke="rgb(245,246,241)" stroke-width="1" opacity="1" d="M 102.5 37 L 107.5 39 L 111.5 39 L 113 38.5 L 112 40.5 L 113 43.5 L 108.5 40 L 104 40 Q 105.1 37.3 102.5 38 L 102.5 37 Z " /><path fill="rgb(245,246,241)" stroke="rgb(245,246,241)" stroke-width="1" opacity="1" d="M 117.5 38 Q 120.1 37.2 119 40.5 L 115 43.5 L 116 40.5 L 115.5 39 L 117.5 38 Z " /><path fill="rgb(245,246,241)" stroke="rgb(245,246,241)" stroke-width="1" opacity="1" d="M 99.5 39 L 98.5 41 L 99.5 39 Z " /><path fill="rgb(245,246,241)" stroke="rgb(245,246,241)" stroke-width="1" opacity="1" d="M 99.5 43 L 101 43 L 101 45 Q 103.7 43.9 103 46.5 L 101 49.5 L 103 54 L 98 54.5 L 99 59.5 L 103 64.5 L 101 65 L 99.5 62 L 97.5 62 L 95 63.5 L 94 67 Q 97 65.8 96 69.5 L 99.5 74 L 102 74.5 L 97 78.5 L 97 73.5 L 94 69.5 L 94 67 Q 90.2 66 89 68.5 L 90 69.5 L 90 80 L 94 82.5 L 89.5 86 L 89 84.5 L 90 81.5 L 88 75.5 L 85.5 73 L 84 73.5 L 83.5 70 Q 82.3 72.3 81 69.5 L 83 69.5 Q 82 65.8 85 67 L 86.5 70 L 88 65.5 L 86 64.5 L 88.5 63 L 91.5 65 L 93 61.5 L 91 61.5 L 94 57.5 L 93.5 56 Q 97.7 57.3 96 52.5 L 95 50.5 L 98 51.5 L 97 48.5 L 99 48 L 100 45.5 L 98 44.5 L 99.5 43 Z " /><path fill="rgb(245,246,241)" stroke="rgb(245,246,241)" stroke-width="1" opacity="1" d="M 125.5 43 L 126 48.5 L 125.5 51 L 121.5 49 L 116 52 L 115 48.5 Q 122.5 49 125 44.5 L 125.5 43 Z " /><path fill="rgb(245,246,241)" stroke="rgb(245,246,241)" stroke-width="1" opacity="1" d="M 92.5 45 Q 94.8 44.3 94 46.5 L 92.5 45 Z " /><path fill="rgb(245,246,241)" stroke="rgb(245,246,241)" stroke-width="1" opacity="1" d="M 105.5 47 L 111.5 48 L 113 47.5 L 111.5 54 L 108.5 49 Q 104.8 48.7 105.5 47 Z " /><path fill="rgb(245,246,241)" stroke="rgb(245,246,241)" stroke-width="1" opacity="1" d="M 88.5 52 L 89 54 L 91 54.5 L 88 55 L 88.5 52 Z " /><path fill="rgb(245,246,241)" stroke="rgb(245,246,241)" stroke-width="1" opacity="1" d="M 125.5 53 L 126 105 L 88 104.5 L 90 104 Q 91 97.6 85.5 96 L 80 93.5 L 86.5 90 L 87 92.5 L 89.5 96 L 97.5 98 L 102 95.5 Q 102.5 90.5 98.5 90 L 92.5 88 L 90.5 89 L 91.5 87 L 95.5 85 Q 98.2 90.8 108.5 89 Q 115.5 85.5 108.5 82 L 101.5 81 L 99.5 82 L 100.5 80 Q 102.8 80.8 102 78.5 L 103.5 76 L 104 78 Q 106.3 80.6 112.5 80 L 119 75.5 L 116.5 72 Q 109.7 70.7 106.5 73 L 107 71.5 L 109.5 67 L 115.5 70 L 123 65.5 Q 124.5 61.1 121.5 62 L 114.5 60 L 113.5 63 L 110.5 65 L 111 63.5 L 113.5 58 Q 114.8 60.3 119.5 59 L 125 54.5 L 125.5 53 Z " /><path fill="rgb(245,246,241)" stroke="rgb(245,246,241)" stroke-width="1" opacity="1" d="M 83.5 54 L 84 56.5 L 83 56.5 L 83.5 54 Z " /><path fill="rgb(245,246,241)" stroke="rgb(245,246,241)" stroke-width="1" opacity="1" d="M 105.5 55 L 107 58 L 110.5 57 L 110 58.5 L 108.5 64 L 105.5 55 Z " /><path fill="rgb(245,246,241)" stroke="rgb(245,246,241)" stroke-width="1" opacity="1" d="M 86.5 56 L 87 59 L 85 58.5 L 86.5 56 Z " /><path fill="rgb(245,246,241)" stroke="rgb(245,246,241)" stroke-width="1" opacity="1" d="M 82 61 L 85 62.5 Q 83.3 60.9 81.5 64 Q 79.3 64.8 80 62.5 L 82 62.5 L 82 61 Z " /><path fill="rgb(245,246,241)" stroke="rgb(245,246,241)" stroke-width="1" opacity="1" d="M 102.5 66 L 107 67.5 L 103 69 L 102.5 66 Z " /><path fill="rgb(245,246,241)" stroke="rgb(245,246,241)" stroke-width="1" opacity="1" d="M 82.5 74 L 83 77.5 L 81.5 81 L 80 78 L 82 77.5 L 79 75.5 L 80.5 76 Q 83 76.7 82.5 74 Z " /><path fill="rgb(245,246,241)" stroke="rgb(245,246,241)" stroke-width="1" opacity="1" d="M 71.5 80 L 73 82.5 L 71 81.5 L 71.5 80 Z " /><path fill="rgb(245,246,241)" stroke="rgb(245,246,241)" stroke-width="1" opacity="1" d="M 81.5 82 L 84 89 L 79.5 91 L 79 89.5 L 82 83.5 L 81.5 82 Z " /><path fill="rgb(245,246,241)" stroke="rgb(245,246,241)" stroke-width="1" opacity="1" d="M 67.5 84 L 66.5 86 L 67.5 84 Z " /><path fill="rgb(245,246,241)" stroke="rgb(245,246,241)" stroke-width="1" opacity="1" d="M 72.5 87 L 74 91.5 L 71.5 93 L 69.5 93 L 66.5 94 L 66.5 93 L 70 91.5 L 69.5 90 L 71 90.5 L 72.5 87 Z " /><path fill="rgb(245,246,241)" stroke="rgb(245,246,241)" stroke-width="1" opacity="1" d="M 72.5 95 Q 75.8 93.9 75 96.5 L 76 98.5 Q 73.8 99.8 76.5 101 L 83 104.5 L 62.5 105 L 59 103.5 L 59.5 102 L 60.5 104 L 62.5 101 L 67 102 Q 67.8 98.6 65 97.5 L 66.5 97 L 69 98 Q 67.8 95 71.5 96 L 72.5 95 Z M 75 100 Q 73 103 76 102 L 75 100 Z " /><path fill="rgb(245,246,241)" stroke="rgb(245,246,241)" stroke-width="1" opacity="1" d="M 50.5 100 L 51.5 102 L 50.5 100 Z " /><path fill="rgb(245,246,241)" stroke="rgb(245,246,241)" stroke-width="1" opacity="1" d="M 50.5 103 L 51.5 105 L 48 104.5 L 50.5 103 Z " /><path fill="rgb(238,226,188)" stroke="rgb(238,226,188)" stroke-width="1" opacity="1" d="M 25.5 4 L 24.5 6 L 25.5 4 Z " /><path fill="rgb(238,226,188)" stroke="rgb(238,226,188)" stroke-width="1" opacity="1" d="M 99.5 4 L 100.5 6 L 99.5 4 Z " /><path fill="rgb(238,226,188)" stroke="rgb(238,226,188)" stroke-width="1" opacity="1" d="M 15.5 6 L 16 8.5 L 15 8.5 L 15.5 6 Z " /><path fill="rgb(238,226,188)" stroke="rgb(238,226,188)" stroke-width="1" opacity="1" d="M 109.5 6 L 110 8.5 L 109 8.5 L 109.5 6 Z " /><path fill="rgb(238,226,188)" stroke="rgb(238,226,188)" stroke-width="1" opacity="1" d="M 20.5 7 L 21 11.5 L 20 11.5 L 20.5 7 Z " /><path fill="rgb(238,226,188)" stroke="rgb(238,226,188)" stroke-width="1" opacity="1" d="M 29.5 7 L 27.5 10 L 29.5 7 Z " /><path fill="rgb(238,226,188)" stroke="rgb(238,226,188)" stroke-width="1" opacity="1" d="M 95.5 7 L 97.5 10 L 95.5 7 Z " /><path fill="rgb(238,226,188)" stroke="rgb(238,226,188)" stroke-width="1" opacity="1" d="M 101.5 7 L 100.5 9 L 101.5 7 Z " /><path fill="rgb(238,226,188)" stroke="rgb(238,226,188)" stroke-width="1" opacity="1" d="M 104.5 7 L 105 11.5 L 104 11.5 L 104.5 7 Z " /><path fill="rgb(238,226,188)" stroke="rgb(238,226,188)" stroke-width="1" opacity="1" d="M 11.5 10 L 10.5 12 L 11.5 10 Z " /><path fill="rgb(238,226,188)" stroke="rgb(238,226,188)" stroke-width="1" opacity="1" d="M 113.5 10 L 114.5 12 L 113.5 10 Z " /><path fill="rgb(238,226,188)" stroke="rgb(238,226,188)" stroke-width="1" opacity="1" d="M 29.5 14 L 30.5 16 L 29.5 14 Z " /><path fill="rgb(238,226,188)" stroke="rgb(238,226,188)" stroke-width="1" opacity="1" d="M 95.5 14 L 94.5 16 L 95.5 14 Z " /><path fill="rgb(238,226,188)" stroke="rgb(238,226,188)" stroke-width="1" opacity="1" d="M 11.5 18 L 12.5 20 L 11.5 18 Z " /><path fill="rgb(238,226,188)" stroke="rgb(238,226,188)" stroke-width="1" opacity="1" d="M 17.5 18 Q 20.3 19.2 18 20.5 L 17.5 22 L 16 21.5 L 14 27.5 L 15 30 L 20 30.5 L 15.5 31 L 13 29.5 L 11.5 36 L 11 32.5 L 15 21.5 Q 12.8 20.3 15.5 19 L 17.5 20 L 17.5 18 Z " /><path fill="rgb(238,226,188)" stroke="rgb(238,226,188)" stroke-width="1" opacity="1" d="M 113.5 18 L 112.5 20 L 113.5 18 Z " /><path fill="rgb(238,226,188)" stroke="rgb(238,226,188)" stroke-width="1" opacity="1" d="M 106.5 19 L 108 21.5 L 107 21.5 L 106.5 19 Z " /><path fill="rgb(238,226,188)" stroke="rgb(238,226,188)" stroke-width="1" opacity="1" d="M 52.5 21 L 55 21.5 L 52.5 22 L 52.5 21 Z " /><path fill="rgb(238,226,188)" stroke="rgb(238,226,188)" stroke-width="1" opacity="1" d="M 109.5 21 L 111 24.5 L 110 24.5 L 109.5 21 Z " /><path fill="rgb(238,226,188)" stroke="rgb(238,226,188)" stroke-width="1" opacity="1" d="M 23.5 26 L 24.5 28 L 23.5 26 Z " /><path fill="rgb(238,226,188)" stroke="rgb(238,226,188)" stroke-width="1" opacity="1" d="M 111.5 26 L 114 32.5 L 115 47.5 L 113 46.5 L 112.5 38 L 111 38.5 Q 113.8 37.8 113 33.5 L 111.5 29 L 110 29.5 L 111.5 26 Z " /><path fill="rgb(238,226,188)" stroke="rgb(238,226,188)" stroke-width="1" opacity="1" d="M 122.5 28 Q 124.8 28.8 124 32.5 L 123 32.5 L 122.5 28 Z " /><path fill="rgb(238,226,188)" stroke="rgb(238,226,188)" stroke-width="1" opacity="1" d="M 1.5 30 L 2 32.5 L 1 32.5 L 1.5 30 Z " /><path fill="rgb(238,226,188)" stroke="rgb(238,226,188)" stroke-width="1" opacity="1" d="M 6.5 30 L 8.5 33 L 6.5 30 Z " /><path fill="rgb(238,226,188)" stroke="rgb(238,226,188)" stroke-width="1" opacity="1" d="M 105.5 30 L 109 30.5 L 105.5 31 L 105.5 30 Z " /><path fill="rgb(238,226,188)" stroke="rgb(238,226,188)" stroke-width="1" opacity="1" d="M 12.5 37 L 13.5 39 L 12 38.5 Q 13.3 45.3 10.5 48 L 10 39.5 L 12.5 37 Z " /><path fill="rgb(238,226,188)" stroke="rgb(238,226,188)" stroke-width="1" opacity="1" d="M 21.5 43 L 20.5 45 L 21.5 43 Z " /><path fill="rgb(238,226,188)" stroke="rgb(238,226,188)" stroke-width="1" opacity="1" d="M 103.5 43 L 104.5 45 L 103.5 43 Z " /><path fill="rgb(238,226,188)" stroke="rgb(238,226,188)" stroke-width="1" opacity="1" d="M 1.5 45 L 2.5 47 L 1.5 45 Z " /><path fill="rgb(238,226,188)" stroke="rgb(238,226,188)" stroke-width="1" opacity="1" d="M 12.5 52 L 12 53.5 Q 12.8 55.8 10.5 55 L 9.5 53 Q 11 55.5 12.5 52 Z " /><path fill="rgb(238,226,188)" stroke="rgb(238,226,188)" stroke-width="1" opacity="1" d="M 112.5 52 Q 114.2 55.1 116 53.5 L 113 55 L 112.5 52 Z " /><path fill="rgb(238,226,188)" stroke="rgb(238,226,188)" stroke-width="1" opacity="1" d="M 1.5 55 L 2.5 57 L 1.5 55 Z " /><path fill="rgb(238,226,188)" stroke="rgb(238,226,188)" stroke-width="1" opacity="1" d="M 123.5 55 L 122.5 57 L 123.5 55 Z " /><path fill="rgb(238,226,188)" stroke="rgb(238,226,188)" stroke-width="1" opacity="1" d="M 111.5 56 L 114 56.5 Q 111.9 59.8 111.5 56 Z " /><path fill="rgb(238,226,188)" stroke="rgb(238,226,188)" stroke-width="1" opacity="1" d="M 6.5 58 L 10 58.5 L 6.5 59 L 6.5 58 Z " /><path fill="rgb(238,226,188)" stroke="rgb(238,226,188)" stroke-width="1" opacity="1" d="M 115.5 58 L 119 58.5 L 115.5 59 L 115.5 58 Z " /><path fill="rgb(238,226,188)" stroke="rgb(238,226,188)" stroke-width="1" opacity="1" d="M 15.5 62 L 14.5 65 L 16 65.5 L 14.5 66 Q 11 64 15.5 62 Z " /><path fill="rgb(238,226,188)" stroke="rgb(238,226,188)" stroke-width="1" opacity="1" d="M 109.5 62 Q 114 64 110.5 66 L 109 65.5 L 111 64.5 L 109.5 62 Z " /><path fill="rgb(238,226,188)" stroke="rgb(238,226,188)" stroke-width="1" opacity="1" d="M 18.5 68 L 17.5 70 L 18.5 68 Z " /><path fill="rgb(238,226,188)" stroke="rgb(238,226,188)" stroke-width="1" opacity="1" d="M 33.5 68 L 34.5 70 L 33.5 68 Z " /><path fill="rgb(238,226,188)" stroke="rgb(238,226,188)" stroke-width="1" opacity="1" d="M 91.5 68 L 90.5 70 L 91.5 68 Z " /><path fill="rgb(238,226,188)" stroke="rgb(238,226,188)" stroke-width="1" opacity="1" d="M 106.5 68 L 107.5 70 L 106.5 68 Z " /><path fill="rgb(238,226,188)" stroke="rgb(238,226,188)" stroke-width="1" opacity="1" d="M 23.5 73 L 22.5 77 L 20.5 76 L 18.5 77 L 18.5 76 L 20 75.5 L 19.5 74 L 21.5 75 L 23.5 73 Z " /><path fill="rgb(238,226,188)" stroke="rgb(238,226,188)" stroke-width="1" opacity="1" d="M 101.5 73 L 104.5 75 L 106 74.5 L 105.5 77 L 101.5 73 Z " /><path fill="rgb(238,226,188)" stroke="rgb(238,226,188)" stroke-width="1" opacity="1" d="M 7.5 76 L 8.5 78 L 7.5 76 Z " /><path fill="rgb(238,226,188)" stroke="rgb(238,226,188)" stroke-width="1" opacity="1" d="M 13.5 79 L 16 79.5 L 13.5 80 L 13.5 79 Z " /><path fill="rgb(238,226,188)" stroke="rgb(238,226,188)" stroke-width="1" opacity="1" d="M 109.5 79 L 112 79.5 L 109.5 80 L 109.5 79 Z " /><path fill="rgb(238,226,188)" stroke="rgb(238,226,188)" stroke-width="1" opacity="1" d="M 31.5 83 L 30.5 85 L 31.5 83 Z " /><path fill="rgb(238,226,188)" stroke="rgb(238,226,188)" stroke-width="1" opacity="1" d="M 93.5 83 Q 96.5 84.5 93.5 86 L 93.5 83 Z " /><path fill="rgb(238,226,188)" stroke="rgb(238,226,188)" stroke-width="1" opacity="1" d="M 39.5 85 L 40 88.5 L 38.5 88 Q 36.3 88.8 37 86.5 L 39 86.5 L 39.5 85 Z " /><path fill="rgb(238,226,188)" stroke="rgb(238,226,188)" stroke-width="1" opacity="1" d="M 85.5 85 L 86.5 87 L 88 86.5 Q 88.8 88.8 86.5 88 L 85 88.5 L 85.5 85 Z " /><path fill="rgb(238,226,188)" stroke="rgb(238,226,188)" stroke-width="1" opacity="1" d="M 14.5 86 L 15.5 88 L 14.5 86 Z " /><path fill="rgb(238,226,188)" stroke="rgb(238,226,188)" stroke-width="1" opacity="1" d="M 35.5 86 L 34.5 88 L 35.5 86 Z " /><path fill="rgb(238,226,188)" stroke="rgb(238,226,188)" stroke-width="1" opacity="1" d="M 110.5 86 L 109.5 88 L 110.5 86 Z " /><path fill="rgb(238,226,188)" stroke="rgb(238,226,188)" stroke-width="1" opacity="1" d="M 36.5 89 L 38 92.5 L 36 91.5 L 36.5 89 Z " /><path fill="rgb(238,226,188)" stroke="rgb(238,226,188)" stroke-width="1" opacity="1" d="M 49.5 89 Q 52.3 90.3 50 91.5 L 49.5 93 Q 46.8 91.8 49 90.5 L 49.5 89 Z " /><path fill="rgb(238,226,188)" stroke="rgb(238,226,188)" stroke-width="1" opacity="1" d="M 75.5 89 L 77 91.5 L 75 92.5 L 74 90.5 L 75.5 89 Z " /><path fill="rgb(238,226,188)" stroke="rgb(238,226,188)" stroke-width="1" opacity="1" d="M 88.5 89 L 89 91.5 L 87.5 93 L 87 90.5 L 88.5 89 Z " /><path fill="rgb(238,226,188)" stroke="rgb(238,226,188)" stroke-width="1" opacity="1" d="M 47.5 93 L 49 95.5 L 46 97.5 L 47.5 95 L 44 94.5 L 47.5 93 Z " /><path fill="rgb(238,226,188)" stroke="rgb(238,226,188)" stroke-width="1" opacity="1" d="M 77.5 93 L 81 94.5 L 76.5 96 L 77 94.5 L 77.5 93 Z " /><path fill="rgb(238,226,188)" stroke="rgb(238,226,188)" stroke-width="1" opacity="1" d="M 38.5 97 L 36.5 100 L 38.5 97 Z " /><path fill="rgb(238,226,188)" stroke="rgb(238,226,188)" stroke-width="1" opacity="1" d="M 86.5 97 L 88.5 100 L 86.5 97 Z " /><path fill="rgb(238,226,188)" stroke="rgb(238,226,188)" stroke-width="1" opacity="1" d="M 61.5 99 L 59.5 102 L 58.5 100 Q 60 102.5 61.5 99 Z " /><path fill="rgb(238,226,188)" stroke="rgb(238,226,188)" stroke-width="1" opacity="1" d="M 63.5 99 Q 65.2 102.1 67 100.5 L 65.5 102 L 63.5 99 Z " /><path fill="rgb(246,247,240)" stroke="rgb(246,247,240)" stroke-width="1" opacity="1" d="M 0 0 L 66.5 0 L 69 2.5 L 68.5 4 L 75.5 4 L 76 2 L 71.5 3 L 69.5 0 L 83 0 L 83 6 L 85 6 L 85 0 L 93 0 Q 94.3 3 90.5 2 Q 87.8 3.3 90 4.5 L 90.5 6 Q 92.3 2.3 94 5.5 L 91 7.5 L 91 9 L 87 9 L 87 11 L 90 11.5 L 88.5 16 L 87.5 14 L 86.5 16 Q 84.6 12.2 78 14 Q 76.2 18.9 82.5 17 L 85 16 L 85 20 Q 82 19 83 22 Q 87.5 22.8 89.5 20 L 89.5 21 L 88 21.5 L 89 23.5 L 88 27 L 85.5 26 L 85 29 Q 81.3 27.5 82 30.5 Q 78.5 32 81 33.5 L 80 36.5 L 80.5 38 L 78 38 L 78 34 L 76.5 34 L 76.5 33 L 78.5 34 L 79 32 L 74 31 L 73 35.5 L 74.5 36 L 76 35.5 L 74.5 38 Q 73.3 35 69 36 Q 67.7 39.3 72.5 38 Q 73.8 41 78 40 L 75.5 45 L 74 44.5 L 75 46.5 L 71 47 L 70.5 44 L 69 44.5 L 69 42 Q 72 43 71 40 L 67 38 L 66.5 43 L 66 33.5 L 67 29 Q 70 30 69 27 Q 66.3 28.1 67 25.5 L 66 22.5 L 67 20.5 L 66 15.5 L 66.5 14 L 65 13.5 L 68 12.5 L 67 10.5 Q 68.2 8 72 9 L 72.5 11 L 73 7 L 66.5 7 L 65 8.5 L 65.5 10 L 63 8.5 L 64 12.5 L 62 12.5 Q 61.3 14.8 63.5 14 L 62.5 16 L 50 18 L 50 22 L 54 22 Q 52.8 25 56.5 24 L 56.5 23 L 55 22.5 L 56.5 22 Q 59 23.2 58 27 Q 54.3 25.8 56 31 Q 59.3 29.9 58 34 L 54 34.5 L 56 38 Q 59 37 58 40 Q 55.3 38.9 56 41.5 Q 54.5 44.5 53 41.5 L 52.5 40 L 48.5 45 Q 46.3 45.8 47 43.5 L 46 43.5 L 44 46.5 L 41 48.5 L 46.5 49 L 46.5 47 Q 51.9 48.9 51 45.5 Q 52.6 42.5 58 44 L 58 47 Q 52.8 45.3 54 49 L 47 49 L 47 53 L 51 55 L 52.5 51 L 54 54.5 L 52 58 L 58 58 L 58 60 Q 55.3 58.9 56 61.5 Q 58.3 62.8 55.5 64 L 52.5 63 L 49 64 L 49 67 L 45 67 L 45 69 Q 42.3 67.9 43 70.5 L 40 72.5 L 43.5 73 Q 44.8 70 49 71 Q 47.2 66.1 53.5 68 L 58 69 L 58 73 L 59.5 73 L 61.5 72 L 59.5 75 Q 57.3 75.8 58 73.5 Q 56.3 75.1 54.5 72 L 52 73.5 L 53 78.5 L 51.5 79 L 45 76 Q 46.1 79.3 42 78 L 40.5 74 L 36 74 L 36 80.5 L 34.5 83 L 33 80.5 L 36 71.5 L 33.5 68 L 29 71.5 L 27 77.5 L 27.5 79 Q 23.3 77.3 26 75.5 L 31 65.5 L 28.5 62 Q 23.5 61.5 23 65.5 L 20.5 71 L 18 66 L 24 62.5 L 26 55 Q 19.5 54.8 17 59.5 L 16.5 64 L 14 57 L 22 54 L 24 49.5 L 23 47 Q 17.7 46.4 15 50.5 L 13.5 54 L 12 48 Q 20.2 48.4 23 42.5 L 23 40 L 17.5 40 L 12.5 44 L 12 38.5 L 13.5 39 Q 20.7 39.7 23 35.5 L 22.5 33 L 15.5 33 L 12 35.5 L 13.5 30 Q 15.3 32.8 21.5 31 L 25 26 Q 22.9 24.4 17.5 25 L 15 26 L 16.5 22 Q 18.2 24.8 23.5 24 L 27 23 L 25.5 19 L 19.5 18 L 18 18.5 L 20.5 15 L 22.5 17 L 27.5 18 L 31 17 L 28.5 13 L 23 12 L 22.5 10 L 21 10.5 Q 21.8 4.7 18.5 3 Q 15.2 1.9 16 4.5 L 15 9.5 L 19 14.5 L 16.5 18 Q 16.4 12.1 12.5 10 Q 9.2 8.9 10 11.5 L 9 15.5 L 11 20 L 15 21.5 L 12.5 26 L 8.5 19 L 6.5 18 Q 3.5 18.5 4 22.5 L 8.5 29 Q 12.9 27.5 12 30.5 L 10.5 36 L 10 33.5 L 4.5 28 L 1 29.5 L 1 33.5 L 5.5 38 L 10 39 L 9.5 45 L 5.5 40 L 0 39 L 0 0 Z M 27 3 L 23 7 Q 22 10 25 11 Q 30 12 30 8 Q 32 1 27 3 Z M 76 5 L 76 11 Q 73 10 74 13 Q 79 14 79 11 L 85 11 L 85 9 L 78 9 L 78 6 L 80 6 L 76 5 Z M 69 10 L 70 13 Q 72 14 71 11 L 69 10 Z M 68 16 L 68 17 L 71 17 L 68 16 Z M 72 20 L 74 24 Q 77 25 76 22 Q 80 21 82 24 L 83 24 Q 81 18 72 20 Z M 79 26 Q 77 31 80 32 L 82 29 Q 83 25 81 26 L 79 26 Z M 74 27 Q 73 30 76 29 Q 77 26 74 27 Z M 69 29 L 69 33 L 73 31 Q 74 27 69 29 Z M 50 36 L 49 38 Q 54 40 53 37 L 52 37 L 50 36 Z M 40 52 Q 40 55 38 54 L 38 55 L 40 55 Q 39 59 42 58 L 42 52 L 41 54 L 40 52 Z M 34 59 L 35 62 L 35 60 L 38 60 L 34 59 Z M 40 60 Q 39 63 42 62 Q 43 59 40 60 Z M 49 60 Q 48 63 51 62 Q 52 59 49 60 Z M 39 63 L 38 66 L 34 65 Q 33 69 38 67 L 38 69 L 42 67 L 42 65 L 40 65 Q 41 62 39 63 Z M 44 63 L 44 64 L 49 64 L 44 63 Z M 53 69 Q 51 72 54 71 L 53 69 Z M 47 74 Q 46 77 49 76 Q 50 73 47 74 Z " /><path fill="rgb(246,247,240)" stroke="rgb(246,247,240)" stroke-width="1" opacity="1" d="M 93.5 8 L 96 8.5 L 94 9 Q 92.9 11.7 95.5 11 L 95.5 12 L 93.5 13 L 93.5 11 L 91 10.5 L 93.5 8 Z " /><path fill="rgb(246,247,240)" stroke="rgb(246,247,240)" stroke-width="1" opacity="1" d="M 83.5 33 L 85 35.5 L 83 36.5 L 83.5 33 Z " /><path fill="rgb(246,247,240)" stroke="rgb(246,247,240)" stroke-width="1" opacity="1" d="M 0.5 45 Q 1.8 49.3 8.5 48 L 10 47.5 L 11 53.5 L 7.5 51 L 0 50 L 0.5 45 Z " /><path fill="rgb(246,247,240)" stroke="rgb(246,247,240)" stroke-width="1" opacity="1" d="M 77.5 45 L 79 45.5 L 76.5 47 L 77.5 45 Z " /><path fill="rgb(246,247,240)" stroke="rgb(246,247,240)" stroke-width="1" opacity="1" d="M 66.5 47 L 67 49 Q 70.3 47.7 69 52.5 L 68.5 54 L 70.5 53 L 71 54.5 L 71 56.5 L 72 58.5 Q 70.7 61.3 69.5 59 L 68 58.5 L 69 56.5 Q 64 54.5 66.5 47 Z " /><path fill="rgb(246,247,240)" stroke="rgb(246,247,240)" stroke-width="1" opacity="1" d="M 55 49 L 58 49 L 58 56 L 55 54.5 L 55 49 Z " /><path fill="rgb(246,247,240)" stroke="rgb(246,247,240)" stroke-width="1" opacity="1" d="M 73.5 49 L 76 49.5 L 76 51.5 L 75.5 53 L 73 51.5 L 73.5 49 Z " /><path fill="rgb(246,247,240)" stroke="rgb(246,247,240)" stroke-width="1" opacity="1" d="M 0.5 55 Q 2.9 59.6 10.5 59 Q 11.8 56.8 13 59.5 L 15 64.5 L 12.5 63 L 4.5 61 L 2 62 Q 1 66.7 4.5 68 L 9.5 70 L 15.5 67 L 19 72.5 L 17.5 73 L 16.5 72 L 8.5 72 L 6 75.5 L 9.5 80 L 11.5 79 L 16.5 80 L 19.5 79 Q 20.8 81.3 22 78.5 L 21 76.5 L 23 77.5 L 25 80.5 L 19.5 82 L 18.5 80 L 18 82 L 13 83.5 L 13 87.5 Q 12.3 89.8 14.5 89 L 16.5 89 L 22 89.5 L 20 90.5 L 24 91 L 25.5 88 L 29 89 L 28 86.5 L 29.5 84 L 34 87 Q 35.4 90.7 29.5 89 L 23 93.5 L 24.5 97 L 27 97.5 L 20 98 Q 19 101 22 100 L 22 105 L 18 103 L 18 105 L 13 105 Q 14.2 101.3 9 103 L 8.5 105 L 0 105 Q -1.8 99.8 5.5 102 L 5.5 101 L 1.5 100 L 0 100.5 L 2 96.5 L 0 96.5 L 0.5 55 Z M 10 85 Q 8 88 11 87 L 10 85 Z M 10 89 L 8 91 L 10 92 L 9 92 L 7 92 L 7 94 Q 4 93 5 96 L 6 98 Q 8 97 7 100 Q 12 102 11 98 Q 15 97 13 102 L 17 100 Q 18 97 15 98 L 15 96 L 13 96 L 13 94 L 9 96 Q 8 92 11 93 L 11 89 L 10 89 Z M 18 96 Q 17 99 20 98 Q 21 95 18 96 Z " /><path fill="rgb(246,247,240)" stroke="rgb(246,247,240)" stroke-width="1" opacity="1" d="M 67.5 60 L 68 62.5 L 67 62.5 L 67.5 60 Z " /><path fill="rgb(246,247,240)" stroke="rgb(246,247,240)" stroke-width="1" opacity="1" d="M 54 78 L 56 78.5 L 54 79.5 L 54 78 Z " /><path fill="rgb(246,247,240)" stroke="rgb(246,247,240)" stroke-width="1" opacity="1" d="M 52.5 82 L 52.5 85 Q 49.5 83.5 52.5 82 Z " /><path fill="rgb(246,247,240)" stroke="rgb(246,247,240)" stroke-width="1" opacity="1" d="M 44.5 86 L 46 90.5 L 45 90.5 L 44.5 86 Z " /><path fill="rgb(246,247,240)" stroke="rgb(246,247,240)" stroke-width="1" opacity="1" d="M 39.5 91 L 40.5 93 L 43 92 L 43 94 Q 39.2 92.5 40 95.5 L 38 94.5 L 39.5 91 Z " /><path fill="rgb(246,247,240)" stroke="rgb(246,247,240)" stroke-width="1" opacity="1" d="M 36.5 98 L 35.5 100 L 36.5 98 Z " /><path fill="rgb(246,247,240)" stroke="rgb(246,247,240)" stroke-width="1" opacity="1" d="M 26.5 100 Q 30.7 98.9 29 103 Q 26 102 27 105 L 24 105 L 24 101 L 25.5 101 L 26.5 100 Z " /><path fill="rgb(246,247,240)" stroke="rgb(246,247,240)" stroke-width="1" opacity="1" d="M 31 102 L 33 102.5 L 31 103.5 L 31 102 Z " /><path fill="rgb(245,247,241)" stroke="rgb(245,247,241)" stroke-width="1" opacity="1" d="M 98.5 0 L 97.5 2 L 98.5 0 Z " /><path fill="rgb(245,247,241)" stroke="rgb(245,247,241)" stroke-width="1" opacity="1" d="M 104.5 0 L 105.5 3 L 107 0 L 112.5 1 L 117.5 0 L 117 1.5 L 118 4.5 L 115 5.5 L 116 8.5 L 115.5 11 L 112.5 10 L 111 10.5 Q 111.6 5.9 109 4.5 L 109.5 3 Q 104.8 2.3 104 5.5 L 102.5 8 L 102.5 6 Q 100.3 6.8 101 4.5 Q 98.8 3.3 101.5 2 L 104.5 0 Z " /><path fill="rgb(245,247,241)" stroke="rgb(245,247,241)" stroke-width="1" opacity="1" d="M 95.5 9 L 94.5 11 L 95.5 9 Z " /><path fill="rgb(245,247,241)" stroke="rgb(245,247,241)" stroke-width="1" opacity="1" d="M 102.5 9 L 103.5 11 L 102.5 9 Z " /><path fill="rgb(245,247,241)" stroke="rgb(245,247,241)" stroke-width="1" opacity="1" d="M 100.5 11 L 103 12.5 L 101.5 12 L 100.5 11 Z " /><path fill="rgb(245,247,241)" stroke="rgb(245,247,241)" stroke-width="1" opacity="1" d="M 124.5 11 L 123.5 13 L 124.5 11 Z " /><path fill="rgb(245,247,241)" stroke="rgb(245,247,241)" stroke-width="1" opacity="1" d="M 107.5 14 L 109 17.5 L 107 16.5 L 107.5 14 Z " /><path fill="rgb(245,247,241)" stroke="rgb(245,247,241)" stroke-width="1" opacity="1" d="M 103.5 16 L 106 16.5 Q 106.9 19.5 102.5 18 L 103.5 16 Z " /><path fill="rgb(245,247,241)" stroke="rgb(245,247,241)" stroke-width="1" opacity="1" d="M 95.5 17 L 98.5 18 L 100.5 17 L 98.5 20 L 96 20.5 L 98 21 Q 96.8 24 100.5 23 L 101.5 25 Q 99.3 24.3 100 26.5 Q 97.8 27.8 100.5 29 L 105 31 L 104.5 33 L 103.5 32 L 100.5 35 L 98 36.5 L 98 38 L 101 38 Q 99.9 40.7 102.5 40 L 102.5 38 Q 104.8 37.3 104 39.5 L 102 43 L 98 44.5 L 100 45.5 L 99 47.5 L 99.5 49 L 97.5 48 L 94 52.5 L 96 53 L 97 56.5 L 95.5 56 Q 91.8 55.3 91 57.5 L 91.5 59 L 94 57.5 L 92 60.5 L 93 62.5 L 90.5 66 L 91 64.5 L 92 61.5 Q 91 59 86.5 60 L 87.5 62 L 90 63.5 L 88.5 63 L 85 65.5 Q 85.7 68.1 83 67 L 83 69.5 L 87 69.5 L 85.5 72 L 84.5 70 L 84 74 L 82 74 Q 83.1 76.7 80.5 76 L 78.5 76 L 76 74.5 L 74.5 72 L 73 73.5 L 73.5 76 Q 76.8 74.9 76 77.5 Q 73 79.8 74 85 L 72 85.5 L 72 87.5 L 70 91.5 L 70.5 93 L 68.5 92 L 67 92.5 Q 68 88.8 65 90 L 64.5 92 Q 63.3 89.8 62 92.5 L 66 93.5 L 62.5 96 L 53.5 92 Q 52.3 94.3 51 91.5 L 54 90.5 L 53 88.5 Q 54.8 84.2 56.5 87 Q 59.5 87.9 58 83.5 L 57 81.5 Q 59 83.2 61 79.5 Q 60.3 76.9 63 78 L 63 75.5 L 62.5 74 L 64 74 Q 62.5 70.3 65.5 71 L 67.5 71 L 71.5 72 L 72 69 L 70 68.5 L 78 67 L 79 64.5 L 76.5 63 L 71.5 64 L 70 62.5 L 74 58.5 Q 72.5 54.1 75.5 55 L 78 56 L 77.5 52 L 76 52.5 Q 75.3 50.3 77.5 51 L 80 52.5 L 79 48 L 81.5 47 L 87.5 50 L 89.5 50 L 91 49.5 L 86.5 46 L 85 46.5 L 86 44.5 L 84 41.5 Q 87.5 40 85 38.5 L 86.5 35 L 87 38 L 90 39.5 L 89 42.5 L 90.5 44 Q 92.8 43.3 92 45.5 Q 92.8 47.8 96.5 47 L 95.5 45 Q 91.3 46.1 93 42 Q 95.7 43.1 95 40.5 L 96 40.5 Q 95.3 42.8 97.5 42 Q 100.3 40.8 98 39.5 L 97.5 38 L 90.5 38 Q 87.8 36.8 90 35.5 Q 91 31.8 88 33 L 88 30 L 90 29.5 L 89.5 28 L 92 29 L 93 25.5 L 90 24.5 L 93 23.5 L 91 20.5 L 93 19.5 L 92.5 21 Q 95.1 21.8 94 18.5 L 95.5 17 Z M 97 29 L 95 31 L 98 31 Q 99 28 97 29 Z M 89 52 L 88 55 L 91 55 L 89 54 L 89 52 Z M 84 54 L 83 56 L 82 55 L 81 60 L 87 59 L 87 56 L 86 58 L 82 58 L 84 57 L 84 54 Z M 80 55 L 79 58 L 80 58 L 80 55 Z M 76 58 Q 75 61 78 60 Q 79 57 76 58 Z M 73 60 Q 72 63 76 62 Q 77 59 73 60 Z M 78 60 L 78 63 L 81 61 L 78 60 Z M 82 61 L 82 63 L 84 62 L 82 61 Z M 81 62 Q 79 65 82 64 L 81 62 Z M 80 68 L 76 69 L 77 72 L 80 71 L 80 68 Z M 68 72 L 68 77 L 68 75 Q 70 73 68 72 Z M 69 77 L 68 79 L 71 80 L 72 82 L 73 78 L 69 77 Z M 65 78 Q 64 81 67 80 Q 68 77 65 78 Z M 67 81 L 66 83 L 64 83 Q 63 86 66 85 L 67 89 Q 70 90 69 88 L 71 88 Q 72 84 69 85 L 67 81 Z M 58 87 L 58 90 L 60 89 L 62 90 L 63 88 L 58 87 Z " /><path fill="rgb(245,247,241)" stroke="rgb(245,247,241)" stroke-width="1" opacity="1" d="M 108.5 22 L 110 26 L 107 24.5 L 108.5 22 Z " /><path fill="rgb(245,247,241)" stroke="rgb(245,247,241)" stroke-width="1" opacity="1" d="M 115.5 30 L 114.5 32 L 115.5 30 Z " /><path fill="rgb(245,247,241)" stroke="rgb(245,247,241)" stroke-width="1" opacity="1" d="M 109.5 31 L 111 33.5 L 109 32.5 L 109.5 31 Z " /><path fill="rgb(245,247,241)" stroke="rgb(245,247,241)" stroke-width="1" opacity="1" d="M 77.5 35 L 77.5 38 Q 74.5 36.5 77.5 35 Z " /><path fill="rgb(245,247,241)" stroke="rgb(245,247,241)" stroke-width="1" opacity="1" d="M 80.5 38 L 83 39.5 L 79.5 40 L 80.5 38 Z " /><path fill="rgb(245,247,241)" stroke="rgb(245,247,241)" stroke-width="1" opacity="1" d="M 82.5 42 L 82 43.5 L 81.5 45 L 81 43.5 L 82.5 42 Z " /><path fill="rgb(245,247,241)" stroke="rgb(245,247,241)" stroke-width="1" opacity="1" d="M 114.5 60 Q 116.8 59.3 116 61.5 L 114.5 60 Z " /><path fill="rgb(245,247,241)" stroke="rgb(245,247,241)" stroke-width="1" opacity="1" d="M 99.5 62 L 100.5 64 L 99.5 62 Z " /><path fill="rgb(245,247,241)" stroke="rgb(245,247,241)" stroke-width="1" opacity="1" d="M 87.5 65 L 88.5 67 L 87.5 65 Z " /><path fill="rgb(245,247,241)" stroke="rgb(245,247,241)" stroke-width="1" opacity="1" d="M 90.5 67 L 92 67.5 L 89.5 69 L 90.5 67 Z " /><path fill="rgb(245,247,241)" stroke="rgb(245,247,241)" stroke-width="1" opacity="1" d="M 80.5 77 L 82 77.5 L 79.5 79 L 80.5 77 Z " /><path fill="rgb(245,247,241)" stroke="rgb(245,247,241)" stroke-width="1" opacity="1" d="M 53.5 80 L 56 80.5 L 53.5 81 L 53.5 80 Z " /><path fill="rgb(245,247,241)" stroke="rgb(245,247,241)" stroke-width="1" opacity="1" d="M 53.5 83 L 54.5 85 L 53.5 83 Z " /><path fill="rgb(245,247,241)" stroke="rgb(245,247,241)" stroke-width="1" opacity="1" d="M 51 95 L 56 96 Q 57.1 98.7 54.5 98 L 53 101 L 51 101.5 L 59 102 L 59.5 104 L 62.5 99 L 63.5 101 L 61 102.5 L 62 104.5 L 59.5 105 Q 52.3 106.8 50.5 103 L 45.5 105 L 44.5 103 L 51 97.5 L 51 95 Z " /><path fill="rgb(245,247,241)" stroke="rgb(245,247,241)" stroke-width="1" opacity="1" d="M 58 97 L 60 97.5 L 58 98.5 L 58 97 Z " /><path fill="rgb(245,247,241)" stroke="rgb(245,247,241)" stroke-width="1" opacity="1" d="M 75.5 99 L 76.5 101 L 74 100.5 L 75.5 99 Z " /><path fill="rgb(245,247,241)" stroke="rgb(245,247,241)" stroke-width="1" opacity="1" d="M 71.5 102 L 72.5 104 L 71.5 102 Z " /><path fill="rgb(234,209,132)" stroke="rgb(234,209,132)" stroke-width="1" opacity="1" d="M 16 4 Q 19.7 2.5 19 5.5 L 19.5 7 L 16 6 L 16 4 Z " /><path fill="rgb(234,209,132)" stroke="rgb(234,209,132)" stroke-width="1" opacity="1" d="M 26.5 4 Q 31.3 2.3 30 6.5 L 28.5 6 Q 26.3 5.3 27 7.5 L 26.5 10 L 23 8.5 L 26 6.5 Q 23.7 5.3 26.5 4 Z " /><path fill="rgb(234,209,132)" stroke="rgb(234,209,132)" stroke-width="1" opacity="1" d="M 95 4 Q 98.8 3 100 5.5 L 100 7.5 L 100.5 9 L 102 8.5 L 98.5 10 L 98 7.5 Q 98.8 5.3 96.5 6 L 95 6.5 L 95 4 Z " /><path fill="rgb(234,209,132)" stroke="rgb(234,209,132)" stroke-width="1" opacity="1" d="M 106 4 Q 110.1 2.7 109 6 L 105.5 7 L 106 5.5 L 106 4 Z " /><path fill="rgb(234,209,132)" stroke="rgb(234,209,132)" stroke-width="1" opacity="1" d="M 18.5 9 L 20 12.5 L 18 11.5 L 18.5 9 Z " /><path fill="rgb(234,209,132)" stroke="rgb(234,209,132)" stroke-width="1" opacity="1" d="M 106.5 9 L 107.5 11 L 109 10.5 L 105.5 13 L 106 11.5 L 106.5 9 Z " /><path fill="rgb(234,209,132)" stroke="rgb(234,209,132)" stroke-width="1" opacity="1" d="M 12.5 11 L 13.5 13 L 12.5 11 Z " /><path fill="rgb(234,209,132)" stroke="rgb(234,209,132)" stroke-width="1" opacity="1" d="M 112.5 11 L 111.5 13 L 112.5 11 Z " /><path fill="rgb(234,209,132)" stroke="rgb(234,209,132)" stroke-width="1" opacity="1" d="M 22.5 13 L 25 14.5 L 22.5 16 L 22.5 13 Z " /><path fill="rgb(234,209,132)" stroke="rgb(234,209,132)" stroke-width="1" opacity="1" d="M 102.5 13 L 103 15.5 L 101.5 15 L 100 14.5 L 102.5 13 Z " /><path fill="rgb(234,209,132)" stroke="rgb(234,209,132)" stroke-width="1" opacity="1" d="M 13.5 17 L 14.5 19 L 15.5 17 L 16 18.5 Q 14.5 21.5 13 18.5 L 13.5 17 Z " /><path fill="rgb(234,209,132)" stroke="rgb(234,209,132)" stroke-width="1" opacity="1" d="M 109.5 17 L 110.5 19 L 111.5 17 L 112 18.5 Q 110.5 21.5 109 18.5 L 109.5 17 Z " /><path fill="rgb(234,209,132)" stroke="rgb(234,209,132)" stroke-width="1" opacity="1" d="M 8.5 20 L 9.5 22 L 8.5 20 Z " /><path fill="rgb(234,209,132)" stroke="rgb(234,209,132)" stroke-width="1" opacity="1" d="M 116.5 20 L 115.5 22 L 116.5 20 Z " /><path fill="rgb(234,209,132)" stroke="rgb(234,209,132)" stroke-width="1" opacity="1" d="M 18 21 L 20 21.5 L 18 22.5 L 18 21 Z " /><path fill="rgb(234,209,132)" stroke="rgb(234,209,132)" stroke-width="1" opacity="1" d="M 105.5 21 Q 107.8 20.3 107 22.5 L 105.5 21 Z " /><path fill="rgb(234,209,132)" stroke="rgb(234,209,132)" stroke-width="1" opacity="1" d="M 9.5 26 L 11 28.5 L 10 28.5 L 9.5 26 Z " /><path fill="rgb(234,209,132)" stroke="rgb(234,209,132)" stroke-width="1" opacity="1" d="M 14.5 34 L 13.5 36 L 14.5 34 Z " /><path fill="rgb(234,209,132)" stroke="rgb(234,209,132)" stroke-width="1" opacity="1" d="M 110.5 34 L 111.5 36 L 110.5 34 Z " /><path fill="rgb(234,209,132)" stroke="rgb(234,209,132)" stroke-width="1" opacity="1" d="M 3.5 35 L 4.5 37 L 3.5 35 Z " /><path fill="rgb(234,209,132)" stroke="rgb(234,209,132)" stroke-width="1" opacity="1" d="M 13.5 37 L 16 38.5 L 14.5 39 L 13.5 37 Z " /><path fill="rgb(234,209,132)" stroke="rgb(234,209,132)" stroke-width="1" opacity="1" d="M 110.5 37 L 111 39 L 109 38.5 L 110.5 37 Z " /><path fill="rgb(234,209,132)" stroke="rgb(234,209,132)" stroke-width="1" opacity="1" d="M 14.5 42 L 13.5 44 L 14.5 42 Z " /><path fill="rgb(234,209,132)" stroke="rgb(234,209,132)" stroke-width="1" opacity="1" d="M 110.5 42 L 111.5 44 L 110.5 42 Z " /><path fill="rgb(234,209,132)" stroke="rgb(234,209,132)" stroke-width="1" opacity="1" d="M 12.5 45 L 13.5 47 Q 11.3 46.3 12 48.5 L 11 48.5 L 12.5 45 Z " /><path fill="rgb(234,209,132)" stroke="rgb(234,209,132)" stroke-width="1" opacity="1" d="M 112.5 45 L 114 50.5 L 113 50.5 L 112.5 45 Z " /><path fill="rgb(234,209,132)" stroke="rgb(234,209,132)" stroke-width="1" opacity="1" d="M 117.5 46 L 116.5 48 L 117.5 46 Z " /><path fill="rgb(234,209,132)" stroke="rgb(234,209,132)" stroke-width="1" opacity="1" d="M 11.5 51 L 13 53.5 L 11 52.5 L 11.5 51 Z " /><path fill="rgb(234,209,132)" stroke="rgb(234,209,132)" stroke-width="1" opacity="1" d="M 21.5 52 L 19.5 55 L 21.5 52 Z " /><path fill="rgb(234,209,132)" stroke="rgb(234,209,132)" stroke-width="1" opacity="1" d="M 103.5 52 L 105.5 55 L 103.5 52 Z " /><path fill="rgb(234,209,132)" stroke="rgb(234,209,132)" stroke-width="1" opacity="1" d="M 113.5 52 L 112.5 54 L 113.5 52 Z " /><path fill="rgb(234,209,132)" stroke="rgb(234,209,132)" stroke-width="1" opacity="1" d="M 66.5 62 L 67.5 64 L 66.5 62 Z " /><path fill="rgb(234,209,132)" stroke="rgb(234,209,132)" stroke-width="1" opacity="1" d="M 19.5 63 L 20.5 65 L 18.5 65 L 16.5 66 L 17.5 64 L 19.5 63 Z " /><path fill="rgb(234,209,132)" stroke="rgb(234,209,132)" stroke-width="1" opacity="1" d="M 105.5 63 L 109 65.5 L 107.5 65 L 105.5 64 L 104 64.5 L 105.5 63 Z " /><path fill="rgb(234,209,132)" stroke="rgb(234,209,132)" stroke-width="1" opacity="1" d="M 50.5 64 L 53 64.5 L 50 65 L 49.5 67 L 49 65.5 L 50.5 64 Z " /><path fill="rgb(234,209,132)" stroke="rgb(234,209,132)" stroke-width="1" opacity="1" d="M 24.5 71 L 25 73.5 L 24 73.5 L 24.5 71 Z " /><path fill="rgb(234,209,132)" stroke="rgb(234,209,132)" stroke-width="1" opacity="1" d="M 100.5 71 L 101 73.5 L 100 73.5 L 100.5 71 Z " /><path fill="rgb(234,209,132)" stroke="rgb(234,209,132)" stroke-width="1" opacity="1" d="M 11.5 72 L 14 72.5 L 11.5 73 L 11.5 72 Z " /><path fill="rgb(234,209,132)" stroke="rgb(234,209,132)" stroke-width="1" opacity="1" d="M 19.5 72 L 21.5 73 L 23 72.5 L 20.5 74 L 19.5 72 Z " /><path fill="rgb(234,209,132)" stroke="rgb(234,209,132)" stroke-width="1" opacity="1" d="M 102.5 72 L 103.5 74 L 102.5 72 Z " /><path fill="rgb(234,209,132)" stroke="rgb(234,209,132)" stroke-width="1" opacity="1" d="M 111.5 72 L 114 72.5 L 111.5 73 L 111.5 72 Z " /><path fill="rgb(234,209,132)" stroke="rgb(234,209,132)" stroke-width="1" opacity="1" d="M 102.5 76 L 101.5 78 L 102.5 76 Z " /><path fill="rgb(234,209,132)" stroke="rgb(234,209,132)" stroke-width="1" opacity="1" d="M 106.5 76 L 109 76.5 L 105.5 78 L 106.5 76 Z " /><path fill="rgb(234,209,132)" stroke="rgb(234,209,132)" stroke-width="1" opacity="1" d="M 25.5 78 L 27.5 81 L 25.5 78 Z " /><path fill="rgb(234,209,132)" stroke="rgb(234,209,132)" stroke-width="1" opacity="1" d="M 31.5 78 L 32 81 L 29 80.5 L 31 80 L 31.5 78 Z " /><path fill="rgb(234,209,132)" stroke="rgb(234,209,132)" stroke-width="1" opacity="1" d="M 93.5 78 L 94 80 L 96 80.5 L 93 81 L 93.5 78 Z " /><path fill="rgb(234,209,132)" stroke="rgb(234,209,132)" stroke-width="1" opacity="1" d="M 99.5 78 L 97.5 81 L 99.5 78 Z " /><path fill="rgb(234,209,132)" stroke="rgb(234,209,132)" stroke-width="1" opacity="1" d="M 28.5 82 L 29.5 84 L 28.5 83 L 25.5 86 L 23 85.5 L 28.5 82 Z " /><path fill="rgb(234,209,132)" stroke="rgb(234,209,132)" stroke-width="1" opacity="1" d="M 39.5 82 L 40 84.5 L 39 84.5 L 39.5 82 Z " /><path fill="rgb(234,209,132)" stroke="rgb(234,209,132)" stroke-width="1" opacity="1" d="M 85.5 82 L 86 84.5 L 85 84.5 L 85.5 82 Z " /><path fill="rgb(234,209,132)" stroke="rgb(234,209,132)" stroke-width="1" opacity="1" d="M 96.5 82 L 102 85.5 L 99.5 86 Q 97.2 81.8 95 83.5 L 96.5 82 Z " /><path fill="rgb(234,209,132)" stroke="rgb(234,209,132)" stroke-width="1" opacity="1" d="M 48.5 86 L 51 89.5 L 48 87.5 L 48.5 86 Z " /><path fill="rgb(234,209,132)" stroke="rgb(234,209,132)" stroke-width="1" opacity="1" d="M 76.5 86 L 77 87.5 L 75 88.5 L 76.5 86 Z " /><path fill="rgb(234,209,132)" stroke="rgb(234,209,132)" stroke-width="1" opacity="1" d="M 36.5 88 L 35.5 90 L 32 89.5 L 36.5 88 Z " /><path fill="rgb(234,209,132)" stroke="rgb(234,209,132)" stroke-width="1" opacity="1" d="M 88.5 88 L 93 89.5 L 89.5 90 L 88.5 88 Z " /><path fill="rgb(234,209,132)" stroke="rgb(234,209,132)" stroke-width="1" opacity="1" d="M 46.5 89 L 47.5 91 L 46.5 89 Z " /><path fill="rgb(234,209,132)" stroke="rgb(234,209,132)" stroke-width="1" opacity="1" d="M 26.5 91 L 24.5 94 L 26.5 91 Z " /><path fill="rgb(234,209,132)" stroke="rgb(234,209,132)" stroke-width="1" opacity="1" d="M 35.5 91 L 37 93.5 L 35 94.5 L 35.5 93 L 32 92.5 L 35.5 91 Z " /><path fill="rgb(234,209,132)" stroke="rgb(234,209,132)" stroke-width="1" opacity="1" d="M 89.5 91 L 94 93.5 L 92.5 93 L 89 93.5 L 89.5 95 Q 86.8 93.8 89 92.5 L 89.5 91 Z " /><path fill="rgb(234,209,132)" stroke="rgb(234,209,132)" stroke-width="1" opacity="1" d="M 98.5 91 L 100.5 94 L 98.5 91 Z " /><path fill="rgb(234,209,132)" stroke="rgb(234,209,132)" stroke-width="1" opacity="1" d="M 46.5 96 L 49 96.5 Q 49.8 98.8 47.5 98 L 46 97.5 L 45 99.5 L 46.5 100 L 48 99.5 L 41.5 104 L 37.5 104 L 35 102.5 L 37.5 99 L 41.5 100 L 46.5 96 Z " /><path fill="rgb(234,209,132)" stroke="rgb(234,209,132)" stroke-width="1" opacity="1" d="M 61.5 96 L 64 96.5 L 61.5 97 L 61.5 96 Z " /><path fill="rgb(234,209,132)" stroke="rgb(234,209,132)" stroke-width="1" opacity="1" d="M 60.5 98 L 61 99.5 L 59 100.5 L 60.5 98 Z " /><path fill="rgb(234,209,132)" stroke="rgb(234,209,132)" stroke-width="1" opacity="1" d="M 64.5 98 L 66 100.5 L 64 99.5 L 64.5 98 Z " /><path fill="rgb(234,209,132)" stroke="rgb(234,209,132)" stroke-width="1" opacity="1" d="M 79.5 98 L 89 100 L 90 102.5 Q 88.3 104.8 83.5 104 L 77 99.5 L 79.5 98 Z " /><path fill="rgb(232,201,102)" stroke="rgb(232,201,102)" stroke-width="1" opacity="1" d="M 16 6 L 20 7.5 L 19.5 12 L 18.5 9 L 17.5 12 L 16 6 Z " /><path fill="rgb(232,201,102)" stroke="rgb(232,201,102)" stroke-width="1" opacity="1" d="M 24 6 L 26 6.5 L 24 7.5 L 24 6 Z " /><path fill="rgb(232,201,102)" stroke="rgb(232,201,102)" stroke-width="1" opacity="1" d="M 27 6 Q 29.7 4.9 29 7.5 L 25.5 10 L 27 7.5 L 27 6 Z " /><path fill="rgb(232,201,102)" stroke="rgb(232,201,102)" stroke-width="1" opacity="1" d="M 96 6 Q 98.7 4.9 98 7.5 L 98.5 9 L 96 7.5 L 96 6 Z " /><path fill="rgb(232,201,102)" stroke="rgb(232,201,102)" stroke-width="1" opacity="1" d="M 99.5 6 Q 101.8 5.3 101 7.5 L 99.5 6 Z " /><path fill="rgb(232,201,102)" stroke="rgb(232,201,102)" stroke-width="1" opacity="1" d="M 106.5 6 Q 110.7 4.7 109 9.5 L 107 10.5 L 106.5 9 L 105.5 12 L 105 7.5 L 106.5 6 Z " /><path fill="rgb(232,201,102)" stroke="rgb(232,201,102)" stroke-width="1" opacity="1" d="M 11.5 11 L 14.5 15 L 13 15.5 L 13.5 17 Q 11.3 17.8 12 15.5 L 10 15.5 Q 9.3 11.8 11.5 11 Z " /><path fill="rgb(232,201,102)" stroke="rgb(232,201,102)" stroke-width="1" opacity="1" d="M 113.5 11 Q 115.8 11.8 115 15.5 L 113 15.5 L 114 17.5 L 112.5 17 Q 110.3 17.8 111 15.5 L 110 14.5 L 113.5 11 Z " /><path fill="rgb(232,201,102)" stroke="rgb(232,201,102)" stroke-width="1" opacity="1" d="M 23.5 13 L 29 14.5 L 26 15.5 L 26.5 17 L 23 15.5 L 25 14.5 L 23.5 13 Z " /><path fill="rgb(232,201,102)" stroke="rgb(232,201,102)" stroke-width="1" opacity="1" d="M 98.5 13 L 102 13.5 L 100 14.5 L 102 15.5 L 98.5 17 L 98.5 15 L 96 14.5 L 98.5 13 Z " /><path fill="rgb(232,201,102)" stroke="rgb(232,201,102)" stroke-width="1" opacity="1" d="M 65.5 16 L 66 22.5 L 65 22.5 L 65.5 16 Z " /><path fill="rgb(232,201,102)" stroke="rgb(232,201,102)" stroke-width="1" opacity="1" d="M 6.5 19 L 5.5 21 L 6.5 19 Z " /><path fill="rgb(232,201,102)" stroke="rgb(232,201,102)" stroke-width="1" opacity="1" d="M 118.5 19 L 119.5 21 L 118.5 19 Z " /><path fill="rgb(232,201,102)" stroke="rgb(232,201,102)" stroke-width="1" opacity="1" d="M 20.5 21 L 19.5 23 L 20.5 21 Z " /><path fill="rgb(232,201,102)" stroke="rgb(232,201,102)" stroke-width="1" opacity="1" d="M 104.5 21 L 105.5 23 L 104.5 21 Z " /><path fill="rgb(232,201,102)" stroke="rgb(232,201,102)" stroke-width="1" opacity="1" d="M 24.5 77 L 27.5 81 L 30 82.5 L 28.5 82 L 24 78.5 L 24.5 77 Z " /><path fill="rgb(232,201,102)" stroke="rgb(232,201,102)" stroke-width="1" opacity="1" d="M 100.5 77 L 101 78.5 L 95.5 83 L 96.5 81 L 100 78.5 L 100.5 77 Z " /><path fill="rgb(232,201,102)" stroke="rgb(232,201,102)" stroke-width="1" opacity="1" d="M 25.5 84 L 28 85.5 L 26 86.5 L 25.5 84 Z " /><path fill="rgb(232,201,102)" stroke="rgb(232,201,102)" stroke-width="1" opacity="1" d="M 99.5 84 L 99 85.5 L 98.5 87 L 97.5 85 L 99.5 84 Z " /><path fill="rgb(232,201,102)" stroke="rgb(232,201,102)" stroke-width="1" opacity="1" d="M 35.5 87 L 38 88.5 L 36.5 88 L 35.5 87 Z " /><path fill="rgb(232,201,102)" stroke="rgb(232,201,102)" stroke-width="1" opacity="1" d="M 49.5 87 L 50.5 89 L 49 88.5 L 48.5 91 L 46.5 88 Q 48 90.5 49.5 87 Z " /><path fill="rgb(232,201,102)" stroke="rgb(232,201,102)" stroke-width="1" opacity="1" d="M 75.5 87 Q 80 89 76.5 91 L 75.5 88 L 74.5 90 L 74 88.5 L 75.5 87 Z " /><path fill="rgb(232,201,102)" stroke="rgb(232,201,102)" stroke-width="1" opacity="1" d="M 88.5 87 L 90 87.5 L 87.5 89 L 88.5 87 Z " /><path fill="rgb(232,201,102)" stroke="rgb(232,201,102)" stroke-width="1" opacity="1" d="M 29.5 90 L 37 90.5 L 32 92.5 L 35.5 93 L 37 92.5 Q 34.8 97.3 27.5 97 L 24 94.5 L 29.5 90 Z " /><path fill="rgb(232,201,102)" stroke="rgb(232,201,102)" stroke-width="1" opacity="1" d="M 88.5 90 Q 98.6 88.4 101 94.5 Q 99.6 97.6 94.5 97 L 88 92.5 L 89.5 93 L 93 92.5 Q 87.8 92.3 88.5 90 Z " /><path fill="rgb(232,201,102)" stroke="rgb(232,201,102)" stroke-width="1" opacity="1" d="M 49.5 93 L 52 93.5 L 49.5 94 L 49.5 93 Z " /><path fill="rgb(232,201,102)" stroke="rgb(232,201,102)" stroke-width="1" opacity="1" d="M 73.5 93 L 76 93.5 L 73.5 94 L 73.5 93 Z " /><path fill="rgb(232,201,102)" stroke="rgb(232,201,102)" stroke-width="1" opacity="1" d="M 53.5 94 L 57 94.5 L 53.5 95 L 53.5 94 Z " /><path fill="rgb(232,201,102)" stroke="rgb(232,201,102)" stroke-width="1" opacity="1" d="M 68.5 94 L 72 94.5 L 68.5 95 L 68.5 94 Z " /><path fill="rgb(232,201,102)" stroke="rgb(232,201,102)" stroke-width="1" opacity="1" d="M 43.5 95 L 48 95.5 L 41.5 100 L 38 100 L 39.5 97 L 43.5 95 Z " /><path fill="rgb(232,201,102)" stroke="rgb(232,201,102)" stroke-width="1" opacity="1" d="M 58.5 95 L 63.5 97 L 66.5 95 L 66.5 96 L 64 97.5 L 63.5 99 L 61 98.5 L 59.5 96 L 58.5 95 Z " /><path fill="rgb(232,201,102)" stroke="rgb(232,201,102)" stroke-width="1" opacity="1" d="M 77.5 95 L 81.5 95 L 88 99.5 L 84.5 100 L 77.5 96 L 77.5 95 Z " /><path fill="rgb(232,201,102)" stroke="rgb(232,201,102)" stroke-width="1" opacity="1" d="M 77.5 97 L 81 99.5 L 79.5 100 L 77 99 L 77.5 97 Z " /><path fill="rgb(232,201,102)" stroke="rgb(232,201,102)" stroke-width="1" opacity="1" d="M 46.5 98 L 48 98.5 L 45.5 100 L 46.5 98 Z " /><path fill="rgb(218,184,96)" stroke="rgb(218,184,96)" stroke-width="1" opacity="1" d="M 65.5 26 L 66 33.5 L 65 33.5 L 65.5 26 Z " /><path fill="rgb(218,184,96)" stroke="rgb(218,184,96)" stroke-width="1" opacity="1" d="M 6.5 34 L 8 36.5 L 7 36.5 L 6.5 34 Z " /><path fill="rgb(218,184,96)" stroke="rgb(218,184,96)" stroke-width="1" opacity="1" d="M 118.5 34 L 118 35.5 Q 118.7 38.5 115 37 L 115.5 35 Q 117 37.5 118.5 34 Z " /><path fill="rgb(218,184,96)" stroke="rgb(218,184,96)" stroke-width="1" opacity="1" d="M 103.5 35 L 104.5 37 L 103.5 35 Z " /><path fill="rgb(218,184,96)" stroke="rgb(218,184,96)" stroke-width="1" opacity="1" d="M 16.5 44 L 15.5 46 L 14 45.5 L 16.5 44 Z " /><path fill="rgb(218,184,96)" stroke="rgb(218,184,96)" stroke-width="1" opacity="1" d="M 110.5 45 L 111.5 47 L 110.5 45 Z " /><path fill="rgb(218,184,96)" stroke="rgb(218,184,96)" stroke-width="1" opacity="1" d="M 16.5 50 L 15.5 52 L 16.5 50 Z " /><path fill="rgb(218,184,96)" stroke="rgb(218,184,96)" stroke-width="1" opacity="1" d="M 12.5 54 L 13 56.5 L 12 56.5 L 12.5 54 Z " /><path fill="rgb(218,184,96)" stroke="rgb(218,184,96)" stroke-width="1" opacity="1" d="M 16.5 54 L 17.5 56 L 16.5 54 Z " /><path fill="rgb(218,184,96)" stroke="rgb(218,184,96)" stroke-width="1" opacity="1" d="M 112.5 54 L 113 56.5 L 112 56.5 L 112.5 54 Z " /><path fill="rgb(218,184,96)" stroke="rgb(218,184,96)" stroke-width="1" opacity="1" d="M 20.5 57 L 19.5 59 L 20.5 57 Z " /><path fill="rgb(218,184,96)" stroke="rgb(218,184,96)" stroke-width="1" opacity="1" d="M 104.5 57 L 105.5 59 L 104.5 57 Z " /><path fill="rgb(218,184,96)" stroke="rgb(218,184,96)" stroke-width="1" opacity="1" d="M 14.5 61 L 16 64.5 L 15 64.5 L 14.5 61 Z " /><path fill="rgb(218,184,96)" stroke="rgb(218,184,96)" stroke-width="1" opacity="1" d="M 110.5 61 L 111 62.5 L 109.5 65 L 109 63.5 L 110.5 61 Z " /><path fill="rgb(218,184,96)" stroke="rgb(218,184,96)" stroke-width="1" opacity="1" d="M 3.5 62 L 2.5 64 L 3.5 62 Z " /><path fill="rgb(218,184,96)" stroke="rgb(218,184,96)" stroke-width="1" opacity="1" d="M 22.5 62 L 21.5 64 L 22.5 62 Z " /><path fill="rgb(218,184,96)" stroke="rgb(218,184,96)" stroke-width="1" opacity="1" d="M 58.5 62 L 57.5 64 L 58.5 62 Z " /><path fill="rgb(218,184,96)" stroke="rgb(218,184,96)" stroke-width="1" opacity="1" d="M 102.5 62 L 103.5 64 L 102.5 62 Z " /><path fill="rgb(218,184,96)" stroke="rgb(218,184,96)" stroke-width="1" opacity="1" d="M 121.5 62 L 122.5 64 L 121.5 62 Z " /><path fill="rgb(218,184,96)" stroke="rgb(218,184,96)" stroke-width="1" opacity="1" d="M 17.5 67 L 19 69.5 L 17 68.5 L 17.5 67 Z " /><path fill="rgb(218,184,96)" stroke="rgb(218,184,96)" stroke-width="1" opacity="1" d="M 107.5 67 L 108 68.5 L 106 69.5 L 107.5 67 Z " /><path fill="rgb(218,184,96)" stroke="rgb(218,184,96)" stroke-width="1" opacity="1" d="M 25.5 69 L 24.5 71 L 25.5 69 Z " /><path fill="rgb(218,184,96)" stroke="rgb(218,184,96)" stroke-width="1" opacity="1" d="M 92.5 69 L 94.5 72 L 92.5 69 Z " /><path fill="rgb(218,184,96)" stroke="rgb(218,184,96)" stroke-width="1" opacity="1" d="M 99.5 69 L 100.5 71 L 99.5 69 Z " /><path fill="rgb(218,184,96)" stroke="rgb(218,184,96)" stroke-width="1" opacity="1" d="M 19.5 71 L 20.5 73 L 19.5 71 Z " /><path fill="rgb(218,184,96)" stroke="rgb(218,184,96)" stroke-width="1" opacity="1" d="M 22.5 71 L 23.5 73 L 22.5 71 Z " /><path fill="rgb(218,184,96)" stroke="rgb(218,184,96)" stroke-width="1" opacity="1" d="M 26.5 71 L 25.5 73 L 26.5 71 Z " /><path fill="rgb(218,184,96)" stroke="rgb(218,184,96)" stroke-width="1" opacity="1" d="M 105.5 71 L 104.5 73 L 105.5 71 Z " /><path fill="rgb(218,184,96)" stroke="rgb(218,184,96)" stroke-width="1" opacity="1" d="M 21.5 74 L 23.5 77 L 21.5 74 Z " /><path fill="rgb(218,184,96)" stroke="rgb(218,184,96)" stroke-width="1" opacity="1" d="M 39.5 74 L 38.5 76 L 39.5 74 Z " /><path fill="rgb(227,192,91)" stroke="rgb(227,192,91)" stroke-width="1" opacity="1" d="M 11.5 15 L 13 18.5 L 11 17.5 L 11.5 15 Z " /><path fill="rgb(227,192,91)" stroke="rgb(227,192,91)" stroke-width="1" opacity="1" d="M 13.5 15 Q 16.5 14.1 15 18.5 L 14 18.5 L 13.5 15 Z " /><path fill="rgb(227,192,91)" stroke="rgb(227,192,91)" stroke-width="1" opacity="1" d="M 26.5 15 L 30 15.5 L 27.5 17 L 26.5 15 Z " /><path fill="rgb(227,192,91)" stroke="rgb(227,192,91)" stroke-width="1" opacity="1" d="M 95.5 15 L 99 15.5 Q 97.7 18.3 96.5 16 L 95.5 15 Z " /><path fill="rgb(227,192,91)" stroke="rgb(227,192,91)" stroke-width="1" opacity="1" d="M 110.5 15 L 111 18.5 L 110 18.5 L 110.5 15 Z " /><path fill="rgb(227,192,91)" stroke="rgb(227,192,91)" stroke-width="1" opacity="1" d="M 113.5 15 L 114 16.5 L 112.5 19 L 112 17.5 L 113.5 15 Z " /><path fill="rgb(227,192,91)" stroke="rgb(227,192,91)" stroke-width="1" opacity="1" d="M 64.5 16 L 65 21 L 62.5 22 L 60.5 21 L 58.5 22 L 57.5 21 L 51 21 Q 49.6 17.3 55.5 19 L 64.5 16 Z " /><path fill="rgb(227,192,91)" stroke="rgb(227,192,91)" stroke-width="1" opacity="1" d="M 20.5 19 L 26 20.5 L 23 21.5 L 23.5 23 L 18 20.5 L 20.5 19 Z " /><path fill="rgb(227,192,91)" stroke="rgb(227,192,91)" stroke-width="1" opacity="1" d="M 101.5 19 L 107 20.5 L 102.5 22 L 99 20.5 L 101.5 19 Z " /><path fill="rgb(227,192,91)" stroke="rgb(227,192,91)" stroke-width="1" opacity="1" d="M 6.5 20 Q 9.1 19.3 8 22 L 5.5 23 L 5 21.5 L 6.5 20 Z " /><path fill="rgb(227,192,91)" stroke="rgb(227,192,91)" stroke-width="1" opacity="1" d="M 117.5 20 L 120 21.5 L 119.5 23 L 119 21 L 116.5 22 L 117.5 20 Z " /><path fill="rgb(227,192,91)" stroke="rgb(227,192,91)" stroke-width="1" opacity="1" d="M 65.5 23 L 66 25.5 L 65 25.5 L 65.5 23 Z " /><path fill="rgb(227,192,91)" stroke="rgb(227,192,91)" stroke-width="1" opacity="1" d="M 116.5 24 L 117 26 L 115 25.5 L 116.5 24 Z " /><path fill="rgb(227,192,91)" stroke="rgb(227,192,91)" stroke-width="1" opacity="1" d="M 83.5 78 L 85 85.5 L 84 85.5 L 83.5 78 Z " /><path fill="rgb(227,192,91)" stroke="rgb(227,192,91)" stroke-width="1" opacity="1" d="M 41.5 79 L 42 81.5 L 40.5 86 L 40 82.5 L 41.5 79 Z " /><path fill="rgb(227,192,91)" stroke="rgb(227,192,91)" stroke-width="1" opacity="1" d="M 36.5 80 L 37 83 Q 40.3 81.7 39 86.5 L 37 85.5 L 36.5 80 Z " /><path fill="rgb(227,192,91)" stroke="rgb(227,192,91)" stroke-width="1" opacity="1" d="M 88.5 80 L 89 82.5 L 86.5 87 L 86 82.5 L 88 82.5 L 88.5 80 Z " /><path fill="rgb(227,192,91)" stroke="rgb(227,192,91)" stroke-width="1" opacity="1" d="M 20.5 82 L 27 83.5 L 21 85.5 L 26 86.5 Q 24.3 89.8 17.5 88 L 14 85.5 L 16.5 83 L 20.5 82 Z " /><path fill="rgb(227,192,91)" stroke="rgb(227,192,91)" stroke-width="1" opacity="1" d="M 79.5 82 L 80 85.5 L 79 89 Q 75.7 90.3 77 85.5 L 76 85.5 L 74.5 88 L 74 85.5 L 75 83 L 79.5 82 Z " /><path fill="rgb(227,192,91)" stroke="rgb(227,192,91)" stroke-width="1" opacity="1" d="M 100.5 82 L 102.5 83 L 104.5 82 L 111 85.5 Q 108.5 89.5 100.5 88 L 99.5 86 L 104 85.5 L 98 83.5 L 100.5 82 Z " /><path fill="rgb(227,192,91)" stroke="rgb(227,192,91)" stroke-width="1" opacity="1" d="M 30.5 83 L 31.5 85 L 30.5 83 Z " /><path fill="rgb(227,192,91)" stroke="rgb(227,192,91)" stroke-width="1" opacity="1" d="M 45 83 L 50 83 L 50 84.5 L 51 87.5 L 49 86.5 L 48.5 85 L 47.5 89 L 45 83 Z " /><path fill="rgb(227,192,91)" stroke="rgb(227,192,91)" stroke-width="1" opacity="1" d="M 94.5 83 L 93.5 85 L 94.5 83 Z " /></svg>