<svg width="127" height="100" version="1.1" xmlns="http://www.w3.org/2000/svg" desc="Created with imagetracer.js version 1.2.6" ><path fill="rgb(242,242,239)" stroke="rgb(242,242,239)" stroke-width="1" opacity="1" d="M 26.5 1 L 27.5 3 Q 24.7 3.7 26.5 1 Z " /><path fill="rgb(242,242,239)" stroke="rgb(242,242,239)" stroke-width="1" opacity="1" d="M 17.5 2 Q 21.9 0.5 21 3.5 L 18.5 4 L 17.5 2 Z " /><path fill="rgb(242,242,239)" stroke="rgb(242,242,239)" stroke-width="1" opacity="1" d="M 108 2 L 110 2.5 L 108 3.5 L 108 2 Z " /><path fill="rgb(242,242,239)" stroke="rgb(242,242,239)" stroke-width="1" opacity="1" d="M 12.5 4 L 16 8.5 L 12 8.5 L 11.5 10 L 11 5.5 L 12.5 4 Z " /><path fill="rgb(242,242,239)" stroke="rgb(242,242,239)" stroke-width="1" opacity="1" d="M 114.5 4 L 116 6.5 L 116 8.5 L 115.5 10 L 114.5 8 L 111 9 L 114.5 4 Z " /><path fill="rgb(242,242,239)" stroke="rgb(242,242,239)" stroke-width="1" opacity="1" d="M 25.5 6 L 31 8.5 L 29.5 8 L 23 7.5 L 25.5 6 Z " /><path fill="rgb(242,242,239)" stroke="rgb(242,242,239)" stroke-width="1" opacity="1" d="M 97.5 7 L 100 7.5 L 97.5 8 L 97.5 7 Z " /><path fill="rgb(242,242,239)" stroke="rgb(242,242,239)" stroke-width="1" opacity="1" d="M 112.5 10 L 113.5 12 L 115 11.5 Q 113.5 14.5 112 11.5 L 112.5 10 Z " /><path fill="rgb(242,242,239)" stroke="rgb(242,242,239)" stroke-width="1" opacity="1" d="M 9.5 13 L 10.5 15 L 9.5 13 Z " /><path fill="rgb(242,242,239)" stroke="rgb(242,242,239)" stroke-width="1" opacity="1" d="M 15.5 22 L 16.5 24 L 15.5 22 Z " /><path fill="rgb(242,242,239)" stroke="rgb(242,242,239)" stroke-width="1" opacity="1" d="M 13.5 24 L 14 25.5 L 12 26.5 L 13.5 24 Z " /><path fill="rgb(242,242,239)" stroke="rgb(242,242,239)" stroke-width="1" opacity="1" d="M 13.5 30 L 13 31.5 L 11.5 35 L 11 33.5 L 13.5 30 Z " /><path fill="rgb(242,242,239)" stroke="rgb(242,242,239)" stroke-width="1" opacity="1" d="M 2.5 38 L 3.5 40 L 2.5 38 Z " /><path fill="rgb(242,242,239)" stroke="rgb(242,242,239)" stroke-width="1" opacity="1" d="M 27.5 65 L 26.5 67 L 27.5 65 Z " /><path fill="rgb(242,242,239)" stroke="rgb(242,242,239)" stroke-width="1" opacity="1" d="M 20.5 67 Q 23.1 66.2 22 69.5 L 21 69.5 L 20.5 67 Z " /><path fill="rgb(242,242,239)" stroke="rgb(242,242,239)" stroke-width="1" opacity="1" d="M 101.5 72 L 100.5 74 L 101.5 72 Z " /><path fill="rgb(242,242,239)" stroke="rgb(242,242,239)" stroke-width="1" opacity="1" d="M 26.5 73 L 27.5 75 L 26.5 73 Z " /><path fill="rgb(239,240,238)" stroke="rgb(239,240,238)" stroke-width="1" opacity="1" d="M 21.5 14 L 25 15.5 L 20.5 16 L 21.5 14 Z " /><path fill="rgb(239,240,238)" stroke="rgb(239,240,238)" stroke-width="1" opacity="1" d="M 105.5 14 L 106.5 16 L 102 15.5 L 105.5 14 Z " /><path fill="rgb(239,240,238)" stroke="rgb(239,240,238)" stroke-width="1" opacity="1" d="M 120.5 14 L 121 15.5 L 116.5 22 L 115.5 20 L 114 20.5 L 116 15 L 120.5 14 Z " /><path fill="rgb(239,240,238)" stroke="rgb(239,240,238)" stroke-width="1" opacity="1" d="M 6 15 L 11 15 L 11 16.5 L 13 20.5 L 11 20.5 L 10.5 22 Q 6.5 19.7 6 15 Z " /><path fill="rgb(239,240,238)" stroke="rgb(239,240,238)" stroke-width="1" opacity="1" d="M 52.5 15 L 55 15.5 L 49.5 21 L 48 19.5 L 50 16 L 52.5 15 Z " /><path fill="rgb(239,240,238)" stroke="rgb(239,240,238)" stroke-width="1" opacity="1" d="M 68 15 L 75.5 15 L 76 16.5 L 78 24.5 L 76 27.5 L 77 29.5 L 75.5 29 L 70 28.5 Q 72.5 27 71 21.5 L 68 15 Z " /><path fill="rgb(239,240,238)" stroke="rgb(239,240,238)" stroke-width="1" opacity="1" d="M 18.5 19 L 25 20 Q 26.1 22.7 23.5 22 L 17 24 L 16 21.5 L 18.5 19 Z " /><path fill="rgb(239,240,238)" stroke="rgb(239,240,238)" stroke-width="1" opacity="1" d="M 104.5 19 Q 109.6 18.4 111 21.5 L 110 24 L 102 22 Q 100.9 19.3 103.5 20 L 104.5 19 Z " /><path fill="rgb(239,240,238)" stroke="rgb(239,240,238)" stroke-width="1" opacity="1" d="M 3 22 Q 7.7 22.5 10 26.5 L 11 31 L 8.5 30 L 7 30.5 L 7.5 29 L 5.5 30 Q 2 27.7 3 22 Z " /><path fill="rgb(239,240,238)" stroke="rgb(239,240,238)" stroke-width="1" opacity="1" d="M 122.5 22 L 124 22 L 124 27 L 122 27.5 Q 124.2 28.8 121.5 30 L 119.5 29 L 119.5 31 L 117.5 30 L 116 30.5 Q 116.5 25 120.5 23 L 122.5 22 Z " /><path fill="rgb(239,240,238)" stroke="rgb(239,240,238)" stroke-width="1" opacity="1" d="M 19.5 26 L 23 27.5 L 20.5 31 L 15.5 32 L 14 29.5 L 19.5 26 Z M 19 28 L 18 30 L 21 30 L 19 28 Z " /><path fill="rgb(239,240,238)" stroke="rgb(239,240,238)" stroke-width="1" opacity="1" d="M 105.5 26 Q 111.7 25.3 113 29.5 L 111.5 32 Q 105.9 32.1 104 28.5 L 105.5 26 Z M 107 29 L 107 30 L 109 30 L 107 29 Z " /><path fill="rgb(239,240,238)" stroke="rgb(239,240,238)" stroke-width="1" opacity="1" d="M 70.5 30 Q 75 29 76 31.5 L 69.5 32 L 70.5 30 Z " /><path fill="rgb(239,240,238)" stroke="rgb(239,240,238)" stroke-width="1" opacity="1" d="M 104.5 36 L 105.5 38 L 104.5 36 Z " /><path fill="rgb(239,240,238)" stroke="rgb(239,240,238)" stroke-width="1" opacity="1" d="M 7.5 38 Q 9.3 41.1 11 39.5 L 9.5 41 L 7.5 38 Z " /><path fill="rgb(239,240,238)" stroke="rgb(239,240,238)" stroke-width="1" opacity="1" d="M 16.5 38 L 16 39.5 Q 16.8 41.8 14.5 41 L 13.5 39 L 16.5 38 Z " /><path fill="rgb(239,240,238)" stroke="rgb(239,240,238)" stroke-width="1" opacity="1" d="M 110.5 38 L 114 39.5 L 111.5 41 L 110.5 38 Z " /><path fill="rgb(239,240,238)" stroke="rgb(239,240,238)" stroke-width="1" opacity="1" d="M 119.5 38 L 117.5 41 L 116.5 39 Q 118 41.5 119.5 38 Z " /><path fill="rgb(239,240,238)" stroke="rgb(239,240,238)" stroke-width="1" opacity="1" d="M 12.5 41 L 14 47.5 L 12 46.5 L 12.5 41 Z " /><path fill="rgb(239,240,238)" stroke="rgb(239,240,238)" stroke-width="1" opacity="1" d="M 103.5 41 L 106 41.5 L 103.5 42 L 103.5 41 Z " /><path fill="rgb(239,240,238)" stroke="rgb(239,240,238)" stroke-width="1" opacity="1" d="M 114.5 41 L 115 46.5 L 113 47.5 L 114.5 41 Z " /><path fill="rgb(239,240,238)" stroke="rgb(239,240,238)" stroke-width="1" opacity="1" d="M 17.5 43 L 16.5 45 L 17.5 43 Z " /><path fill="rgb(239,240,238)" stroke="rgb(239,240,238)" stroke-width="1" opacity="1" d="M 61.5 43 L 60.5 45 L 61.5 43 Z " /><path fill="rgb(239,240,238)" stroke="rgb(239,240,238)" stroke-width="1" opacity="1" d="M 109.5 43 L 110.5 45 L 109.5 43 Z " /><path fill="rgb(239,240,238)" stroke="rgb(239,240,238)" stroke-width="1" opacity="1" d="M 2.5 48 L 3.5 50 L 2.5 48 Z " /><path fill="rgb(239,240,238)" stroke="rgb(239,240,238)" stroke-width="1" opacity="1" d="M 16.5 48 L 17.5 50 L 16.5 48 Z " /><path fill="rgb(239,240,238)" stroke="rgb(239,240,238)" stroke-width="1" opacity="1" d="M 101.5 48 L 101 49.5 L 100.5 51 L 100 49.5 L 101.5 48 Z " /><path fill="rgb(239,240,238)" stroke="rgb(239,240,238)" stroke-width="1" opacity="1" d="M 110.5 48 L 111 50 L 109 49.5 L 110.5 48 Z " /><path fill="rgb(239,240,238)" stroke="rgb(239,240,238)" stroke-width="1" opacity="1" d="M 124.5 48 L 123.5 50 L 124.5 48 Z " /><path fill="rgb(239,240,238)" stroke="rgb(239,240,238)" stroke-width="1" opacity="1" d="M 11.5 50 L 10.5 52 L 11.5 50 Z " /><path fill="rgb(239,240,238)" stroke="rgb(239,240,238)" stroke-width="1" opacity="1" d="M 21.5 50 L 19.5 53 L 21.5 50 Z " /><path fill="rgb(239,240,238)" stroke="rgb(239,240,238)" stroke-width="1" opacity="1" d="M 105.5 50 L 106.5 52 L 105.5 50 Z " /><path fill="rgb(239,240,238)" stroke="rgb(239,240,238)" stroke-width="1" opacity="1" d="M 115.5 50 L 116.5 52 L 115.5 50 Z " /><path fill="rgb(239,240,238)" stroke="rgb(239,240,238)" stroke-width="1" opacity="1" d="M 4.5 59 L 5.5 61 L 4.5 59 Z " /><path fill="rgb(239,240,238)" stroke="rgb(239,240,238)" stroke-width="1" opacity="1" d="M 37.5 78 L 36.5 80 L 37.5 78 Z " /><path fill="rgb(239,240,238)" stroke="rgb(239,240,238)" stroke-width="1" opacity="1" d="M 89.5 78 L 90.5 80 L 89.5 78 Z " /><path fill="rgb(239,240,238)" stroke="rgb(239,240,238)" stroke-width="1" opacity="1" d="M 46.5 87 L 49 87.5 L 46.5 88 L 46.5 87 Z " /><path fill="rgb(239,240,238)" stroke="rgb(239,240,238)" stroke-width="1" opacity="1" d="M 39.5 90 L 37.5 93 L 39.5 90 Z " /><path fill="rgb(239,240,238)" stroke="rgb(239,240,238)" stroke-width="1" opacity="1" d="M 88.5 91 L 89.5 93 L 88.5 91 Z " /><path fill="rgb(236,236,234)" stroke="rgb(236,236,234)" stroke-width="1" opacity="1" d="M 18.5 28 L 21 29.5 L 18 30 L 18.5 28 Z " /><path fill="rgb(236,236,234)" stroke="rgb(236,236,234)" stroke-width="1" opacity="1" d="M 6.5 29 L 9 30.5 L 7.5 30 L 6.5 29 Z " /><path fill="rgb(236,236,234)" stroke="rgb(236,236,234)" stroke-width="1" opacity="1" d="M 70.5 29 Q 76.6 27.8 76 30.5 L 74.5 30 Q 69.5 31 70.5 29 Z " /><path fill="rgb(236,236,234)" stroke="rgb(236,236,234)" stroke-width="1" opacity="1" d="M 106.5 29 L 109 29.5 L 106.5 30 L 106.5 29 Z " /><path fill="rgb(236,236,234)" stroke="rgb(236,236,234)" stroke-width="1" opacity="1" d="M 119.5 29 L 121 29.5 L 118.5 31 L 119.5 29 Z " /><path fill="rgb(236,236,234)" stroke="rgb(236,236,234)" stroke-width="1" opacity="1" d="M 69 32 L 75 32.5 Q 70.1 42.1 61.5 48 Q 59.3 47.3 60 49.5 Q 58.8 52.3 57.5 50 L 51.5 55 L 62 43.5 L 69 32 Z " /><path fill="rgb(236,236,234)" stroke="rgb(236,236,234)" stroke-width="1" opacity="1" d="M 1 33 L 4.5 33 L 10 37.5 L 8.5 41 Q 3.8 40.8 2 37.5 L 1 33 Z " /><path fill="rgb(236,236,234)" stroke="rgb(236,236,234)" stroke-width="1" opacity="1" d="M 122.5 33 Q 127.3 31.3 126 35.5 L 122.5 40 L 118.5 41 L 117 37.5 L 122.5 33 Z " /><path fill="rgb(236,236,234)" stroke="rgb(236,236,234)" stroke-width="1" opacity="1" d="M 19.5 34 Q 23.9 32.5 23 35.5 L 16.5 40 L 14 39 L 16.5 35 L 19.5 34 Z " /><path fill="rgb(236,236,234)" stroke="rgb(236,236,234)" stroke-width="1" opacity="1" d="M 104 34 Q 110.5 33.3 113 37.5 Q 113.8 39.8 111.5 39 L 109.5 40 L 104 35.5 L 104 34 Z " /><path fill="rgb(236,236,234)" stroke="rgb(236,236,234)" stroke-width="1" opacity="1" d="M 19.5 42 Q 24.9 40.1 24 43.5 L 20.5 48 L 19 47.5 Q 19.8 49.8 17.5 49 L 16 49.5 L 17 47 L 15 46.5 L 19.5 42 Z " /><path fill="rgb(236,236,234)" stroke="rgb(236,236,234)" stroke-width="1" opacity="1" d="M 103 42 Q 110.3 40.8 112 46.5 Q 112.8 48.8 110.5 48 L 108 49 L 107.5 47 Q 106.3 49.3 105 46.5 L 103 42 Z " /><path fill="rgb(236,236,234)" stroke="rgb(236,236,234)" stroke-width="1" opacity="1" d="M 1 44 Q 9 43 12 48.5 L 9.5 52 L 8 51.5 L 10 51 L 9.5 49 L 5.5 51 L 5 49 L 1 47 L 1 44 Z " /><path fill="rgb(236,236,234)" stroke="rgb(236,236,234)" stroke-width="1" opacity="1" d="M 121.5 44 Q 127.8 42.1 126 47 L 124 47 L 124 49 Q 121.3 47.9 122 50.5 L 120.5 50 L 117 50.5 L 119 51.5 L 117.5 52 L 115 48.5 L 121.5 44 Z " /><path fill="rgb(236,236,234)" stroke="rgb(236,236,234)" stroke-width="1" opacity="1" d="M 23.5 49 L 26 49.5 L 23.5 50 L 23.5 49 Z " /><path fill="rgb(236,236,234)" stroke="rgb(236,236,234)" stroke-width="1" opacity="1" d="M 79.5 49 L 81 49.5 L 78.5 51 L 79.5 49 Z " /><path fill="rgb(236,236,234)" stroke="rgb(236,236,234)" stroke-width="1" opacity="1" d="M 56.5 52 L 56.5 54 L 74 54.5 L 55 55 L 56.5 52 Z " /><path fill="rgb(236,236,234)" stroke="rgb(236,236,234)" stroke-width="1" opacity="1" d="M 15.5 54 L 17 56.5 L 15 55.5 L 15.5 54 Z " /><path fill="rgb(236,236,234)" stroke="rgb(236,236,234)" stroke-width="1" opacity="1" d="M 21.5 54 L 22 55.5 L 21 58 Q 16.9 59.7 18 55.5 L 19 55.5 L 19.5 57 L 21.5 54 Z " /><path fill="rgb(236,236,234)" stroke="rgb(236,236,234)" stroke-width="1" opacity="1" d="M 102.5 54 L 104.5 56 L 105.5 55 L 108 56.5 L 108.5 55 L 109 58 L 113.5 60 L 115.5 59 L 115.5 60 L 112.5 62 L 110.5 59 L 106 58 L 105.5 56 L 104.5 57 L 102.5 54 Z " /><path fill="rgb(236,236,234)" stroke="rgb(236,236,234)" stroke-width="1" opacity="1" d="M 4.5 55 L 6 55.5 L 4 56 L 3.5 58 L 3 56.5 L 4.5 55 Z " /><path fill="rgb(236,236,234)" stroke="rgb(236,236,234)" stroke-width="1" opacity="1" d="M 120.5 55 L 124 56.5 L 123.5 58 L 123 56 Q 119.7 56.8 120.5 55 Z " /><path fill="rgb(236,236,234)" stroke="rgb(236,236,234)" stroke-width="1" opacity="1" d="M 99.5 56 L 101.5 59 L 99.5 56 Z " /><path fill="rgb(236,236,234)" stroke="rgb(236,236,234)" stroke-width="1" opacity="1" d="M 26.5 57 L 24.5 60 L 26.5 57 Z " /><path fill="rgb(236,236,234)" stroke="rgb(236,236,234)" stroke-width="1" opacity="1" d="M 16.5 58 L 15 60.5 L 14.5 62 L 11 59.5 L 12.5 59 L 14.5 60 L 16.5 58 Z " /><path fill="rgb(236,236,234)" stroke="rgb(236,236,234)" stroke-width="1" opacity="1" d="M 33.5 62 L 31.5 65 L 33.5 62 Z " /><path fill="rgb(236,236,234)" stroke="rgb(236,236,234)" stroke-width="1" opacity="1" d="M 93.5 62 L 95.5 65 L 93.5 62 Z " /><path fill="rgb(236,236,234)" stroke="rgb(236,236,234)" stroke-width="1" opacity="1" d="M 25.5 64 L 26 67 L 23 65.5 L 25 65.5 L 25.5 64 Z " /><path fill="rgb(236,236,234)" stroke="rgb(236,236,234)" stroke-width="1" opacity="1" d="M 101.5 64 L 102.5 66 L 104 65.5 L 101 67 L 101.5 64 Z " /><path fill="rgb(236,236,234)" stroke="rgb(236,236,234)" stroke-width="1" opacity="1" d="M 22.5 68 L 31 75.5 L 24.5 70 L 22.5 68 Z " /><path fill="rgb(236,236,234)" stroke="rgb(236,236,234)" stroke-width="1" opacity="1" d="M 104.5 68 L 103.5 70 L 104.5 68 Z " /><path fill="rgb(236,236,234)" stroke="rgb(236,236,234)" stroke-width="1" opacity="1" d="M 29.5 69 L 30 71.5 L 29 71.5 L 29.5 69 Z " /><path fill="rgb(236,236,234)" stroke="rgb(236,236,234)" stroke-width="1" opacity="1" d="M 97.5 69 L 98 71.5 L 97 71.5 L 97.5 69 Z " /><path fill="rgb(236,236,234)" stroke="rgb(236,236,234)" stroke-width="1" opacity="1" d="M 107.5 69 L 110 69.5 L 107.5 70 L 107.5 69 Z " /><path fill="rgb(236,236,234)" stroke="rgb(236,236,234)" stroke-width="1" opacity="1" d="M 118.5 69 L 117.5 71 L 118.5 69 Z " /><path fill="rgb(236,236,234)" stroke="rgb(236,236,234)" stroke-width="1" opacity="1" d="M 101.5 70 L 97.5 75 L 101.5 70 Z " /><path fill="rgb(236,236,234)" stroke="rgb(236,236,234)" stroke-width="1" opacity="1" d="M 94.5 71 L 95 73.5 L 94 73.5 L 94.5 71 Z " /><path fill="rgb(236,236,234)" stroke="rgb(236,236,234)" stroke-width="1" opacity="1" d="M 14.5 72 L 17 72.5 L 14.5 73 L 14.5 72 Z " /><path fill="rgb(236,236,234)" stroke="rgb(236,236,234)" stroke-width="1" opacity="1" d="M 110.5 72 L 113 72.5 L 110.5 73 L 110.5 72 Z " /><path fill="rgb(236,236,234)" stroke="rgb(236,236,234)" stroke-width="1" opacity="1" d="M 28.5 76 L 29 77.5 L 26.5 79 L 26.5 78 Q 29 78.7 28.5 76 Z " /><path fill="rgb(236,236,234)" stroke="rgb(236,236,234)" stroke-width="1" opacity="1" d="M 86.5 76 L 90 84.5 L 88 83.5 Q 85 80.8 86.5 76 Z " /><path fill="rgb(236,236,234)" stroke="rgb(236,236,234)" stroke-width="1" opacity="1" d="M 98.5 76 L 100 78.5 L 98 77.5 L 98.5 76 Z " /><path fill="rgb(236,236,234)" stroke="rgb(236,236,234)" stroke-width="1" opacity="1" d="M 40.5 77 L 41 79.5 L 36.5 86 L 38 83.5 L 40.5 77 Z " /><path fill="rgb(236,236,234)" stroke="rgb(236,236,234)" stroke-width="1" opacity="1" d="M 33.5 82 L 37 82.5 L 33.5 83 L 33.5 82 Z " /><path fill="rgb(236,236,234)" stroke="rgb(236,236,234)" stroke-width="1" opacity="1" d="M 41.5 82 L 40.5 84 L 41.5 82 Z " /><path fill="rgb(236,236,234)" stroke="rgb(236,236,234)" stroke-width="1" opacity="1" d="M 50.5 82 L 51 84.5 L 49 85.5 L 50.5 82 Z " /><path fill="rgb(236,236,234)" stroke="rgb(236,236,234)" stroke-width="1" opacity="1" d="M 76.5 82 L 78 85.5 L 76 84.5 L 76.5 82 Z " /><path fill="rgb(236,236,234)" stroke="rgb(236,236,234)" stroke-width="1" opacity="1" d="M 85.5 82 L 86.5 84 L 85.5 82 Z " /><path fill="rgb(236,236,234)" stroke="rgb(236,236,234)" stroke-width="1" opacity="1" d="M 90.5 82 L 94 82.5 L 90.5 83 L 90.5 82 Z " /><path fill="rgb(236,236,234)" stroke="rgb(236,236,234)" stroke-width="1" opacity="1" d="M 43.5 83 L 42.5 85 L 43.5 83 Z " /><path fill="rgb(236,236,234)" stroke="rgb(236,236,234)" stroke-width="1" opacity="1" d="M 76.5 87 L 79.5 91 L 76.5 87 Z " /><path fill="rgb(236,236,234)" stroke="rgb(236,236,234)" stroke-width="1" opacity="1" d="M 49.5 88 L 47.5 91 L 49.5 88 Z " /><path fill="rgb(242,243,240)" stroke="rgb(242,243,240)" stroke-width="1" opacity="1" d="M 20.5 0 L 21 2 L 16 1.5 L 20.5 0 Z " /><path fill="rgb(242,243,240)" stroke="rgb(242,243,240)" stroke-width="1" opacity="1" d="M 26.5 0 L 30 1.5 L 28.5 3 L 26 1.5 L 25.5 3 L 25 1.5 L 26.5 0 Z " /><path fill="rgb(242,243,240)" stroke="rgb(242,243,240)" stroke-width="1" opacity="1" d="M 99.5 0 L 103 1.5 Q 101.8 4.3 100.5 2 L 97 1.5 L 99.5 0 Z " /><path fill="rgb(242,243,240)" stroke="rgb(242,243,240)" stroke-width="1" opacity="1" d="M 106.5 1 L 110 1.5 L 108 2 L 108.5 4 L 110 3.5 L 106 6 L 107 2.5 L 106.5 1 Z " /><path fill="rgb(242,243,240)" stroke="rgb(242,243,240)" stroke-width="1" opacity="1" d="M 17.5 3 L 21 4.5 Q 21.8 6.8 19.5 6 L 17.5 3 Z " /><path fill="rgb(242,243,240)" stroke="rgb(242,243,240)" stroke-width="1" opacity="1" d="M 99.5 6 Q 102.1 5.3 101 8 L 103.5 8 L 102.5 10 L 99.5 6 Z " /><path fill="rgb(242,243,240)" stroke="rgb(242,243,240)" stroke-width="1" opacity="1" d="M 22.5 7 L 26 8.5 L 24.5 10 L 22.5 7 Z " /><path fill="rgb(242,243,240)" stroke="rgb(242,243,240)" stroke-width="1" opacity="1" d="M 62.5 8 L 67 8.5 L 62.5 9 L 62.5 8 Z " /><path fill="rgb(242,243,240)" stroke="rgb(242,243,240)" stroke-width="1" opacity="1" d="M 11.5 10 L 12.5 12 L 11.5 10 Z " /><path fill="rgb(242,243,240)" stroke="rgb(242,243,240)" stroke-width="1" opacity="1" d="M 117.5 13 L 116.5 15 L 117.5 13 Z " /><path fill="rgb(242,243,240)" stroke="rgb(242,243,240)" stroke-width="1" opacity="1" d="M 21.5 16 L 24 16.5 L 21.5 17 L 21.5 16 Z " /><path fill="rgb(242,243,240)" stroke="rgb(242,243,240)" stroke-width="1" opacity="1" d="M 54.5 16 L 51.5 20 L 54.5 16 Z " /><path fill="rgb(242,243,240)" stroke="rgb(242,243,240)" stroke-width="1" opacity="1" d="M 14.5 21 L 16 21.5 L 14 22 L 13.5 24 L 13 22.5 L 14.5 21 Z " /><path fill="rgb(242,243,240)" stroke="rgb(242,243,240)" stroke-width="1" opacity="1" d="M 111.5 21 L 112 22.5 L 110 23.5 L 111.5 21 Z " /><path fill="rgb(242,243,240)" stroke="rgb(242,243,240)" stroke-width="1" opacity="1" d="M 114.5 21 L 114 22.5 L 113.5 25 L 113 22.5 L 114.5 21 Z " /><path fill="rgb(242,243,240)" stroke="rgb(242,243,240)" stroke-width="1" opacity="1" d="M 124.5 23 L 125 25.5 L 124 25.5 L 124.5 23 Z " /><path fill="rgb(242,243,240)" stroke="rgb(242,243,240)" stroke-width="1" opacity="1" d="M 12.5 25 L 13.5 27 L 12.5 25 Z " /><path fill="rgb(242,243,240)" stroke="rgb(242,243,240)" stroke-width="1" opacity="1" d="M 114.5 26 L 115 28.5 L 114 28.5 L 114.5 26 Z " /><path fill="rgb(242,243,240)" stroke="rgb(242,243,240)" stroke-width="1" opacity="1" d="M 113.5 30 Q 116.5 30.5 116 34.5 L 115 37.5 L 116 41.5 L 115 41.5 L 113.5 31 L 112 31.5 L 113.5 30 Z " /><path fill="rgb(242,243,240)" stroke="rgb(242,243,240)" stroke-width="1" opacity="1" d="M 7.5 34 L 9.5 37 L 7.5 34 Z " /><path fill="rgb(242,243,240)" stroke="rgb(242,243,240)" stroke-width="1" opacity="1" d="M 12.5 34 L 13 37.5 L 12 37.5 L 12.5 34 Z " /><path fill="rgb(242,243,240)" stroke="rgb(242,243,240)" stroke-width="1" opacity="1" d="M 15.5 35 L 14.5 37 L 15.5 35 Z " /><path fill="rgb(242,243,240)" stroke="rgb(242,243,240)" stroke-width="1" opacity="1" d="M 111.5 35 L 112.5 37 L 111.5 35 Z " /><path fill="rgb(242,243,240)" stroke="rgb(242,243,240)" stroke-width="1" opacity="1" d="M 11.5 39 L 12 41.5 L 10 40.5 L 11.5 39 Z " /><path fill="rgb(242,243,240)" stroke="rgb(242,243,240)" stroke-width="1" opacity="1" d="M 68.5 41 L 67.5 43 L 68.5 41 Z " /><path fill="rgb(242,243,240)" stroke="rgb(242,243,240)" stroke-width="1" opacity="1" d="M 58.5 46 L 56.5 49 L 58.5 46 Z " /><path fill="rgb(242,243,240)" stroke="rgb(242,243,240)" stroke-width="1" opacity="1" d="M 59.5 50 L 56.5 54 L 59.5 50 Z " /><path fill="rgb(242,243,240)" stroke="rgb(242,243,240)" stroke-width="1" opacity="1" d="M 24.5 55 L 23.5 57 L 24.5 55 Z " /><path fill="rgb(242,243,240)" stroke="rgb(242,243,240)" stroke-width="1" opacity="1" d="M 102.5 55 L 104.5 58 L 102.5 55 Z " /><path fill="rgb(242,243,240)" stroke="rgb(242,243,240)" stroke-width="1" opacity="1" d="M 48.5 56 L 47.5 58 L 48.5 56 Z " /><path fill="rgb(242,243,240)" stroke="rgb(242,243,240)" stroke-width="1" opacity="1" d="M 14.5 57 L 15.5 59 L 14.5 57 Z " /><path fill="rgb(242,243,240)" stroke="rgb(242,243,240)" stroke-width="1" opacity="1" d="M 112.5 57 L 111.5 59 L 112.5 57 Z " /><path fill="rgb(242,243,240)" stroke="rgb(242,243,240)" stroke-width="1" opacity="1" d="M 99.5 65 L 100.5 67 L 99.5 65 Z " /><path fill="rgb(242,243,240)" stroke="rgb(242,243,240)" stroke-width="1" opacity="1" d="M 118.5 66 L 119.5 68 L 118.5 66 Z " /><path fill="rgb(242,243,240)" stroke="rgb(242,243,240)" stroke-width="1" opacity="1" d="M 24.5 71 L 25.5 73 L 24.5 71 Z " /><path fill="rgb(242,243,240)" stroke="rgb(242,243,240)" stroke-width="1" opacity="1" d="M 27.5 75 L 31 77.5 L 29 78.5 Q 31.3 77.3 28.5 76 L 27.5 75 Z " /><path fill="rgb(242,243,240)" stroke="rgb(242,243,240)" stroke-width="1" opacity="1" d="M 31.5 75 L 32.5 77 L 31.5 75 Z " /><path fill="rgb(242,243,240)" stroke="rgb(242,243,240)" stroke-width="1" opacity="1" d="M 97.5 76 L 96.5 78 L 97.5 76 Z " /><path fill="rgb(242,243,240)" stroke="rgb(242,243,240)" stroke-width="1" opacity="1" d="M 47.5 83 L 48.5 85 Q 45.7 85.7 47.5 83 Z " /><path fill="rgb(242,243,240)" stroke="rgb(242,243,240)" stroke-width="1" opacity="1" d="M 79.5 83 L 80 85 L 78 84.5 L 79.5 83 Z " /><path fill="rgb(244,245,241)" stroke="rgb(244,245,241)" stroke-width="1" opacity="1" d="M 21.5 0 L 23 4.5 L 20.5 8 L 17.5 4 L 21 6 L 21.5 0 Z " /><path fill="rgb(244,245,241)" stroke="rgb(244,245,241)" stroke-width="1" opacity="1" d="M 24.5 0 L 25 3 L 28 3.5 L 25.5 4 Q 23 3 24.5 0 Z " /><path fill="rgb(244,245,241)" stroke="rgb(244,245,241)" stroke-width="1" opacity="1" d="M 110.5 0 L 111 2.5 L 110 2.5 L 110.5 0 Z " /><path fill="rgb(244,245,241)" stroke="rgb(244,245,241)" stroke-width="1" opacity="1" d="M 105.5 2 L 106 4.5 L 104.5 7 L 108 9.5 L 104 8.5 L 103 6.5 L 105.5 2 Z " /><path fill="rgb(244,245,241)" stroke="rgb(244,245,241)" stroke-width="1" opacity="1" d="M 12.5 3 L 11.5 5 L 12.5 3 Z " /><path fill="rgb(244,245,241)" stroke="rgb(244,245,241)" stroke-width="1" opacity="1" d="M 114.5 3 L 115.5 5 L 114.5 4 L 111 6.5 L 114.5 3 Z " /><path fill="rgb(244,245,241)" stroke="rgb(244,245,241)" stroke-width="1" opacity="1" d="M 109.5 4 L 108.5 6 L 109.5 4 Z " /><path fill="rgb(244,245,241)" stroke="rgb(244,245,241)" stroke-width="1" opacity="1" d="M 14.5 5 L 15.5 7 L 14.5 5 Z " /><path fill="rgb(244,245,241)" stroke="rgb(244,245,241)" stroke-width="1" opacity="1" d="M 24.5 5 L 27 5.5 L 23.5 7 L 24.5 5 Z " /><path fill="rgb(244,245,241)" stroke="rgb(244,245,241)" stroke-width="1" opacity="1" d="M 97.5 6 L 99 6.5 L 96.5 8 L 97.5 6 Z " /><path fill="rgb(244,245,241)" stroke="rgb(244,245,241)" stroke-width="1" opacity="1" d="M 22.5 8 L 23.5 10 L 22.5 8 Z " /><path fill="rgb(244,245,241)" stroke="rgb(244,245,241)" stroke-width="1" opacity="1" d="M 19.5 9 L 20 10.5 L 18.5 16 L 16 15 L 19.5 9 Z " /><path fill="rgb(244,245,241)" stroke="rgb(244,245,241)" stroke-width="1" opacity="1" d="M 56.5 9 L 55.5 11 L 56.5 9 Z " /><path fill="rgb(244,245,241)" stroke="rgb(244,245,241)" stroke-width="1" opacity="1" d="M 26.5 10 L 30 10.5 L 26.5 11 L 26.5 10 Z " /><path fill="rgb(244,245,241)" stroke="rgb(244,245,241)" stroke-width="1" opacity="1" d="M 72.5 10 L 75.5 14 L 72.5 10 Z " /><path fill="rgb(244,245,241)" stroke="rgb(244,245,241)" stroke-width="1" opacity="1" d="M 97.5 10 L 101 10.5 L 97.5 11 L 97.5 10 Z " /><path fill="rgb(244,245,241)" stroke="rgb(244,245,241)" stroke-width="1" opacity="1" d="M 108.5 11 L 110.5 14 L 112 13.5 L 111 15.5 L 112 18.5 L 111 18.5 L 110 14 L 107 12.5 L 108.5 11 Z " /><path fill="rgb(244,245,241)" stroke="rgb(244,245,241)" stroke-width="1" opacity="1" d="M 100.5 12 L 102 12.5 L 99.5 14 L 100.5 12 Z " /><path fill="rgb(244,245,241)" stroke="rgb(244,245,241)" stroke-width="1" opacity="1" d="M 51.5 14 L 50.5 16 L 51.5 14 Z " /><path fill="rgb(244,245,241)" stroke="rgb(244,245,241)" stroke-width="1" opacity="1" d="M 67.5 16 L 68.5 18 L 67.5 16 Z " /><path fill="rgb(244,245,241)" stroke="rgb(244,245,241)" stroke-width="1" opacity="1" d="M 102.5 19 L 101.5 21 L 102.5 19 Z " /><path fill="rgb(244,245,241)" stroke="rgb(244,245,241)" stroke-width="1" opacity="1" d="M 13.5 21 L 15.5 24 L 13.5 21 Z " /><path fill="rgb(244,245,241)" stroke="rgb(244,245,241)" stroke-width="1" opacity="1" d="M 123.5 21 L 124.5 23 L 123.5 21 Z " /><path fill="rgb(244,245,241)" stroke="rgb(244,245,241)" stroke-width="1" opacity="1" d="M 6.5 22 L 7.5 24 L 6.5 22 Z " /><path fill="rgb(244,245,241)" stroke="rgb(244,245,241)" stroke-width="1" opacity="1" d="M 120.5 22 L 117.5 26 L 120.5 22 Z " /><path fill="rgb(244,245,241)" stroke="rgb(244,245,241)" stroke-width="1" opacity="1" d="M 113 25 L 115 25.5 L 113 26.5 L 113 25 Z " /><path fill="rgb(244,245,241)" stroke="rgb(244,245,241)" stroke-width="1" opacity="1" d="M 22.5 33 L 23.5 35 L 22.5 33 Z " /><path fill="rgb(244,245,241)" stroke="rgb(244,245,241)" stroke-width="1" opacity="1" d="M 120.5 33 L 119.5 35 L 120.5 33 Z " /><path fill="rgb(244,245,241)" stroke="rgb(244,245,241)" stroke-width="1" opacity="1" d="M 72.5 37 L 69.5 41 L 72.5 37 Z " /><path fill="rgb(244,245,241)" stroke="rgb(244,245,241)" stroke-width="1" opacity="1" d="M 62.5 41 L 61.5 43 L 62.5 41 Z " /><path fill="rgb(244,245,241)" stroke="rgb(244,245,241)" stroke-width="1" opacity="1" d="M 117.5 45 L 115.5 48 L 117.5 45 Z " /><path fill="rgb(244,245,241)" stroke="rgb(244,245,241)" stroke-width="1" opacity="1" d="M 22.5 46 L 21.5 48 L 22.5 46 Z " /><path fill="rgb(244,245,241)" stroke="rgb(244,245,241)" stroke-width="1" opacity="1" d="M 55.5 49 L 49.5 56 L 55.5 49 Z " /><path fill="rgb(244,245,241)" stroke="rgb(244,245,241)" stroke-width="1" opacity="1" d="M 25.5 57 L 24.5 59 L 25.5 57 Z " /><path fill="rgb(244,245,241)" stroke="rgb(244,245,241)" stroke-width="1" opacity="1" d="M 32.5 62 L 31.5 64 L 32.5 62 Z " /><path fill="rgb(244,245,241)" stroke="rgb(244,245,241)" stroke-width="1" opacity="1" d="M 94.5 62 L 95.5 64 L 94.5 62 Z " /><path fill="rgb(244,245,241)" stroke="rgb(244,245,241)" stroke-width="1" opacity="1" d="M 24 67 L 26 67.5 L 24 68.5 L 24 67 Z " /><path fill="rgb(244,245,241)" stroke="rgb(244,245,241)" stroke-width="1" opacity="1" d="M 101.5 67 Q 103.8 66.3 103 68.5 L 101.5 67 Z " /><path fill="rgb(244,245,241)" stroke="rgb(244,245,241)" stroke-width="1" opacity="1" d="M 43.5 72 L 44 74.5 L 43 74.5 L 43.5 72 Z " /><path fill="rgb(244,245,241)" stroke="rgb(244,245,241)" stroke-width="1" opacity="1" d="M 83.5 72 L 84 74.5 L 83 74.5 L 83.5 72 Z " /><path fill="rgb(244,245,241)" stroke="rgb(244,245,241)" stroke-width="1" opacity="1" d="M 25.5 85 L 24.5 87 L 25.5 85 Z " /><path fill="rgb(244,245,242)" stroke="rgb(244,245,242)" stroke-width="1" opacity="1" d="M 17.5 0 L 20 0.5 L 17.5 1 L 17.5 0 Z " /><path fill="rgb(244,245,242)" stroke="rgb(244,245,242)" stroke-width="1" opacity="1" d="M 105 0 L 110 0.5 L 105.5 2 L 105 0 Z " /><path fill="rgb(244,245,242)" stroke="rgb(244,245,242)" stroke-width="1" opacity="1" d="M 105.5 6 L 108 6.5 Q 105.9 9.8 105.5 6 Z " /><path fill="rgb(244,245,242)" stroke="rgb(244,245,242)" stroke-width="1" opacity="1" d="M 122.5 31 L 121.5 33 L 120 32.5 L 122.5 31 Z " /><path fill="rgb(244,245,242)" stroke="rgb(244,245,242)" stroke-width="1" opacity="1" d="M 121.5 42 L 123 42.5 L 120.5 44 L 121.5 42 Z " /><path fill="rgb(244,245,242)" stroke="rgb(244,245,242)" stroke-width="1" opacity="1" d="M 124.5 42 L 127 43.5 L 126.5 45 L 124.5 42 Z " /><path fill="rgb(244,245,242)" stroke="rgb(244,245,242)" stroke-width="1" opacity="1" d="M 126.5 47 L 127 55.5 L 126 55.5 Q 126.8 53.3 124.5 54 L 123.5 55 L 115.5 55 L 113.5 57 Q 110.8 55.8 113 54.5 L 113.5 52 L 115.5 52 Q 122.4 52.7 125 50 L 126.5 47 Z " /><path fill="rgb(244,245,242)" stroke="rgb(244,245,242)" stroke-width="1" opacity="1" d="M 111.5 50 L 112 52 L 110 51.5 L 111.5 50 Z " /><path fill="rgb(244,245,242)" stroke="rgb(244,245,242)" stroke-width="1" opacity="1" d="M 96.5 51 Q 98.8 50.3 98 52.5 L 96.5 51 Z " /><path fill="rgb(244,245,242)" stroke="rgb(244,245,242)" stroke-width="1" opacity="1" d="M 90 53 L 92 53.5 L 90 54.5 L 90 53 Z " /><path fill="rgb(244,245,242)" stroke="rgb(244,245,242)" stroke-width="1" opacity="1" d="M 110.5 53 L 111 54.5 L 109.5 57 L 109 54.5 L 110.5 53 Z " /><path fill="rgb(244,245,242)" stroke="rgb(244,245,242)" stroke-width="1" opacity="1" d="M 93.5 54 L 96 57.5 L 94 56.5 L 93.5 54 Z " /><path fill="rgb(244,245,242)" stroke="rgb(244,245,242)" stroke-width="1" opacity="1" d="M 92.5 56 L 93 57.5 Q 90.8 58.8 93.5 60 L 95 59.5 Q 92.8 60.8 95.5 62 L 98 63.5 L 97.5 65 L 100 66.5 L 99 69 L 101.5 68 L 102 69.5 L 97 73.5 L 99 69.5 L 94.5 62 Q 92.3 62.8 93 60.5 L 90 61.5 L 92 57.5 L 92.5 56 Z " /><path fill="rgb(244,245,242)" stroke="rgb(244,245,242)" stroke-width="1" opacity="1" d="M 102.5 56 Q 105.3 61.4 108 59.5 L 104.5 66 L 102.5 56 Z " /><path fill="rgb(244,245,242)" stroke="rgb(244,245,242)" stroke-width="1" opacity="1" d="M 85.5 57 L 84.5 59 L 85.5 57 Z " /><path fill="rgb(244,245,242)" stroke="rgb(244,245,242)" stroke-width="1" opacity="1" d="M 124.5 58 L 127 58.5 L 127 68.5 L 126 70.5 L 127 73.5 L 126 75.5 L 127 78 L 124 79.5 Q 123 83.3 126 82 L 126.5 80 L 127 82.5 L 127 84.5 L 127 100 L 92 100 Q 93.1 97.3 90.5 98 L 89 98.5 Q 88.3 96.3 90.5 97 L 97 96 Q 98.3 93 94.5 94 L 92.5 94 L 87 89.5 L 91.5 89 Q 93.2 92.5 99 91 L 99.5 93 L 103 91 L 101 83 L 91 81.5 L 96.5 78 Q 99.4 82.6 106.5 83 L 113 78.5 L 108.5 75 L 100 74.5 L 103 73 L 104.5 69 L 106.5 72 L 114.5 73 L 120 68.5 L 118.5 66 L 110.5 65 L 108 65.5 L 107.5 67 L 107 65.5 L 110 64 L 110.5 60 L 111 62 L 117.5 63 L 124.5 58 Z M 115 76 Q 114 79 117 78 Q 118 75 115 76 Z M 122 78 L 122 80 L 124 79 L 122 78 Z M 118 81 L 119 83 L 121 82 L 118 81 Z M 122 83 Q 121 86 124 85 Q 125 82 122 83 Z M 108 85 L 108 87 L 112 87 L 112 86 L 111 86 L 108 85 Z M 113 87 L 114 89 L 117 88 L 113 87 Z M 97 96 Q 96 100 99 99 Q 100 95 97 96 Z " /><path fill="rgb(244,245,242)" stroke="rgb(244,245,242)" stroke-width="1" opacity="1" d="M 78.5 60 L 82 62.5 L 79.5 64 L 78.5 60 Z " /><path fill="rgb(244,245,242)" stroke="rgb(244,245,242)" stroke-width="1" opacity="1" d="M 86.5 60 L 87.5 62 Q 84.7 62.7 86.5 60 Z " /><path fill="rgb(244,245,242)" stroke="rgb(244,245,242)" stroke-width="1" opacity="1" d="M 68.5 62 L 66 65.5 L 66.5 67 L 65 65.5 L 68.5 62 Z " /><path fill="rgb(244,245,242)" stroke="rgb(244,245,242)" stroke-width="1" opacity="1" d="M 90.5 63 L 92 72 Q 89.3 73.1 90 70.5 L 86.5 66 L 85 66.5 Q 84.3 64.3 86.5 65 L 90.5 63 Z " /><path fill="rgb(244,245,242)" stroke="rgb(244,245,242)" stroke-width="1" opacity="1" d="M 72.5 67 L 71.5 69 L 72.5 67 Z " /><path fill="rgb(244,245,242)" stroke="rgb(244,245,242)" stroke-width="1" opacity="1" d="M 81.5 67 L 84 67.5 L 84 69.5 L 83 74.5 L 86 81.5 L 80.5 83 L 81 81.5 L 82 75.5 L 82 73.5 L 81 69.5 L 81.5 67 Z " /><path fill="rgb(244,245,242)" stroke="rgb(244,245,242)" stroke-width="1" opacity="1" d="M 65.5 68 L 64.5 70 L 65.5 68 Z " /><path fill="rgb(244,245,242)" stroke="rgb(244,245,242)" stroke-width="1" opacity="1" d="M 69.5 69 L 70.5 71 L 72.5 70 L 72.5 71 L 70.5 72 L 66 70.5 L 69.5 69 Z " /><path fill="rgb(244,245,242)" stroke="rgb(244,245,242)" stroke-width="1" opacity="1" d="M 77.5 69 L 79 69.5 L 76 71.5 L 74 81.5 L 75 86 L 70 85 Q 71.3 88.3 66.5 87 L 62.5 89 L 59 87 Q 60.1 84.3 57.5 85 L 52 86 L 52.5 82 L 55 83 L 55 78 L 56.5 78 L 59 76.5 L 59 78.5 L 59.5 80 L 60.5 76 L 61 78 L 63.5 79 L 66 75.5 L 65.5 74 Q 67.2 76.8 72.5 76 L 72.5 75 Q 70.3 75.8 71 73.5 L 74 72.5 L 74.5 70 Q 76 72.5 77.5 69 Z M 56 80 L 56 83 L 59 83 L 59 82 L 56 80 Z M 66 80 L 66 83 L 68 82 Q 69 79 66 80 Z M 61 81 L 60 85 L 61 86 L 64 85 L 63 84 Q 64 80 61 81 Z M 68 83 Q 67 86 70 85 Q 71 82 68 83 Z " /><path fill="rgb(244,245,242)" stroke="rgb(244,245,242)" stroke-width="1" opacity="1" d="M 55.5 71 L 54.5 73 L 55.5 71 Z " /><path fill="rgb(244,245,242)" stroke="rgb(244,245,242)" stroke-width="1" opacity="1" d="M 66.5 72 Q 68.8 71.3 68 73.5 L 66.5 72 Z " /><path fill="rgb(244,245,242)" stroke="rgb(244,245,242)" stroke-width="1" opacity="1" d="M 90.5 73 L 91 76 Q 93.7 77.1 93 74.5 L 95 75.5 L 90.5 79 L 90.5 73 Z " /><path fill="rgb(244,245,242)" stroke="rgb(244,245,242)" stroke-width="1" opacity="1" d="M 32.5 80 L 33.5 82 L 32.5 80 Z " /><path fill="rgb(244,245,242)" stroke="rgb(244,245,242)" stroke-width="1" opacity="1" d="M 45.5 81 L 47 84 Q 43.5 85.1 45.5 81 Z " /><path fill="rgb(244,245,242)" stroke="rgb(244,245,242)" stroke-width="1" opacity="1" d="M 26.5 82 L 27 84.5 L 26 84.5 L 26.5 82 Z " /><path fill="rgb(244,245,242)" stroke="rgb(244,245,242)" stroke-width="1" opacity="1" d="M 13.5 83 L 12.5 85 L 13.5 83 Z " /><path fill="rgb(244,245,242)" stroke="rgb(244,245,242)" stroke-width="1" opacity="1" d="M 39.5 85 L 41.5 86 L 43.5 86 L 46 86.5 L 36 92 L 36 97 L 37.5 97 L 37 98.5 L 37 100 L 32 100 Q 33 97 30 98 L 29.5 100 L 18 100 Q 19 97 16 98 Q 17.2 101.7 12 100 Q 13 97 10 98 Q 11.1 101.5 3.5 100 L 1.5 100 Q -1.5 100.9 0 96.5 L 2.5 96 L 10 98 L 9.5 95 L 6.5 96 L 7.5 94 Q 9 96.5 10.5 93 L 12.5 94 L 13.5 92 L 12 91.5 L 12.5 89 L 14 89.5 L 14.5 88 L 15 89.5 L 14 91.5 L 16 91.5 L 14 96 L 17 96 Q 15.7 91.9 19 93 L 18 95.5 L 19 98 Q 22.3 99.3 21 94.5 L 26.5 90 Q 28 93.5 29.5 91 Q 37 91 40 86.5 L 39.5 85 Z M 23 96 L 23 98 L 26 98 L 23 96 Z " /><path fill="rgb(244,245,242)" stroke="rgb(244,245,242)" stroke-width="1" opacity="1" d="M 84.5 85 Q 89.3 83.7 88 87 Q 85.3 85.9 86 88.5 L 84.5 88 L 82 87.5 L 84.5 85 Z " /><path fill="rgb(244,245,242)" stroke="rgb(244,245,242)" stroke-width="1" opacity="1" d="M 17.5 86 L 16.5 88 L 17.5 86 Z " /><path fill="rgb(244,245,242)" stroke="rgb(244,245,242)" stroke-width="1" opacity="1" d="M 50.5 88 L 57.5 89 L 60 91.5 L 59 95 L 64.5 93 L 68 95 Q 66.7 91.7 71.5 93 L 71.5 92 L 66 91.5 L 69.5 89 L 76.5 88 L 77 90.5 Q 77.8 92.8 75.5 92 L 75.5 93 L 79 94.5 Q 78.3 96.8 80.5 96 L 88 98 L 87.5 100 L 74 100 L 73.5 98 L 73 100 L 70 100 Q 71 97 68 98 L 68 100 L 63 100 Q 64 97 61 98 L 60.5 100 L 39 100 Q 37.6 96.3 43.5 98 L 49.5 93 L 50 96 Q 53.3 97.3 52 92.5 L 52 90.5 Q 52.8 88.3 50.5 89 L 50.5 88 Z " /><path fill="rgb(245,246,242)" stroke="rgb(245,246,242)" stroke-width="1" opacity="1" d="M 0 0 L 15.5 0 L 16 2.5 L 20.5 9 L 23 4.5 L 22 0 Q 25 -1.3 24 2.5 L 27.5 4 L 31.5 0 L 95.5 0 L 101.5 4 L 103 0 Q 106.7 -1.4 105 4.5 Q 107.3 5.8 104.5 7 L 100.5 5 L 95 8.5 Q 94.3 10.8 96.5 10 L 100.5 11 L 105.5 8 L 107 8.5 L 111 2.5 L 111 0 L 127 0 L 127 25.5 L 127 27.5 L 126.5 33 L 123.5 32 L 121.5 32 Q 119.3 31.3 120 33.5 L 116 36.5 L 116.5 31 L 118.5 32 L 124 27.5 L 125 22.5 L 122.5 21 L 117 25.5 L 115.5 30 L 112.5 19 L 111.5 21 Q 109.7 17.3 102.5 19 Q 99 21 103.5 23 L 110.5 24 L 113 23 L 114 29.5 L 113 29.5 L 111.5 27 L 106.5 25 L 103 26 Q 102.3 29.8 105.5 31 L 114 32 L 113.5 38 L 110.5 34 L 104.5 33 Q 101.8 34.3 104 35.5 L 107.5 40 L 114 42 L 112.5 48 L 108.5 42 L 103 41 L 103 44.5 L 106.5 50 L 108.5 50 L 111 50.5 L 109.5 54 Q 107.2 48.8 100.5 48 Q 97.8 49.3 100 50.5 L 102 56.5 L 100.5 56 L 96 55 L 95 57.5 L 97 62 L 93.5 60 L 88.5 65 L 86.5 65 Q 83.9 64.2 85 67.5 L 83 68.5 L 83.5 67 L 81 67.5 L 81 69.5 L 82 73.5 L 81 73.5 L 79 69 L 77 69.5 Q 79.3 70.7 76.5 72 L 74 70.5 L 73.5 73 Q 72.3 70.8 71 73.5 Q 70.3 75.8 72.5 75 L 72.5 76 L 66.5 75 L 65.5 78 L 64 77.5 L 62.5 80 L 62.5 78 Q 60.3 78.8 61 76.5 L 60 76.5 L 59.5 80 L 57.5 77 L 55 78 L 55.5 83 L 56 80 L 59 81.5 L 58.5 83 L 54.5 83 Q 51.5 83.9 53 79.5 Q 50.8 78.3 52 73.5 L 49.5 71 L 46 72.5 L 45 78.5 L 46 80.5 L 45 83 L 41 81.5 L 43 79.5 L 44 71.5 L 41.5 67 Q 38.2 65.9 39 68.5 Q 35 70.5 37 78.5 L 37.5 80 L 32 75.5 Q 37.4 72.4 36 62.5 Q 34.8 59.8 33.5 62 L 31 63.5 Q 28.2 66.2 29 72.5 L 29.5 74 L 25 68.5 Q 30.7 65.2 31 56.5 L 28.5 55 L 24 58.5 L 22.5 66 L 19 59 Q 23.7 59.8 25 55.5 L 27 48 Q 20.6 48.2 18 53.5 L 17.5 57 L 15 50 L 18.5 50 L 23 46.5 L 24 41 Q 17.5 40.8 15 45.5 L 14.5 48 L 13 41 Q 20.6 42.1 23 36.5 L 24 34.5 Q 23.3 32.3 19.5 33 L 13.5 37 L 13 32 Q 21.2 33.5 24 28.5 Q 25.3 24.8 21.5 26 L 19.5 26 L 13.5 29 L 13 27.5 L 14.5 23 Q 16.3 25.8 22.5 24 L 25 23 L 26 20.5 Q 24.3 17.3 17.5 19 L 15 20.5 L 14.5 19 L 13.5 21 Q 13 14.5 8.5 12 L 6 12 L 6 17.5 L 9.5 22 Q 14.3 20.3 13 24.5 L 10.5 38 L 7.5 34 L 1.5 32 L 0 32.5 L 0 0 Z M 13 3 L 10 7 L 11 11 L 16 14 L 15 17 L 16 19 L 18 15 L 21 17 Q 26 18 28 16 L 27 12 Q 20 10 19 13 L 16 7 L 13 3 Z M 115 3 L 112 4 L 109 13 Q 107 10 101 12 L 99 16 L 102 17 Q 106 18 108 16 Q 110 17 109 15 Q 110 12 112 14 L 115 13 L 117 8 L 115 3 Z M 25 5 L 22 9 L 27 11 L 31 10 Q 33 11 32 9 L 25 5 Z M 60 8 L 54 11 L 48 19 L 50 22 Q 53 16 61 14 L 66 15 L 70 21 Q 71 31 67 36 L 47 58 L 48 61 L 79 61 L 80 55 Q 83 53 81 52 L 82 49 L 80 48 L 78 51 L 73 54 L 57 54 L 73 38 L 78 28 Q 80 18 76 14 Q 72 6 60 8 Z M 20 9 L 18 12 L 20 11 L 20 9 Z M 108 9 L 107 11 L 109 12 L 108 9 Z M 119 12 Q 113 14 114 22 Q 120 23 121 19 L 121 12 L 119 12 Z M 111 14 L 111 19 L 112 19 L 111 14 Z M 2 22 L 3 28 L 9 32 L 11 31 L 10 26 Q 8 21 2 22 Z M 97 51 L 98 53 Q 99 50 97 51 Z M 90 53 L 90 55 L 92 54 L 90 53 Z M 87 60 Q 85 63 88 62 L 87 60 Z M 70 69 L 66 71 L 70 71 L 70 69 Z M 67 72 L 68 74 Q 69 71 67 72 Z " /><path fill="rgb(245,246,242)" stroke="rgb(245,246,242)" stroke-width="1" opacity="1" d="M 0.5 35 L 4.5 41 L 9.5 42 L 11 41.5 L 12 46.5 L 10.5 46 L 2.5 43 Q 0.3 43.8 1 47.5 Q 2.9 53.1 11.5 52 Q 12.8 49.8 14 52.5 L 16 57.5 L 13.5 56 L 3 55 Q 2 60.6 6.5 62 L 12.5 63 L 16 62 L 16.5 60 L 20 66.5 L 18.5 66 L 10.5 65 L 7 67.5 L 10.5 72 L 18.5 73 L 22 70.5 L 22.5 69 L 27 74.5 L 18.5 75 L 14 78.5 Q 16.3 83.3 23.5 83 L 26 82 L 24 88.5 L 25 90.5 Q 20 92 21 98 Q 18.3 99.1 19 96.5 L 19 94.5 Q 19.7 91.9 17 93 Q 18.5 97.5 14 96 L 16 91.5 L 12.5 94 L 11.5 93 L 9 94.5 L 10 98 Q 13 97 12 100 Q 9 101 10 98 L 6.5 98 L 2.5 96 Q 1.3 98.3 0 95.5 L 0.5 35 Z M 14 90 L 12 92 L 14 92 L 14 90 Z M 8 94 L 6 96 L 9 96 L 8 94 Z " /><path fill="rgb(245,246,242)" stroke="rgb(245,246,242)" stroke-width="1" opacity="1" d="M 125.5 38 Q 128.9 37.1 127 42.5 L 125.5 42 L 123.5 43 L 121.5 42 Q 120.2 45.7 116 45 L 115.5 47 L 115 43.5 L 116.5 42 L 122.5 41 L 125.5 38 Z " /><path fill="rgb(245,246,242)" stroke="rgb(245,246,242)" stroke-width="1" opacity="1" d="M 124 54 Q 126.7 52.9 126 55.5 L 127 58 Q 122.1 59.6 124 54 Z " /><path fill="rgb(245,246,242)" stroke="rgb(245,246,242)" stroke-width="1" opacity="1" d="M 112.5 56 L 111.5 58 L 112.5 56 Z " /><path fill="rgb(245,246,242)" stroke="rgb(245,246,242)" stroke-width="1" opacity="1" d="M 109.5 62 L 110 64 L 108 63.5 L 109.5 62 Z " /><path fill="rgb(245,246,242)" stroke="rgb(245,246,242)" stroke-width="1" opacity="1" d="M 98.5 66 L 101 67 L 101 69 Q 98.3 67.9 99 70.5 L 98 70.5 L 99 67.5 L 98.5 66 Z " /><path fill="rgb(245,246,242)" stroke="rgb(245,246,242)" stroke-width="1" opacity="1" d="M 90.5 72 L 93 73.5 Q 94 77.3 91 76 L 90.5 72 Z " /><path fill="rgb(245,246,242)" stroke="rgb(245,246,242)" stroke-width="1" opacity="1" d="M 115 76 Q 118 75 117 78 Q 114 79 115 76 Z " /><path fill="rgb(245,246,242)" stroke="rgb(245,246,242)" stroke-width="1" opacity="1" d="M 69.5 77 L 70.5 79 L 69.5 77 Z " /><path fill="rgb(245,246,242)" stroke="rgb(245,246,242)" stroke-width="1" opacity="1" d="M 30.5 78 L 36 81.5 L 34.5 82 L 32.5 82 L 27.5 84 L 27 81.5 L 30.5 78 Z " /><path fill="rgb(245,246,242)" stroke="rgb(245,246,242)" stroke-width="1" opacity="1" d="M 122 78 L 124.5 79 L 127 78 L 126 82 Q 123 83.3 124 79.5 L 122 79.5 L 122 78 Z " /><path fill="rgb(245,246,242)" stroke="rgb(245,246,242)" stroke-width="1" opacity="1" d="M 66 80 Q 68.7 78.9 68 81.5 L 66 82.5 L 66 80 Z " /><path fill="rgb(245,246,242)" stroke="rgb(245,246,242)" stroke-width="1" opacity="1" d="M 61 81 Q 64 79.8 63 83.5 L 63.5 85 L 60.5 86 L 60 84.5 L 61 81 Z " /><path fill="rgb(245,246,242)" stroke="rgb(245,246,242)" stroke-width="1" opacity="1" d="M 117.5 81 L 121 81.5 L 118 83.5 L 118.5 85 L 117 83.5 L 117.5 81 Z " /><path fill="rgb(245,246,242)" stroke="rgb(245,246,242)" stroke-width="1" opacity="1" d="M 68 83 L 70 83 Q 68.9 85.7 71.5 85 L 71.5 86 L 68 85 L 68 83 Z " /><path fill="rgb(245,246,242)" stroke="rgb(245,246,242)" stroke-width="1" opacity="1" d="M 99.5 83 Q 101.8 82.3 101 84.5 L 99.5 83 Z " /><path fill="rgb(245,246,242)" stroke="rgb(245,246,242)" stroke-width="1" opacity="1" d="M 122 83 Q 125 82 124 85 Q 121 86 122 83 Z " /><path fill="rgb(245,246,242)" stroke="rgb(245,246,242)" stroke-width="1" opacity="1" d="M 39.5 84 L 42 85.5 L 40.5 85 L 39.5 84 Z " /><path fill="rgb(245,246,242)" stroke="rgb(245,246,242)" stroke-width="1" opacity="1" d="M 57 85 Q 60 84 59 87 Q 56 88 57 85 Z " /><path fill="rgb(245,246,242)" stroke="rgb(245,246,242)" stroke-width="1" opacity="1" d="M 108 85 L 110.5 86 L 112 85.5 L 112 87 L 108 87 L 108 85 Z " /><path fill="rgb(245,246,242)" stroke="rgb(245,246,242)" stroke-width="1" opacity="1" d="M 86 87 L 90 88.5 L 86 89 L 86 87 Z " /><path fill="rgb(245,246,242)" stroke="rgb(245,246,242)" stroke-width="1" opacity="1" d="M 113 87 L 117 87.5 L 113.5 89 L 113 87 Z " /><path fill="rgb(245,246,242)" stroke="rgb(245,246,242)" stroke-width="1" opacity="1" d="M 51.5 89 L 53 91.5 L 52 96 Q 48 97.4 50 90.5 L 51.5 89 Z " /><path fill="rgb(245,246,242)" stroke="rgb(245,246,242)" stroke-width="1" opacity="1" d="M 102.5 89 L 103 91 L 99.5 93 L 99 91.5 L 102.5 89 Z " /><path fill="rgb(245,246,242)" stroke="rgb(245,246,242)" stroke-width="1" opacity="1" d="M 67.5 92 L 72 92.5 L 67.5 93 L 67.5 92 Z " /><path fill="rgb(245,246,242)" stroke="rgb(245,246,242)" stroke-width="1" opacity="1" d="M 91 94 L 93.5 95 L 97 94 Q 96 97 99 96 L 99 99 Q 95.7 100.1 97 96 L 91 96 L 91 94 Z " /><path fill="rgb(245,246,242)" stroke="rgb(245,246,242)" stroke-width="1" opacity="1" d="M 23 96 L 26 97.5 L 23 98 L 23 96 Z " /><path fill="rgb(245,246,242)" stroke="rgb(245,246,242)" stroke-width="1" opacity="1" d="M 16 98 Q 19 97 18 100 Q 15 101 16 98 Z " /><path fill="rgb(245,246,242)" stroke="rgb(245,246,242)" stroke-width="1" opacity="1" d="M 30 98 Q 33 97 32 100 Q 29 101 30 98 Z " /><path fill="rgb(245,246,242)" stroke="rgb(245,246,242)" stroke-width="1" opacity="1" d="M 37 98 Q 40 97 39 100 Q 36 101 37 98 Z " /><path fill="rgb(245,246,242)" stroke="rgb(245,246,242)" stroke-width="1" opacity="1" d="M 61 98 Q 64 97 63 100 Q 60 101 61 98 Z " /><path fill="rgb(245,246,242)" stroke="rgb(245,246,242)" stroke-width="1" opacity="1" d="M 68 98 Q 71 97 70 100 Q 67 101 68 98 Z " /><path fill="rgb(245,246,242)" stroke="rgb(245,246,242)" stroke-width="1" opacity="1" d="M 88.5 98 L 90.5 98 Q 93.1 97.3 92 100 Q 86.4 101.7 88.5 98 Z " /><path fill="rgb(232,232,230)" stroke="rgb(232,232,230)" stroke-width="1" opacity="1" d="M 15 47 L 17 47.5 L 15 48.5 L 15 47 Z " /><path fill="rgb(232,232,230)" stroke="rgb(232,232,230)" stroke-width="1" opacity="1" d="M 101.5 49 L 108 53.5 L 107.5 57 L 106 56.5 L 105.5 58 L 101 51.5 L 101.5 49 Z " /><path fill="rgb(232,232,230)" stroke="rgb(232,232,230)" stroke-width="1" opacity="1" d="M 6.5 50 L 10 50.5 L 6.5 51 L 6.5 50 Z " /><path fill="rgb(232,232,230)" stroke="rgb(232,232,230)" stroke-width="1" opacity="1" d="M 22.5 50 Q 27.3 48.3 26 52.5 L 21.5 58 L 21 56.5 L 22 54.5 L 20 55.5 L 19.5 57 L 19 53.5 L 22.5 50 Z " /><path fill="rgb(232,232,230)" stroke="rgb(232,232,230)" stroke-width="1" opacity="1" d="M 56.5 50 Q 59.1 49.3 58 52 L 55 53.5 L 55.5 55 L 73.5 55 L 80.5 50 L 80 51.5 L 78 60 L 48.5 60 L 48 57.5 L 56.5 50 Z M 50 57 L 50 58 L 78 58 L 50 57 Z " /><path fill="rgb(232,232,230)" stroke="rgb(232,232,230)" stroke-width="1" opacity="1" d="M 117.5 50 L 121 50.5 L 117.5 51 L 117.5 50 Z " /><path fill="rgb(232,232,230)" stroke="rgb(232,232,230)" stroke-width="1" opacity="1" d="M 6.5 55 L 11 56.5 L 4.5 57 L 4.5 56 L 6.5 55 Z " /><path fill="rgb(232,232,230)" stroke="rgb(232,232,230)" stroke-width="1" opacity="1" d="M 119.5 55 L 123 56.5 L 116.5 57 L 116.5 56 L 119.5 55 Z " /><path fill="rgb(232,232,230)" stroke="rgb(232,232,230)" stroke-width="1" opacity="1" d="M 4.5 58 L 14.5 58 L 15 60 L 13 60.5 L 13.5 62 L 12.5 59 L 6.5 61 L 4.5 58 Z " /><path fill="rgb(232,232,230)" stroke="rgb(232,232,230)" stroke-width="1" opacity="1" d="M 26.5 58 Q 31.3 56.3 30 60.5 L 28.5 60 L 24.5 61 L 26.5 58 Z " /><path fill="rgb(232,232,230)" stroke="rgb(232,232,230)" stroke-width="1" opacity="1" d="M 97 58 Q 101.7 57 103 60.5 L 101.5 60 L 97.5 61 L 97 58 Z " /><path fill="rgb(232,232,230)" stroke="rgb(232,232,230)" stroke-width="1" opacity="1" d="M 112 58 L 123 58.5 Q 121.3 62.8 119.5 60 L 114.5 59 L 113.5 62 L 113.5 60 Q 110.9 60.7 112 58 Z " /><path fill="rgb(232,232,230)" stroke="rgb(232,232,230)" stroke-width="1" opacity="1" d="M 26.5 61 L 28 64.5 L 26 65.5 L 26.5 64 L 25 63.5 L 26.5 61 Z " /><path fill="rgb(232,232,230)" stroke="rgb(232,232,230)" stroke-width="1" opacity="1" d="M 100.5 61 L 102 63.5 L 100 64.5 L 100.5 66 Q 97.8 64.8 100 63.5 L 100.5 61 Z " /><path fill="rgb(232,232,230)" stroke="rgb(232,232,230)" stroke-width="1" opacity="1" d="M 103.5 62 L 104 64.5 L 102 65.5 L 103.5 62 Z " /><path fill="rgb(232,232,230)" stroke="rgb(232,232,230)" stroke-width="1" opacity="1" d="M 19.5 63 L 20.5 65 L 19.5 63 Z " /><path fill="rgb(232,232,230)" stroke="rgb(232,232,230)" stroke-width="1" opacity="1" d="M 23.5 63 L 25 65.5 L 23 64.5 L 23.5 63 Z " /><path fill="rgb(232,232,230)" stroke="rgb(232,232,230)" stroke-width="1" opacity="1" d="M 107.5 63 L 106.5 65 L 107.5 63 Z " /><path fill="rgb(232,232,230)" stroke="rgb(232,232,230)" stroke-width="1" opacity="1" d="M 21.5 66 L 23.5 69 L 21.5 66 Z " /><path fill="rgb(232,232,230)" stroke="rgb(232,232,230)" stroke-width="1" opacity="1" d="M 105.5 66 L 103 69.5 L 102.5 71 L 102 69.5 L 105.5 66 Z " /><path fill="rgb(232,232,230)" stroke="rgb(232,232,230)" stroke-width="1" opacity="1" d="M 19.5 67 L 20.5 69 L 19.5 67 Z " /><path fill="rgb(232,232,230)" stroke="rgb(232,232,230)" stroke-width="1" opacity="1" d="M 30.5 73 L 33 73.5 L 30.5 74 L 30.5 73 Z " /><path fill="rgb(232,232,230)" stroke="rgb(232,232,230)" stroke-width="1" opacity="1" d="M 21.5 75 L 26 75.5 L 21.5 76 L 21.5 75 Z " /><path fill="rgb(232,232,230)" stroke="rgb(232,232,230)" stroke-width="1" opacity="1" d="M 96.5 75 L 97 76.5 L 95 77.5 L 96.5 75 Z " /><path fill="rgb(232,232,230)" stroke="rgb(232,232,230)" stroke-width="1" opacity="1" d="M 27.5 77 L 28.5 79 L 27.5 77 Z " /><path fill="rgb(232,232,230)" stroke="rgb(232,232,230)" stroke-width="1" opacity="1" d="M 100.5 78 L 103 78.5 L 100.5 79 L 100.5 78 Z " /><path fill="rgb(232,232,230)" stroke="rgb(232,232,230)" stroke-width="1" opacity="1" d="M 38.5 79 L 37.5 81 L 38.5 79 Z " /><path fill="rgb(232,232,230)" stroke="rgb(232,232,230)" stroke-width="1" opacity="1" d="M 49.5 79 L 51 81.5 L 49 80.5 L 49.5 79 Z " /><path fill="rgb(232,232,230)" stroke="rgb(232,232,230)" stroke-width="1" opacity="1" d="M 77.5 79 L 78 80.5 L 76 81.5 L 77.5 79 Z " /><path fill="rgb(232,232,230)" stroke="rgb(232,232,230)" stroke-width="1" opacity="1" d="M 88.5 79 L 89.5 81 L 88.5 79 Z " /><path fill="rgb(232,232,230)" stroke="rgb(232,232,230)" stroke-width="1" opacity="1" d="M 26.5 85 L 25.5 87 L 26.5 85 Z " /><path fill="rgb(232,232,230)" stroke="rgb(232,232,230)" stroke-width="1" opacity="1" d="M 100.5 85 L 101.5 87 L 100.5 85 Z " /><path fill="rgb(232,232,230)" stroke="rgb(232,232,230)" stroke-width="1" opacity="1" d="M 52.5 86 L 51.5 88 L 52.5 86 Z " /><path fill="rgb(232,232,230)" stroke="rgb(232,232,230)" stroke-width="1" opacity="1" d="M 74.5 86 L 75.5 88 L 74.5 86 Z " /><path fill="rgb(232,232,230)" stroke="rgb(232,232,230)" stroke-width="1" opacity="1" d="M 69.5 87 L 70.5 89 L 69.5 87 Z " /><path fill="rgb(232,232,230)" stroke="rgb(232,232,230)" stroke-width="1" opacity="1" d="M 61.5 91 Q 65 93 60.5 95 Q 57 93 61.5 91 Z " /><path fill="rgb(241,242,239)" stroke="rgb(241,242,239)" stroke-width="1" opacity="1" d="M 101.5 7 L 103 7.5 L 101 8.5 L 101.5 10 Q 97 11 96 8.5 L 101.5 7 Z " /><path fill="rgb(241,242,239)" stroke="rgb(241,242,239)" stroke-width="1" opacity="1" d="M 12.5 8 L 16 9.5 Q 17.5 13.9 14.5 13 Q 10.8 11.8 12.5 8 Z " /><path fill="rgb(241,242,239)" stroke="rgb(241,242,239)" stroke-width="1" opacity="1" d="M 26.5 8 Q 30.3 7.3 31 9.5 L 25.5 10 L 26.5 8 Z " /><path fill="rgb(241,242,239)" stroke="rgb(241,242,239)" stroke-width="1" opacity="1" d="M 114.5 8 L 115 10.5 L 111 13 Q 108.9 7.8 113.5 9 L 114.5 8 Z " /><path fill="rgb(241,242,239)" stroke="rgb(241,242,239)" stroke-width="1" opacity="1" d="M 59.5 9 Q 70.3 7.3 74 12.5 Q 73.3 14.8 75.5 14 L 75.5 15 Q 69.3 13.3 67.5 16 L 66.5 14 L 62.5 14 L 58.5 13 L 56.5 15 L 51.5 16 L 56.5 10 L 59.5 9 Z " /><path fill="rgb(241,242,239)" stroke="rgb(241,242,239)" stroke-width="1" opacity="1" d="M 21.5 12 Q 26.6 11.4 28 14.5 L 25.5 16 L 21.5 14 L 19 15.5 Q 17.9 12.2 20.5 13 L 21.5 12 Z " /><path fill="rgb(241,242,239)" stroke="rgb(241,242,239)" stroke-width="1" opacity="1" d="M 102.5 12 Q 107.3 11.3 108 14.5 L 107.5 16 Q 106 12.5 104.5 15 L 100.5 16 Q 97.5 14.5 100.5 13 L 102.5 12 Z " /><path fill="rgb(241,242,239)" stroke="rgb(241,242,239)" stroke-width="1" opacity="1" d="M 119.5 12 Q 122.5 13.5 119.5 15 L 117 14.5 L 119.5 12 Z " /><path fill="rgb(241,242,239)" stroke="rgb(241,242,239)" stroke-width="1" opacity="1" d="M 6 13 L 10 14.5 L 6 15 L 6 13 Z " /><path fill="rgb(241,242,239)" stroke="rgb(241,242,239)" stroke-width="1" opacity="1" d="M 3.5 27 L 4.5 29 L 3.5 27 Z " /><path fill="rgb(241,242,239)" stroke="rgb(241,242,239)" stroke-width="1" opacity="1" d="M 11.5 35 L 12.5 39 L 14 38.5 L 12.5 41 Q 10 39 11.5 35 Z " /><path fill="rgb(241,242,239)" stroke="rgb(241,242,239)" stroke-width="1" opacity="1" d="M 115.5 35 L 116 37.5 L 115 37.5 L 115.5 35 Z " /><path fill="rgb(241,242,239)" stroke="rgb(241,242,239)" stroke-width="1" opacity="1" d="M 113.5 38 L 115 40.5 L 114 40.5 L 113.5 38 Z " /><path fill="rgb(241,242,239)" stroke="rgb(241,242,239)" stroke-width="1" opacity="1" d="M 65.5 44 L 63.5 47 L 65.5 44 Z " /><path fill="rgb(241,242,239)" stroke="rgb(241,242,239)" stroke-width="1" opacity="1" d="M 111.5 49 L 112.5 51 L 111.5 49 Z " /><path fill="rgb(241,242,239)" stroke="rgb(241,242,239)" stroke-width="1" opacity="1" d="M 48.5 60 L 78 60.5 L 48.5 61 L 48.5 60 Z " /><path fill="rgb(241,242,239)" stroke="rgb(241,242,239)" stroke-width="1" opacity="1" d="M 20.5 63 L 19.5 65 L 20.5 63 Z " /><path fill="rgb(241,242,239)" stroke="rgb(241,242,239)" stroke-width="1" opacity="1" d="M 106.5 63 L 107.5 65 L 106.5 63 Z " /><path fill="rgb(241,242,239)" stroke="rgb(241,242,239)" stroke-width="1" opacity="1" d="M 12.5 65 L 15 65.5 L 12.5 66 L 12.5 65 Z " /><path fill="rgb(241,242,239)" stroke="rgb(241,242,239)" stroke-width="1" opacity="1" d="M 112.5 65 L 115 65.5 L 112.5 66 L 112.5 65 Z " /><path fill="rgb(241,242,239)" stroke="rgb(241,242,239)" stroke-width="1" opacity="1" d="M 37.5 87 L 36.5 89 L 37.5 87 Z " /><path fill="rgb(229,229,228)" stroke="rgb(229,229,228)" stroke-width="1" opacity="1" d="M 4.5 57 L 13 57.5 L 4.5 58 L 4.5 57 Z " /><path fill="rgb(229,229,228)" stroke="rgb(229,229,228)" stroke-width="1" opacity="1" d="M 27.5 57 L 30 57.5 L 27.5 58 L 27.5 57 Z " /><path fill="rgb(229,229,228)" stroke="rgb(229,229,228)" stroke-width="1" opacity="1" d="M 49.5 57 L 78 57.5 L 49.5 58 L 49.5 57 Z " /><path fill="rgb(229,229,228)" stroke="rgb(229,229,228)" stroke-width="1" opacity="1" d="M 97.5 57 L 100 57.5 L 97.5 58 L 97.5 57 Z " /><path fill="rgb(229,229,228)" stroke="rgb(229,229,228)" stroke-width="1" opacity="1" d="M 114.5 57 L 123 57.5 L 114.5 58 L 114.5 57 Z " /><path fill="rgb(229,229,228)" stroke="rgb(229,229,228)" stroke-width="1" opacity="1" d="M 7.5 60 Q 12 59 13 61.5 L 9.5 62 L 7.5 60 Z " /><path fill="rgb(229,229,228)" stroke="rgb(229,229,228)" stroke-width="1" opacity="1" d="M 25.5 60 Q 30.3 58.3 29 62.5 L 26 64.5 L 27 61.5 L 26 61.5 L 24.5 65 L 24 61.5 L 25.5 60 Z " /><path fill="rgb(229,229,228)" stroke="rgb(229,229,228)" stroke-width="1" opacity="1" d="M 98 60 Q 101.8 59 103 61.5 L 102.5 65 L 100.5 61 L 100 63.5 L 100.5 65 L 98 60 Z " /><path fill="rgb(229,229,228)" stroke="rgb(229,229,228)" stroke-width="1" opacity="1" d="M 115.5 60 L 120 60.5 L 114.5 62 L 115.5 60 Z " /><path fill="rgb(229,229,228)" stroke="rgb(229,229,228)" stroke-width="1" opacity="1" d="M 34.5 62 L 36 65.5 L 33.5 73 L 32.5 69 L 32 73 Q 28 74.4 30 67.5 L 34.5 62 Z " /><path fill="rgb(229,229,228)" stroke="rgb(229,229,228)" stroke-width="1" opacity="1" d="M 92 63 L 96 65.5 L 97 73 Q 93.7 74.3 95 69.5 L 94 69.5 L 93.5 73 L 91 65.5 L 92 63 Z " /><path fill="rgb(229,229,228)" stroke="rgb(229,229,228)" stroke-width="1" opacity="1" d="M 12.5 66 Q 18 65.5 20 68.5 L 16 69.5 L 20 70.5 Q 18.5 73.5 12.5 72 L 8 68.5 L 12.5 66 Z " /><path fill="rgb(229,229,228)" stroke="rgb(229,229,228)" stroke-width="1" opacity="1" d="M 111.5 66 L 119 67.5 L 116.5 71 L 108.5 72 L 107.5 70 L 112 69.5 L 106 68.5 L 111.5 66 Z " /><path fill="rgb(229,229,228)" stroke="rgb(229,229,228)" stroke-width="1" opacity="1" d="M 40.5 68 Q 43.6 69.4 43 74.5 L 41.5 77 L 39.5 74 L 39 77 Q 35.7 78.3 37 73.5 L 40.5 68 Z " /><path fill="rgb(229,229,228)" stroke="rgb(229,229,228)" stroke-width="1" opacity="1" d="M 86.5 68 Q 90.7 70.5 90 77 Q 86.3 78.5 87 75.5 L 86 75.5 L 85.5 77 Q 83 76 84 71.5 L 86.5 68 Z " /><path fill="rgb(229,229,228)" stroke="rgb(229,229,228)" stroke-width="1" opacity="1" d="M 25.5 71 L 30.5 77 L 25.5 71 Z " /><path fill="rgb(229,229,228)" stroke="rgb(229,229,228)" stroke-width="1" opacity="1" d="M 48.5 71 L 52 77.5 L 50.5 77 Q 45.1 78.9 46 75.5 L 48.5 71 Z " /><path fill="rgb(229,229,228)" stroke="rgb(229,229,228)" stroke-width="1" opacity="1" d="M 78.5 71 L 81 77 L 75.5 78 L 76 76.5 L 78.5 71 Z " /><path fill="rgb(229,229,228)" stroke="rgb(229,229,228)" stroke-width="1" opacity="1" d="M 101.5 71 L 97.5 76 L 101.5 71 Z " /><path fill="rgb(229,229,228)" stroke="rgb(229,229,228)" stroke-width="1" opacity="1" d="M 103.5 75 L 109 76.5 L 100.5 77 L 99.5 78 L 99 76 L 103.5 75 Z " /><path fill="rgb(229,229,228)" stroke="rgb(229,229,228)" stroke-width="1" opacity="1" d="M 18.5 76 L 28 76.5 L 18.5 77 L 18.5 76 Z " /><path fill="rgb(229,229,228)" stroke="rgb(229,229,228)" stroke-width="1" opacity="1" d="M 79.5 82 L 78.5 84 L 79.5 82 Z " /><path fill="rgb(229,229,228)" stroke="rgb(229,229,228)" stroke-width="1" opacity="1" d="M 92.5 85 L 93.5 87 L 92.5 85 Z " /><path fill="rgb(229,229,228)" stroke="rgb(229,229,228)" stroke-width="1" opacity="1" d="M 51.5 86 L 52.5 88 L 51.5 86 Z " /><path fill="rgb(227,227,226)" stroke="rgb(227,227,226)" stroke-width="1" opacity="1" d="M 39.5 74 L 40 79.5 L 38 78.5 L 39.5 74 Z " /><path fill="rgb(227,227,226)" stroke="rgb(227,227,226)" stroke-width="1" opacity="1" d="M 17.5 77 L 27 77.5 L 22 78.5 L 28 79.5 Q 25.7 82.7 19.5 82 L 15 78.5 L 17.5 77 Z " /><path fill="rgb(227,227,226)" stroke="rgb(227,227,226)" stroke-width="1" opacity="1" d="M 46 77 Q 50.6 75.8 52 78.5 L 51.5 83 L 49.5 78 L 49 81.5 L 50 83.5 L 47 81.5 L 46 77 Z " /><path fill="rgb(227,227,226)" stroke="rgb(227,227,226)" stroke-width="1" opacity="1" d="M 76.5 77 Q 82.3 74.9 81 79.5 L 77.5 84 L 77 82.5 L 78 78.5 L 77 78.5 L 75.5 83 L 75 78.5 L 76.5 77 Z " /><path fill="rgb(227,227,226)" stroke="rgb(227,227,226)" stroke-width="1" opacity="1" d="M 87 77 Q 89.7 75.9 89 78.5 L 87 79.5 L 87 77 Z " /><path fill="rgb(227,227,226)" stroke="rgb(227,227,226)" stroke-width="1" opacity="1" d="M 100.5 77 Q 108.7 75.3 112 78.5 Q 110.4 82.9 103.5 82 L 99 79.5 L 104 78.5 Q 99.6 78.9 100.5 77 Z " /><path fill="rgb(227,227,226)" stroke="rgb(227,227,226)" stroke-width="1" opacity="1" d="M 40.5 82 L 43 83.5 L 41.5 84 L 40.5 82 Z " /><path fill="rgb(227,227,226)" stroke="rgb(227,227,226)" stroke-width="1" opacity="1" d="M 86.5 82 L 85.5 84 L 84 83.5 L 86.5 82 Z " /><path fill="rgb(227,227,226)" stroke="rgb(227,227,226)" stroke-width="1" opacity="1" d="M 31.5 83 L 38 83.5 L 34 85.5 L 36.5 86 L 38 85.5 L 36.5 88 L 26.5 88 L 25.5 89 L 25 87.5 L 31.5 83 Z " /><path fill="rgb(227,227,226)" stroke="rgb(227,227,226)" stroke-width="1" opacity="1" d="M 89.5 83 Q 99.1 81.9 102 87.5 L 101.5 89 L 100.5 88 L 92.5 88 Q 90.8 90.7 89 86.5 L 89.5 85 L 92.5 86 L 92.5 85 Q 88.7 84.8 89.5 83 Z " /><path fill="rgb(227,227,226)" stroke="rgb(227,227,226)" stroke-width="1" opacity="1" d="M 75.5 86 L 78 86.5 L 75.5 87 L 75.5 86 Z " /><path fill="rgb(227,227,226)" stroke="rgb(227,227,226)" stroke-width="1" opacity="1" d="M 53.5 87 Q 57.3 86.3 58 88.5 L 56.5 88 Q 52.5 88.7 53.5 87 Z " /><path fill="rgb(227,227,226)" stroke="rgb(227,227,226)" stroke-width="1" opacity="1" d="M 70.5 87 L 74 87.5 L 69.5 89 L 70.5 87 Z " /><path fill="rgb(227,227,226)" stroke="rgb(227,227,226)" stroke-width="1" opacity="1" d="M 45.5 88 L 50 90.5 L 48.5 91 L 46.5 91 L 44.5 92 L 40 90.5 L 45.5 88 Z " /><path fill="rgb(227,227,226)" stroke="rgb(227,227,226)" stroke-width="1" opacity="1" d="M 67.5 88 L 66.5 90 L 63.5 92 L 63 90 L 67.5 88 Z " /><path fill="rgb(227,227,226)" stroke="rgb(227,227,226)" stroke-width="1" opacity="1" d="M 81.5 88 L 87 90.5 L 80 91 L 81.5 88 Z " /><path fill="rgb(227,227,226)" stroke="rgb(227,227,226)" stroke-width="1" opacity="1" d="M 28.5 89 L 33 89.5 L 28.5 90 L 28.5 89 Z " /><path fill="rgb(227,227,226)" stroke="rgb(227,227,226)" stroke-width="1" opacity="1" d="M 95.5 89 L 98 89.5 L 95.5 90 L 95.5 89 Z " /><path fill="rgb(223,224,223)" stroke="rgb(223,224,223)" stroke-width="1" opacity="1" d="M 26.5 88 L 35 88.5 L 27.5 90 L 26.5 88 Z " /><path fill="rgb(223,224,223)" stroke="rgb(223,224,223)" stroke-width="1" opacity="1" d="M 78.5 88 L 81 88.5 Q 78.9 91.8 78.5 88 Z " /><path fill="rgb(223,224,223)" stroke="rgb(223,224,223)" stroke-width="1" opacity="1" d="M 92.5 88 L 101 88.5 L 98.5 90 L 95.5 89 L 93.5 89 L 92.5 88 Z " /><path fill="rgb(223,224,223)" stroke="rgb(223,224,223)" stroke-width="1" opacity="1" d="M 61.5 89 L 63 91.5 L 60 93.5 L 62 90.5 L 61.5 89 Z " /><path fill="rgb(223,224,223)" stroke="rgb(223,224,223)" stroke-width="1" opacity="1" d="M 39.5 91 Q 44.9 89.1 44 92.5 L 45.5 92 L 48.5 91 L 48 92.5 L 46.5 95 Q 44.2 97.7 38.5 97 L 37 93.5 L 39.5 91 Z " /><path fill="rgb(223,224,223)" stroke="rgb(223,224,223)" stroke-width="1" opacity="1" d="M 64.5 91 L 66.5 94 L 64.5 91 Z " /><path fill="rgb(223,224,223)" stroke="rgb(223,224,223)" stroke-width="1" opacity="1" d="M 78 91 L 81.5 92 Q 82.7 89.8 87.5 91 L 90 95.5 Q 89 98 84.5 97 L 78 92.5 L 78 91 Z " /></svg>