<svg width="24" height="24" viewBox="0 0 24 24" fill="none" xmlns="http://www.w3.org/2000/svg">
<path fill-rule="evenodd" clip-rule="evenodd" d="M11.8383 1.24996C10.132 1.24969 9.09078 1.24952 8.22326 1.5314C6.47274 2.10017 5.10031 3.47261 4.53153 5.22312L4.52291 5.24997H4.23087C0.525334 5.24997 -1.06647 9.95204 1.87705 12.203L1.8877 12.2111L4.35461 13.9615C4.44402 14.0249 4.53679 14.0833 4.63249 14.1364C4.63386 14.14 4.63523 14.1436 4.6366 14.1471C4.64621 14.1722 4.65606 14.1973 4.66613 14.2223C4.92162 14.8569 5.42031 15.6184 5.89993 16.1062C6.68156 16.9012 7.49044 17.2537 8.78209 17.8166L8.86793 17.854C9.42429 18.0966 9.98686 18.3166 10.5092 18.4772C10.7566 18.5532 11.0063 18.6195 11.2501 18.6677V21.25H8.00011C7.58589 21.25 7.25011 21.5858 7.25011 22C7.25011 22.4142 7.58589 22.75 8.00011 22.75H16.0001C16.4143 22.75 16.7501 22.4142 16.7501 22C16.7501 21.5858 16.4143 21.25 16.0001 21.25H12.7501V18.6677C12.9939 18.6195 13.2436 18.5532 13.491 18.4772C14.0134 18.3166 14.5759 18.0966 15.1323 17.854L15.2181 17.8166C16.5098 17.2537 17.3187 16.9012 18.1003 16.1062C18.5799 15.6184 19.0786 14.8569 19.3341 14.2223C19.3453 14.1945 19.3562 14.1666 19.3668 14.1387C19.4646 14.0831 19.5595 14.0227 19.6513 13.9575L22.1126 12.2111L22.1233 12.203C25.0668 9.95204 23.475 5.24997 19.7695 5.24997H19.4773L19.4687 5.22312C18.8999 3.47261 17.5275 2.10017 15.777 1.5314C14.9094 1.24952 13.8682 1.24969 12.1619 1.24996H11.8383ZM2.77825 11.0038C0.987768 9.6212 1.96397 6.74997 4.23087 6.74997H4.28317C4.25004 7.33508 4.25007 8.03681 4.2501 8.91602L4.2501 10.416C4.25002 11.041 4.24996 11.5801 4.27009 12.0623L2.77825 11.0038ZM21.2221 11.0038L19.7301 12.0624C19.7503 11.5803 19.7502 11.0416 19.7501 10.4169L19.7501 8.91596C19.7501 8.03687 19.7502 7.33503 19.717 6.74997H19.7695C22.0364 6.74997 23.0126 9.62119 21.2221 11.0038ZM8.68678 2.95798C9.29849 2.75923 10.0805 2.74997 12.0001 2.74997C13.9198 2.74997 14.7017 2.75923 15.3134 2.95798C16.6073 3.37838 17.6217 4.39279 18.0421 5.68665C18.0844 5.81682 18.119 5.95932 18.1468 6.12457C18.2475 6.72217 18.2501 7.52812 18.2501 8.99997V10.3004C18.2501 11.9474 18.2427 12.7174 18.0387 13.3896C18.0108 13.4814 17.979 13.5717 17.9426 13.6621C17.761 14.1133 17.3717 14.7077 17.0307 15.0546C16.4712 15.6236 15.9293 15.8702 14.5328 16.479C14.0066 16.7085 13.5001 16.9051 13.0504 17.0433C12.5897 17.1849 12.2361 17.25 12.0001 17.25C11.7641 17.25 11.4105 17.1849 10.9498 17.0433C10.5002 16.9051 9.99361 16.7085 9.46741 16.479C8.07096 15.8702 7.52902 15.6236 6.96954 15.0546C6.62855 14.7077 6.23924 14.1133 6.0576 13.6621C6.0201 13.569 5.98751 13.476 5.95905 13.3813C5.75741 12.7106 5.75011 11.9404 5.75011 10.3004V8.99997C5.75011 7.52812 5.75272 6.72217 5.8534 6.12457C5.88124 5.95932 5.91582 5.81682 5.95812 5.68665C6.37852 4.39279 7.39292 3.37838 8.68678 2.95798Z" fill="black"/>
</svg>
