<svg width="20" height="22" viewBox="0 0 20 22" fill="none" xmlns="http://www.w3.org/2000/svg">
<path d="M5 10.75C5 10.3358 5.33579 10 5.75 10H8.75C9.16421 10 9.5 10.3358 9.5 10.75C9.5 11.1642 9.16421 11.5 8.75 11.5H5.75C5.33579 11.5 5 11.1642 5 10.75Z" fill="black"/>
<path d="M5 14.75C5 14.3358 5.33579 14 5.75 14H13.75C14.1642 14 14.5 14.3358 14.5 14.75C14.5 15.1642 14.1642 15.5 13.75 15.5H5.75C5.33579 15.5 5 15.1642 5 14.75Z" fill="black"/>
<path fill-rule="evenodd" clip-rule="evenodd" d="M13.7824 0.0837244C14.857 0.168172 15.7549 0.341725 16.5282 0.731678C16.7392 0.838089 16.9392 0.959669 17.1298 1.09815C17.6179 1.45281 18.0472 1.88209 18.4018 2.37023C18.9877 3.17656 19.25 4.12094 19.3763 5.28648C19.5 6.42861 19.5 7.8682 19.5 9.70473V11.7953C19.5 13.6318 19.5 15.0714 19.3763 16.2135C19.25 17.3791 18.9877 18.3234 18.4018 19.1298C18.0472 19.6179 17.6179 20.0472 17.1298 20.4018C16.3234 20.9877 15.3791 21.25 14.2135 21.3763C13.0714 21.5 11.6318 21.5 9.79527 21.5H9.70473C7.8682 21.5 6.42861 21.5 5.28648 21.3763C4.12094 21.25 3.17656 20.9877 2.37024 20.4018C1.88209 20.0472 1.45281 19.6179 1.09815 19.1298C0.512324 18.3234 0.250006 17.3791 0.123728 16.2135C-1.46478e-05 15.0714 -8.14982e-06 13.6318 1.35225e-07 11.7952V9.70475C-8.14982e-06 7.86821 -1.46478e-05 6.42861 0.123728 5.28648C0.250006 4.12094 0.512324 3.17656 1.09815 2.37023C1.45281 1.88209 1.88209 1.45281 2.37024 1.09815C2.73789 0.831033 3.13699 0.629231 3.57759 0.477205C4.30633 0.22576 5.14671 0.111672 6.13484 0.0557228C7.11901 -2.2836e-06 8.30244 -1.21074e-06 9.72961 4.0955e-08H9.78049C11.4055 -3.2373e-06 12.7169 -5.92321e-06 13.7824 0.0837244ZM13.6649 1.57911C12.6649 1.50053 11.4117 1.5 9.75 1.5C8.29848 1.5 7.15668 1.50027 6.21964 1.55332C5.89312 1.57181 5.5979 1.59647 5.32917 1.62856C6.16092 2.45052 6.82917 3.08457 7.42572 3.56202C8.22813 4.20425 8.83459 4.50721 9.44912 4.60454C9.88961 4.67431 10.3383 4.67431 10.7788 4.60454C11.3762 4.50993 11.9661 4.22095 12.7356 3.6149C13.3234 3.15202 13.9809 2.53324 14.7992 1.72683C14.4736 1.66158 14.1002 1.61333 13.6649 1.57911ZM16.3009 2.35065C15.2726 3.37405 14.4269 4.19231 13.6637 4.79333C12.7879 5.48301 11.9616 5.9359 11.0135 6.08608C10.4175 6.18047 9.81042 6.18047 9.21447 6.08608C8.23904 5.93158 7.39243 5.45666 6.48842 4.73311C5.67896 4.08525 4.77087 3.19359 3.6468 2.07123C3.5056 2.14247 3.37499 2.22225 3.25191 2.31168C2.89111 2.57382 2.57382 2.89111 2.31168 3.25191C1.94259 3.75992 1.72745 4.41013 1.615 5.44804C1.50103 6.49999 1.5 7.85843 1.5 9.75V11.75C1.5 13.6416 1.50103 15 1.615 16.052C1.72745 17.0899 1.94259 17.7401 2.31168 18.2481C2.57382 18.6089 2.89111 18.9262 3.25191 19.1883C3.75992 19.5574 4.41013 19.7725 5.44805 19.885C6.49999 19.999 7.85843 20 9.75 20C11.6416 20 13 19.999 14.052 19.885C15.0899 19.7725 15.7401 19.5574 16.2481 19.1883C16.6089 18.9262 16.9262 18.6089 17.1883 18.2481C17.5574 17.7401 17.7725 17.0899 17.885 16.052C17.999 15 18 13.6416 18 11.75V9.75C18 7.85843 17.999 6.49999 17.885 5.44804C17.7725 4.41013 17.5574 3.75992 17.1883 3.25191C16.939 2.90881 16.6399 2.60505 16.3009 2.35065Z" fill="black"/>
</svg>
