<svg width="20" height="22" viewBox="0 0 20 22" fill="none" xmlns="http://www.w3.org/2000/svg">
<path d="M10.5 11.75C10.5 11.3358 10.1642 11 9.75003 11C9.33582 11 9.00003 11.3358 9.00003 11.75V15.75C9.00003 16.1642 9.33582 16.5 9.75003 16.5C10.1642 16.5 10.5 16.1642 10.5 15.75V11.75Z" fill="#0D0D0D"/>
<path fill-rule="evenodd" clip-rule="evenodd" d="M9.75003 0C6.5744 0 4.00003 2.57436 4.00003 5.75V6.27281L3.97319 6.28142C2.22267 6.8502 0.850236 8.22263 0.281458 9.97315C-0.00041604 10.8407 -0.000252241 11.8819 1.62781e-05 13.5882V13.9118C-0.000252241 15.6181 -0.00041604 16.6593 0.281458 17.5268C0.850236 19.2774 2.22267 20.6498 3.97319 21.2186C4.8407 21.5005 5.88191 21.5003 7.58817 21.5H11.9119C13.6182 21.5003 14.6594 21.5005 15.5269 21.2186C17.2774 20.6498 18.6498 19.2774 19.2186 17.5268C19.5005 16.6593 19.5003 15.6181 19.5 13.9119V13.5881C19.5003 11.8819 19.5005 10.8407 19.2186 9.97315C18.6498 8.22263 17.2774 6.8502 15.5269 6.28142C14.6594 5.99955 13.6182 5.99971 11.9119 5.99998L7.66608 6C6.78688 5.99997 6.08514 5.99994 5.50003 6.03306V5.75C5.50003 3.40279 7.40282 1.5 9.75003 1.5C10.7078 1.5 11.5897 1.81595 12.3 2.34962C12.6312 2.59843 13.1013 2.53167 13.3501 2.20051C13.5989 1.86935 13.5322 1.39919 13.201 1.15038C12.2399 0.428231 11.0439 0 9.75003 0ZM11.75 7.5C13.6697 7.5 14.4516 7.50925 15.0634 7.70801C16.3572 8.12841 17.3716 9.14282 17.792 10.4367C17.9908 11.0484 18 11.8303 18 13.75C18 15.6697 17.9908 16.4516 17.792 17.0633C17.3716 18.3572 16.3572 19.3716 15.0634 19.792C14.4516 19.9907 13.6697 20 11.75 20H7.75003C5.83038 20 5.04842 19.9907 4.43671 19.792C3.14285 19.3716 2.12844 18.3572 1.70804 17.0633C1.50929 16.4516 1.50003 15.6697 1.50003 13.75C1.50003 11.8303 1.50929 11.0484 1.70804 10.4367C2.12844 9.14282 3.14285 8.12841 4.43671 7.70801C4.56688 7.66571 4.70938 7.63113 4.87463 7.60329C5.47223 7.50262 6.27818 7.5 7.75003 7.5H11.75Z" fill="#0D0D0D"/>
</svg>
